<svg xmlns:xlink="http://www.w3.org/1999/xlink" xmlns="http://www.w3.org/2000/svg" width="1200" height="800"><g transform="translate(240,50)"><g class="x axis" transform="translate(0,NaN)" fill="none" font-size="10" font-family="sans-serif" text-anchor="middle"><g class="tick" opacity="1" transform="translate(0.5,0)" fill="none"><line stroke="#E0E0E0" y2="730" fill="none"/><text fill="#000" y="-3" dy="0em">1955</text></g><g class="tick" opacity="1" transform="translate(68.5,0)" fill="none"><line stroke="#E0E0E0" y2="730" fill="none"/><text fill="#000" y="-3" dy="0em">1960</text></g><g class="tick" opacity="1" transform="translate(137.5,0)" fill="none"><line stroke="#E0E0E0" y2="730" fill="none"/><text fill="#000" y="-3" dy="0em">1965</text></g><g class="tick" opacity="1" transform="translate(205.5,0)" fill="none"><line stroke="#E0E0E0" y2="730" fill="none"/><text fill="#000" y="-3" dy="0em">1970</text></g><g class="tick" opacity="1" transform="translate(274.5,0)" fill="none"><line stroke="#E0E0E0" y2="730" fill="none"/><text fill="#000" y="-3" dy="0em">1975</text></g><g class="tick" opacity="1" transform="translate(342.5,0)" fill="none"><line stroke="#E0E0E0" y2="730" fill="none"/><text fill="#000" y="-3" dy="0em">1980</text></g><g class="tick" opacity="1" transform="translate(411.5,0)" fill="none"><line stroke="#E0E0E0" y2="730" fill="none"/><text fill="#000" y="-3" dy="0em">1985</text></g><g class="tick" opacity="1" transform="translate(479.5,0)" fill="none"><line stroke="#E0E0E0" y2="730" fill="none"/><text fill="#000" y="-3" dy="0em">1990</text></g><g class="tick" opacity="1" transform="translate(548.5,0)" fill="none"><line stroke="#E0E0E0" y2="730" fill="none"/><text fill="#000" y="-3" dy="0em">1995</text></g><g class="tick" opacity="1" transform="translate(616.5,0)" fill="none"><line stroke="#E0E0E0" y2="730" fill="none"/><text fill="#000" y="-3" dy="0em">2000</text></g><g class="tick" opacity="1" transform="translate(685.5,0)" fill="none"><line stroke="#E0E0E0" y2="730" fill="none"/><text fill="#000" y="-3" dy="0em">2005</text></g><g class="tick" opacity="1" transform="translate(753.5,0)" fill="none"><line stroke="#E0E0E0" y2="730" fill="none"/><text fill="#000" y="-3" dy="0em">2010</text></g><g class="tick" opacity="1" transform="translate(822.5,0)" fill="none"><line stroke="#E0E0E0" y2="730" fill="none"/><text fill="#000" y="-3" dy="0em">2015</text></g><g class="tick" opacity="1" transform="translate(890.5,0)" fill="none"><line stroke="#E0E0E0" y2="730" fill="none"/><text fill="#000" y="-3" dy="0em">2020</text></g></g><g class="y axis" transform="translate(-6,0)" fill="none" font-size="10" font-family="sans-serif" text-anchor="end"><g class="tick" opacity="1" transform="translate(0,707.1428571428572)" fill="none"><line stroke="#E0E0E0" x2="0" fill="none"/><text fill="#000" x="-20" dy="0.32em">北京大学 郝平</text></g><g class="tick" opacity="1" transform="translate(0,681.4285714285714)" fill="none"><line stroke="#E0E0E0" x2="0" fill="none"/><text fill="#000" x="-20" dy="0.32em">清华大学 邱勇</text></g><g class="tick" opacity="1" transform="translate(0,655.7142857142858)" fill="none"><line stroke="#E0E0E0" x2="0" fill="none"/><text fill="#000" x="-20" dy="0.32em">中国人民大学 刘伟</text></g><g class="tick" opacity="1" transform="translate(0,630)" fill="none"><line stroke="#E0E0E0" x2="0" fill="none"/><text fill="#000" x="-20" dy="0.32em">北京师范大学 董奇</text></g><g class="tick" opacity="1" transform="translate(0,604.2857142857143)" fill="none"><line stroke="#E0E0E0" x2="0" fill="none"/><text fill="#000" x="-20" dy="0.32em">北京航空航天大学 徐惠彬</text></g><g class="tick" opacity="1" transform="translate(0,578.5714285714287)" fill="none"><line stroke="#E0E0E0" x2="0" fill="none"/><text fill="#000" x="-20" dy="0.32em">南开大学 曹雪涛</text></g><g class="tick" opacity="1" transform="translate(0,552.8571428571429)" fill="none"><line stroke="#E0E0E0" x2="0" fill="none"/><text fill="#000" x="-20" dy="0.32em">天津大学 金东寒</text></g><g class="tick" opacity="1" transform="translate(0,527.1428571428572)" fill="none"><line stroke="#E0E0E0" x2="0" fill="none"/><text fill="#000" x="-20" dy="0.32em">中国农业大学 孙其信</text></g><g class="tick" opacity="1" transform="translate(0,501.42857142857144)" fill="none"><line stroke="#E0E0E0" x2="0" fill="none"/><text fill="#000" x="-20" dy="0.32em">北京理工大学 张军</text></g><g class="tick" opacity="1" transform="translate(0,475.7142857142857)" fill="none"><line stroke="#E0E0E0" x2="0" fill="none"/><text fill="#000" x="-20" dy="0.32em">北京科技大学 杨仁树</text></g><g class="tick" opacity="1" transform="translate(0,450)" fill="none"><line stroke="#E0E0E0" x2="0" fill="none"/><text fill="#000" x="-20" dy="0.32em">北京化工大学 谭天伟</text></g><g class="tick" opacity="1" transform="translate(0,424.2857142857143)" fill="none"><line stroke="#E0E0E0" x2="0" fill="none"/><text fill="#000" x="-20" dy="0.32em">北京邮电大学 乔建永</text></g><g class="tick" opacity="1" transform="translate(0,398.57142857142856)" fill="none"><line stroke="#E0E0E0" x2="0" fill="none"/><text fill="#000" x="-20" dy="0.32em">北京交通大学 王稼琼</text></g><g class="tick" opacity="1" transform="translate(0,372.85714285714283)" fill="none"><line stroke="#E0E0E0" x2="0" fill="none"/><text fill="#000" x="-20" dy="0.32em">对外经贸大学 夏文斌</text></g><g class="tick" opacity="1" transform="translate(0,347.1428571428571)" fill="none"><line stroke="#E0E0E0" x2="0" fill="none"/><text fill="#000" x="-20" dy="0.32em">中央财经大学 王瑶琪</text></g><g class="tick" opacity="1" transform="translate(0,321.4285714285714)" fill="none"><line stroke="#E0E0E0" x2="0" fill="none"/><text fill="#000" x="-20" dy="0.32em">中国政法大学 马怀德</text></g><g class="tick" opacity="1" transform="translate(0,295.7142857142857)" fill="none"><line stroke="#E0E0E0" x2="0" fill="none"/><text fill="#000" x="-20" dy="0.32em">中国石油大学（北京） 张来斌</text></g><g class="tick" opacity="1" transform="translate(0,270)" fill="none"><line stroke="#E0E0E0" x2="0" fill="none"/><text fill="#000" x="-20" dy="0.32em">华北电力大学 杨勇平</text></g><g class="tick" opacity="1" transform="translate(0,244.2857142857143)" fill="none"><line stroke="#E0E0E0" x2="0" fill="none"/><text fill="#000" x="-20" dy="0.32em">北京林业大学 安黎哲</text></g><g class="tick" opacity="1" transform="translate(0,218.57142857142858)" fill="none"><line stroke="#E0E0E0" x2="0" fill="none"/><text fill="#000" x="-20" dy="0.32em">太原理工大学 黄庆学</text></g><g class="tick" opacity="1" transform="translate(0,192.85714285714286)" fill="none"><line stroke="#E0E0E0" x2="0" fill="none"/><text fill="#000" x="-20" dy="0.32em">北京体育大学 曹卫东</text></g><g class="tick" opacity="1" transform="translate(0,167.14285714285714)" fill="none"><line stroke="#E0E0E0" x2="0" fill="none"/><text fill="#000" x="-20" dy="0.32em">北京外国语大学 杨丹</text></g><g class="tick" opacity="1" transform="translate(0,141.42857142857144)" fill="none"><line stroke="#E0E0E0" x2="0" fill="none"/><text fill="#000" x="-20" dy="0.32em">北京中医药大学 徐安龙</text></g><g class="tick" opacity="1" transform="translate(0,115.71428571428572)" fill="none"><line stroke="#E0E0E0" x2="0" fill="none"/><text fill="#000" x="-20" dy="0.32em">河北工业大学 韩旭</text></g><g class="tick" opacity="1" transform="translate(0,90)" fill="none"><line stroke="#E0E0E0" x2="0" fill="none"/><text fill="#000" x="-20" dy="0.32em">中国地质大学（北京） 孙友宏</text></g><g class="tick" opacity="1" transform="translate(0,64.28571428571429)" fill="none"><line stroke="#E0E0E0" x2="0" fill="none"/><text fill="#000" x="-20" dy="0.32em">中国矿业大学（北京） 葛世荣</text></g><g class="tick" opacity="1" transform="translate(0,38.57142857142857)" fill="none"><line stroke="#E0E0E0" x2="0" fill="none"/><text fill="#000" x="-20" dy="0.32em">北京工业大学 柳贡慧</text></g><g class="tick" opacity="1" transform="translate(0,12.857142857142858)" fill="none"><line stroke="#E0E0E0" x2="0" fill="none"/><text fill="#000" x="-20" dy="0.32em">中国传媒大学 廖祥忠</text></g></g><g class="person" transform="translate(0,707.1428571428572)"><path d="M55,0L863,0" stroke="#000000" fill="none"/><circle class="birth role" cx="55" r="6" stroke="#FFFFFF" fill="#FC48FD"/><circle class="bachelor role" cx="370" r="6" stroke="#FFFFFF" fill="#BDBA14"/><circle class="master role" cx="548" r="6" stroke="#FFFFFF" fill="#406EEE"/><circle class="doctor role" cx="602" r="6" stroke="#FFFFFF" fill="#2BCDB0"/><circle class="academician role" cx="-26768" r="8" stroke="#FFFFFF" fill="#5F3D3D"/><circle class="vicefaculty role" cx="-26768" r="6" stroke="#FFFFFF" fill="#DB73F0"/><circle class="faculty role" cx="-26768" r="6" stroke="#FFFFFF" fill="#772BCD"/><circle class="vicedepart role" cx="548" r="6" stroke="#FFFFFF" fill="#2D1791"/><circle class="depart role" cx="561" r="6" stroke="#FFFFFF" fill="#DFB542"/><circle class="vicehead role" cx="630" r="6" stroke="#FFFFFF" fill="#2B64CD"/><circle class="head role" cx="863" r="6" stroke="#FFFFFF" fill="#F02FC6"/><circle class="add1 role" cx="685" r="8" stroke="#FFFFFF" fill="#CD2B2B"/><circle class="add2 role" cx="739" r="8" stroke="#FFFFFF" fill="#010E0B"/></g><g class="person" transform="translate(0,681.4285714285714)"><path d="M123,0L849,0" stroke="#000000" fill="none"/><circle class="birth role" cx="123" r="6" stroke="#FFFFFF" fill="#FC48FD"/><circle class="bachelor role" cx="452" r="6" stroke="#FFFFFF" fill="#BDBA14"/><circle class="master role" cx="-26768" r="6" stroke="#FFFFFF" fill="#406EEE"/><circle class="doctor role" cx="534" r="6" stroke="#FFFFFF" fill="#2BCDB0"/><circle class="academician role" cx="794" r="8" stroke="#FFFFFF" fill="#5F3D3D"/><circle class="vicefaculty role" cx="-26768" r="6" stroke="#FFFFFF" fill="#DB73F0"/><circle class="faculty role" cx="644" r="6" stroke="#FFFFFF" fill="#772BCD"/><circle class="vicedepart role" cx="726" r="6" stroke="#FFFFFF" fill="#2D1791"/><circle class="depart role" cx="-26768" r="6" stroke="#FFFFFF" fill="#DFB542"/><circle class="vicehead role" cx="739" r="6" stroke="#FFFFFF" fill="#2B64CD"/><circle class="head role" cx="822" r="6" stroke="#FFFFFF" fill="#F02FC6"/><circle class="add1 role" cx="849" r="8" stroke="#FFFFFF" fill="#CD2B2B"/><circle class="add2 role" cx="-26768" r="8" stroke="#FFFFFF" fill="#010E0B"/></g><g class="person" transform="translate(0,655.7142857142858)"><path d="M27,0L822,0" stroke="#000000" fill="none"/><circle class="birth role" cx="27" r="6" stroke="#FFFFFF" fill="#FC48FD"/><circle class="bachelor role" cx="370" r="6" stroke="#FFFFFF" fill="#BDBA14"/><circle class="master role" cx="397" r="6" stroke="#FFFFFF" fill="#406EEE"/><circle class="doctor role" cx="479" r="6" stroke="#FFFFFF" fill="#2BCDB0"/><circle class="academician role" cx="-26768" r="8" stroke="#FFFFFF" fill="#5F3D3D"/><circle class="vicefaculty role" cx="-26768" r="6" stroke="#FFFFFF" fill="#DB73F0"/><circle class="faculty role" cx="-26768" r="6" stroke="#FFFFFF" fill="#772BCD"/><circle class="vicedepart role" cx="-26768" r="6" stroke="#FFFFFF" fill="#2D1791"/><circle class="depart role" cx="644" r="6" stroke="#FFFFFF" fill="#DFB542"/><circle class="vicehead role" cx="753" r="6" stroke="#FFFFFF" fill="#2B64CD"/><circle class="head role" cx="822" r="6" stroke="#FFFFFF" fill="#F02FC6"/><circle class="add1 role" cx="794" r="8" stroke="#FFFFFF" fill="#CD2B2B"/><circle class="add2 role" cx="-26768" r="8" stroke="#FFFFFF" fill="#010E0B"/></g><g class="person" transform="translate(0,630)"><path d="M164,0L780,0" stroke="#000000" fill="none"/><circle class="birth role" cx="164" r="6" stroke="#FFFFFF" fill="#FC48FD"/><circle class="bachelor role" cx="370" r="6" stroke="#FFFFFF" fill="#BDBA14"/><circle class="master role" cx="411" r="6" stroke="#FFFFFF" fill="#406EEE"/><circle class="doctor role" cx="452" r="6" stroke="#FFFFFF" fill="#2BCDB0"/><circle class="academician role" cx="-26768" r="8" stroke="#FFFFFF" fill="#5F3D3D"/><circle class="vicefaculty role" cx="493" r="6" stroke="#FFFFFF" fill="#DB73F0"/><circle class="faculty role" cx="-26768" r="6" stroke="#FFFFFF" fill="#772BCD"/><circle class="vicedepart role" cx="548" r="6" stroke="#FFFFFF" fill="#2D1791"/><circle class="depart role" cx="726" r="6" stroke="#FFFFFF" fill="#DFB542"/><circle class="vicehead role" cx="602" r="6" stroke="#FFFFFF" fill="#2B64CD"/><circle class="head role" cx="780" r="6" stroke="#FFFFFF" fill="#F02FC6"/><circle class="add1 role" cx="-26768" r="8" stroke="#FFFFFF" fill="#CD2B2B"/><circle class="add2 role" cx="-26768" r="8" stroke="#FFFFFF" fill="#010E0B"/></g><g class="person" transform="translate(0,604.2857142857143)"><path d="M55,0L849,0" stroke="#000000" fill="none"/><circle class="birth role" cx="55" r="6" stroke="#FFFFFF" fill="#FC48FD"/><circle class="bachelor role" cx="370" r="6" stroke="#FFFFFF" fill="#BDBA14"/><circle class="master role" cx="438" r="6" stroke="#FFFFFF" fill="#406EEE"/><circle class="doctor role" cx="507" r="6" stroke="#FFFFFF" fill="#2BCDB0"/><circle class="academician role" cx="767" r="8" stroke="#FFFFFF" fill="#5F3D3D"/><circle class="vicefaculty role" cx="-26768" r="6" stroke="#FFFFFF" fill="#DB73F0"/><circle class="faculty role" cx="-26768" r="6" stroke="#FFFFFF" fill="#772BCD"/><circle class="vicedepart role" cx="-26768" r="6" stroke="#FFFFFF" fill="#2D1791"/><circle class="depart role" cx="-26768" r="6" stroke="#FFFFFF" fill="#DFB542"/><circle class="vicehead role" cx="671" r="6" stroke="#FFFFFF" fill="#2B64CD"/><circle class="head role" cx="822" r="6" stroke="#FFFFFF" fill="#F02FC6"/><circle class="add1 role" cx="644" r="8" stroke="#FFFFFF" fill="#CD2B2B"/><circle class="add2 role" cx="849" r="8" stroke="#FFFFFF" fill="#010E0B"/></g><g class="person" transform="translate(0,578.5714285714287)"><path d="M123,0L849,0" stroke="#000000" fill="none"/><circle class="birth role" cx="123" r="6" stroke="#FFFFFF" fill="#FC48FD"/><circle class="bachelor role" cx="424" r="6" stroke="#FFFFFF" fill="#BDBA14"/><circle class="master role" cx="-26768" r="6" stroke="#FFFFFF" fill="#406EEE"/><circle class="doctor role" cx="479" r="6" stroke="#FFFFFF" fill="#2BCDB0"/><circle class="academician role" cx="685" r="8" stroke="#FFFFFF" fill="#5F3D3D"/><circle class="vicefaculty role" cx="479" r="6" stroke="#FFFFFF" fill="#DB73F0"/><circle class="faculty role" cx="507" r="6" stroke="#FFFFFF" fill="#772BCD"/><circle class="vicedepart role" cx="548" r="6" stroke="#FFFFFF" fill="#2D1791"/><circle class="depart role" cx="616" r="6" stroke="#FFFFFF" fill="#DFB542"/><circle class="vicehead role" cx="671" r="6" stroke="#FFFFFF" fill="#2B64CD"/><circle class="head role" cx="849" r="6" stroke="#FFFFFF" fill="#F02FC6"/><circle class="add1 role" cx="753" r="8" stroke="#FFFFFF" fill="#CD2B2B"/><circle class="add2 role" cx="822" r="8" stroke="#FFFFFF" fill="#010E0B"/></g><g class="person" transform="translate(0,552.8571428571429)"><path d="M82,0L876,0" stroke="#000000" fill="none"/><circle class="birth role" cx="82" r="6" stroke="#FFFFFF" fill="#FC48FD"/><circle class="bachelor role" cx="370" r="6" stroke="#FFFFFF" fill="#BDBA14"/><circle class="master role" cx="397" r="6" stroke="#FFFFFF" fill="#406EEE"/><circle class="doctor role" cx="466" r="6" stroke="#FFFFFF" fill="#2BCDB0"/><circle class="academician role" cx="739" r="8" stroke="#FFFFFF" fill="#5F3D3D"/><circle class="vicefaculty role" cx="548" r="6" stroke="#FFFFFF" fill="#DB73F0"/><circle class="faculty role" cx="561" r="6" stroke="#FFFFFF" fill="#772BCD"/><circle class="vicedepart role" cx="616" r="6" stroke="#FFFFFF" fill="#2D1791"/><circle class="depart role" cx="671" r="6" stroke="#FFFFFF" fill="#DFB542"/><circle class="vicehead role" cx="-26768" r="6" stroke="#FFFFFF" fill="#2B64CD"/><circle class="head role" cx="876" r="6" stroke="#FFFFFF" fill="#F02FC6"/><circle class="add1 role" cx="822" r="8" stroke="#FFFFFF" fill="#CD2B2B"/><circle class="add2 role" cx="-26768" r="8" stroke="#FFFFFF" fill="#010E0B"/></g><g class="person" transform="translate(0,527.1428571428572)"><path d="M96,0L849,0" stroke="#000000" fill="none"/><circle class="birth role" cx="96" r="6" stroke="#FFFFFF" fill="#FC48FD"/><circle class="bachelor role" cx="370" r="6" stroke="#FFFFFF" fill="#BDBA14"/><circle class="master role" cx="-26768" r="6" stroke="#FFFFFF" fill="#406EEE"/><circle class="doctor role" cx="438" r="6" stroke="#FFFFFF" fill="#2BCDB0"/><circle class="academician role" cx="-26768" r="8" stroke="#FFFFFF" fill="#5F3D3D"/><circle class="vicefaculty role" cx="438" r="6" stroke="#FFFFFF" fill="#DB73F0"/><circle class="faculty role" cx="520" r="6" stroke="#FFFFFF" fill="#772BCD"/><circle class="vicedepart role" cx="534" r="6" stroke="#FFFFFF" fill="#2D1791"/><circle class="depart role" cx="602" r="6" stroke="#FFFFFF" fill="#DFB542"/><circle class="vicehead role" cx="644" r="6" stroke="#FFFFFF" fill="#2B64CD"/><circle class="head role" cx="849" r="6" stroke="#FFFFFF" fill="#F02FC6"/><circle class="add1 role" cx="767" r="8" stroke="#FFFFFF" fill="#CD2B2B"/><circle class="add2 role" cx="-26768" r="8" stroke="#FFFFFF" fill="#010E0B"/></g><g class="person" transform="translate(0,501.42857142857144)"><path d="M137,0L849,0" stroke="#000000" fill="none"/><circle class="birth role" cx="137" r="6" stroke="#FFFFFF" fill="#FC48FD"/><circle class="bachelor role" cx="438" r="6" stroke="#FFFFFF" fill="#BDBA14"/><circle class="master role" cx="479" r="6" stroke="#FFFFFF" fill="#406EEE"/><circle class="doctor role" cx="630" r="6" stroke="#FFFFFF" fill="#2BCDB0"/><circle class="academician role" cx="794" r="8" stroke="#FFFFFF" fill="#5F3D3D"/><circle class="vicefaculty role" cx="-26768" r="6" stroke="#FFFFFF" fill="#DB73F0"/><circle class="faculty role" cx="-26768" r="6" stroke="#FFFFFF" fill="#772BCD"/><circle class="vicedepart role" cx="-26768" r="6" stroke="#FFFFFF" fill="#2D1791"/><circle class="depart role" cx="-26768" r="6" stroke="#FFFFFF" fill="#DFB542"/><circle class="vicehead role" cx="739" r="6" stroke="#FFFFFF" fill="#2B64CD"/><circle class="head role" cx="849" r="6" stroke="#FFFFFF" fill="#F02FC6"/><circle class="add1 role" cx="589" r="8" stroke="#FFFFFF" fill="#CD2B2B"/><circle class="add2 role" cx="-26768" r="8" stroke="#FFFFFF" fill="#010E0B"/></g><g class="person" transform="translate(0,475.7142857142857)"><path d="M110,0L863,0" stroke="#000000" fill="none"/><circle class="birth role" cx="110" r="6" stroke="#FFFFFF" fill="#FC48FD"/><circle class="bachelor role" cx="424" r="6" stroke="#FFFFFF" fill="#BDBA14"/><circle class="master role" cx="466" r="6" stroke="#FFFFFF" fill="#406EEE"/><circle class="doctor role" cx="575" r="6" stroke="#FFFFFF" fill="#2BCDB0"/><circle class="academician role" cx="-26768" r="8" stroke="#FFFFFF" fill="#5F3D3D"/><circle class="vicefaculty role" cx="466" r="6" stroke="#FFFFFF" fill="#DB73F0"/><circle class="faculty role" cx="589" r="6" stroke="#FFFFFF" fill="#772BCD"/><circle class="vicedepart role" cx="-26768" r="6" stroke="#FFFFFF" fill="#2D1791"/><circle class="depart role" cx="602" r="6" stroke="#FFFFFF" fill="#DFB542"/><circle class="vicehead role" cx="657" r="6" stroke="#FFFFFF" fill="#2B64CD"/><circle class="head role" cx="863" r="6" stroke="#FFFFFF" fill="#F02FC6"/><circle class="add1 role" cx="726" r="8" stroke="#FFFFFF" fill="#CD2B2B"/><circle class="add2 role" cx="808" r="8" stroke="#FFFFFF" fill="#010E0B"/></g><g class="person" transform="translate(0,450)"><path d="M123,0L780,0" stroke="#000000" fill="none"/><circle class="birth role" cx="123" r="6" stroke="#FFFFFF" fill="#FC48FD"/><circle class="bachelor role" cx="424" r="6" stroke="#FFFFFF" fill="#BDBA14"/><circle class="master role" cx="-26768" r="6" stroke="#FFFFFF" fill="#406EEE"/><circle class="doctor role" cx="520" r="6" stroke="#FFFFFF" fill="#2BCDB0"/><circle class="academician role" cx="-26768" r="8" stroke="#FFFFFF" fill="#5F3D3D"/><circle class="vicefaculty role" cx="548" r="6" stroke="#FFFFFF" fill="#DB73F0"/><circle class="faculty role" cx="561" r="6" stroke="#FFFFFF" fill="#772BCD"/><circle class="vicedepart role" cx="-26768" r="6" stroke="#FFFFFF" fill="#2D1791"/><circle class="depart role" cx="657" r="6" stroke="#FFFFFF" fill="#DFB542"/><circle class="vicehead role" cx="712" r="6" stroke="#FFFFFF" fill="#2B64CD"/><circle class="head role" cx="780" r="6" stroke="#FFFFFF" fill="#F02FC6"/><circle class="add1 role" cx="-26768" r="8" stroke="#FFFFFF" fill="#CD2B2B"/><circle class="add2 role" cx="-26768" r="8" stroke="#FFFFFF" fill="#010E0B"/></g><g class="person" transform="translate(0,424.2857142857143)"><path d="M96,0L794,0" stroke="#000000" fill="none"/><circle class="birth role" cx="96" r="6" stroke="#FFFFFF" fill="#FC48FD"/><circle class="bachelor role" cx="370" r="6" stroke="#FFFFFF" fill="#BDBA14"/><circle class="master role" cx="411" r="6" stroke="#FFFFFF" fill="#406EEE"/><circle class="doctor role" cx="520" r="6" stroke="#FFFFFF" fill="#2BCDB0"/><circle class="academician role" cx="-26768" r="8" stroke="#FFFFFF" fill="#5F3D3D"/><circle class="vicefaculty role" cx="466" r="6" stroke="#FFFFFF" fill="#DB73F0"/><circle class="faculty role" cx="-26768" r="6" stroke="#FFFFFF" fill="#772BCD"/><circle class="vicedepart role" cx="548" r="6" stroke="#FFFFFF" fill="#2D1791"/><circle class="depart role" cx="-26768" r="6" stroke="#FFFFFF" fill="#DFB542"/><circle class="vicehead role" cx="575" r="6" stroke="#FFFFFF" fill="#2B64CD"/><circle class="head role" cx="794" r="6" stroke="#FFFFFF" fill="#F02FC6"/><circle class="add1 role" cx="657" r="8" stroke="#FFFFFF" fill="#CD2B2B"/><circle class="add2 role" cx="-26768" r="8" stroke="#FFFFFF" fill="#010E0B"/></g><g class="person" transform="translate(0,398.57142857142856)"><path d="M123,0L876,0" stroke="#000000" fill="none"/><circle class="birth role" cx="123" r="6" stroke="#FFFFFF" fill="#FC48FD"/><circle class="bachelor role" cx="411" r="6" stroke="#FFFFFF" fill="#BDBA14"/><circle class="master role" cx="438" r="6" stroke="#FFFFFF" fill="#406EEE"/><circle class="doctor role" cx="548" r="6" stroke="#FFFFFF" fill="#2BCDB0"/><circle class="academician role" cx="-26768" r="8" stroke="#FFFFFF" fill="#5F3D3D"/><circle class="vicefaculty role" cx="616" r="6" stroke="#FFFFFF" fill="#DB73F0"/><circle class="faculty role" cx="-26768" r="6" stroke="#FFFFFF" fill="#772BCD"/><circle class="vicedepart role" cx="-26768" r="6" stroke="#FFFFFF" fill="#2D1791"/><circle class="depart role" cx="-26768" r="6" stroke="#FFFFFF" fill="#DFB542"/><circle class="vicehead role" cx="671" r="6" stroke="#FFFFFF" fill="#2B64CD"/><circle class="head role" cx="876" r="6" stroke="#FFFFFF" fill="#F02FC6"/><circle class="add1 role" cx="726" r="8" stroke="#FFFFFF" fill="#CD2B2B"/><circle class="add2 role" cx="835" r="8" stroke="#FFFFFF" fill="#010E0B"/></g><g class="person" transform="translate(0,372.85714285714283)"><path d="M96,0L876,0" stroke="#000000" fill="none"/><circle class="birth role" cx="96" r="6" stroke="#FFFFFF" fill="#FC48FD"/><circle class="bachelor role" cx="383" r="6" stroke="#FFFFFF" fill="#BDBA14"/><circle class="master role" cx="493" r="6" stroke="#FFFFFF" fill="#406EEE"/><circle class="doctor role" cx="534" r="6" stroke="#FFFFFF" fill="#2BCDB0"/><circle class="academician role" cx="-26768" r="8" stroke="#FFFFFF" fill="#5F3D3D"/><circle class="vicefaculty role" cx="-26768" r="6" stroke="#FFFFFF" fill="#DB73F0"/><circle class="faculty role" cx="-26768" r="6" stroke="#FFFFFF" fill="#772BCD"/><circle class="vicedepart role" cx="-26768" r="6" stroke="#FFFFFF" fill="#2D1791"/><circle class="depart role" cx="-26768" r="6" stroke="#FFFFFF" fill="#DFB542"/><circle class="vicehead role" cx="767" r="6" stroke="#FFFFFF" fill="#2B64CD"/><circle class="head role" cx="876" r="6" stroke="#FFFFFF" fill="#F02FC6"/><circle class="add1 role" cx="808" r="8" stroke="#FFFFFF" fill="#CD2B2B"/><circle class="add2 role" cx="863" r="8" stroke="#FFFFFF" fill="#010E0B"/></g><g class="person" transform="translate(0,347.1428571428571)"><path d="M164,0L849,0" stroke="#000000" fill="none"/><circle class="birth role" cx="164" r="6" stroke="#FFFFFF" fill="#FC48FD"/><circle class="bachelor role" cx="424" r="6" stroke="#FFFFFF" fill="#BDBA14"/><circle class="master role" cx="602" r="6" stroke="#FFFFFF" fill="#406EEE"/><circle class="doctor role" cx="657" r="6" stroke="#FFFFFF" fill="#2BCDB0"/><circle class="academician role" cx="-26768" r="8" stroke="#FFFFFF" fill="#5F3D3D"/><circle class="vicefaculty role" cx="-26768" r="6" stroke="#FFFFFF" fill="#DB73F0"/><circle class="faculty role" cx="-26768" r="6" stroke="#FFFFFF" fill="#772BCD"/><circle class="vicedepart role" cx="-26768" r="6" stroke="#FFFFFF" fill="#2D1791"/><circle class="depart role" cx="-26768" r="6" stroke="#FFFFFF" fill="#DFB542"/><circle class="vicehead role" cx="712" r="6" stroke="#FFFFFF" fill="#2B64CD"/><circle class="head role" cx="849" r="6" stroke="#FFFFFF" fill="#F02FC6"/><circle class="add1 role" cx="-26768" r="8" stroke="#FFFFFF" fill="#CD2B2B"/><circle class="add2 role" cx="-26768" r="8" stroke="#FFFFFF" fill="#010E0B"/></g><g class="person" transform="translate(0,321.4285714285714)"><path d="M137,0L876,0" stroke="#000000" fill="none"/><circle class="birth role" cx="137" r="6" stroke="#FFFFFF" fill="#FC48FD"/><circle class="bachelor role" cx="452" r="6" stroke="#FFFFFF" fill="#BDBA14"/><circle class="master role" cx="-26768" r="6" stroke="#FFFFFF" fill="#406EEE"/><circle class="doctor role" cx="520" r="6" stroke="#FFFFFF" fill="#2BCDB0"/><circle class="academician role" cx="-26768" r="8" stroke="#FFFFFF" fill="#5F3D3D"/><circle class="vicefaculty role" cx="-26768" r="6" stroke="#FFFFFF" fill="#DB73F0"/><circle class="faculty role" cx="-26768" r="6" stroke="#FFFFFF" fill="#772BCD"/><circle class="vicedepart role" cx="-26768" r="6" stroke="#FFFFFF" fill="#2D1791"/><circle class="depart role" cx="644" r="6" stroke="#FFFFFF" fill="#DFB542"/><circle class="vicehead role" cx="698" r="6" stroke="#FFFFFF" fill="#2B64CD"/><circle class="head role" cx="876" r="6" stroke="#FFFFFF" fill="#F02FC6"/><circle class="add1 role" cx="-26768" r="8" stroke="#FFFFFF" fill="#CD2B2B"/><circle class="add2 role" cx="-26768" r="8" stroke="#FFFFFF" fill="#010E0B"/></g><g class="person" transform="translate(0,295.7142857142857)"><path d="M82,0L685,0" stroke="#000000" fill="none"/><circle class="birth role" cx="82" r="6" stroke="#FFFFFF" fill="#FC48FD"/><circle class="bachelor role" cx="370" r="6" stroke="#FFFFFF" fill="#BDBA14"/><circle class="master role" cx="411" r="6" stroke="#FFFFFF" fill="#406EEE"/><circle class="doctor role" cx="493" r="6" stroke="#FFFFFF" fill="#2BCDB0"/><circle class="academician role" cx="-26768" r="8" stroke="#FFFFFF" fill="#5F3D3D"/><circle class="vicefaculty role" cx="507" r="6" stroke="#FFFFFF" fill="#DB73F0"/><circle class="faculty role" cx="-26768" r="6" stroke="#FFFFFF" fill="#772BCD"/><circle class="vicedepart role" cx="-26768" r="6" stroke="#FFFFFF" fill="#2D1791"/><circle class="depart role" cx="534" r="6" stroke="#FFFFFF" fill="#DFB542"/><circle class="vicehead role" cx="602" r="6" stroke="#FFFFFF" fill="#2B64CD"/><circle class="head role" cx="685" r="6" stroke="#FFFFFF" fill="#F02FC6"/><circle class="add1 role" cx="-26768" r="8" stroke="#FFFFFF" fill="#CD2B2B"/><circle class="add2 role" cx="-26768" r="8" stroke="#FFFFFF" fill="#010E0B"/></g><g class="person" transform="translate(0,270)"><path d="M164,0L835,0" stroke="#000000" fill="none"/><circle class="birth role" cx="164" r="6" stroke="#FFFFFF" fill="#FC48FD"/><circle class="bachelor role" cx="466" r="6" stroke="#FFFFFF" fill="#BDBA14"/><circle class="master role" cx="507" r="6" stroke="#FFFFFF" fill="#406EEE"/><circle class="doctor role" cx="548" r="6" stroke="#FFFFFF" fill="#2BCDB0"/><circle class="academician role" cx="-26768" r="8" stroke="#FFFFFF" fill="#5F3D3D"/><circle class="vicefaculty role" cx="548" r="6" stroke="#FFFFFF" fill="#DB73F0"/><circle class="faculty role" cx="-26768" r="6" stroke="#FFFFFF" fill="#772BCD"/><circle class="vicedepart role" cx="616" r="6" stroke="#FFFFFF" fill="#2D1791"/><circle class="depart role" cx="-26768" r="6" stroke="#FFFFFF" fill="#DFB542"/><circle class="vicehead role" cx="698" r="6" stroke="#FFFFFF" fill="#2B64CD"/><circle class="head role" cx="835" r="6" stroke="#FFFFFF" fill="#F02FC6"/><circle class="add1 role" cx="-26768" r="8" stroke="#FFFFFF" fill="#CD2B2B"/><circle class="add2 role" cx="-26768" r="8" stroke="#FFFFFF" fill="#010E0B"/></g><g class="person" transform="translate(0,244.2857142857143)"><path d="M110,0L863,0" stroke="#000000" fill="none"/><circle class="birth role" cx="110" r="6" stroke="#FFFFFF" fill="#FC48FD"/><circle class="bachelor role" cx="424" r="6" stroke="#FFFFFF" fill="#BDBA14"/><circle class="master role" cx="507" r="6" stroke="#FFFFFF" fill="#406EEE"/><circle class="doctor role" cx="575" r="6" stroke="#FFFFFF" fill="#2BCDB0"/><circle class="academician role" cx="-26768" r="8" stroke="#FFFFFF" fill="#5F3D3D"/><circle class="vicefaculty role" cx="424" r="6" stroke="#FFFFFF" fill="#DB73F0"/><circle class="faculty role" cx="575" r="6" stroke="#FFFFFF" fill="#772BCD"/><circle class="vicedepart role" cx="602" r="6" stroke="#FFFFFF" fill="#2D1791"/><circle class="depart role" cx="698" r="6" stroke="#FFFFFF" fill="#DFB542"/><circle class="vicehead role" cx="712" r="6" stroke="#FFFFFF" fill="#2B64CD"/><circle class="head role" cx="863" r="6" stroke="#FFFFFF" fill="#F02FC6"/><circle class="add1 role" cx="-26768" r="8" stroke="#FFFFFF" fill="#CD2B2B"/><circle class="add2 role" cx="-26768" r="8" stroke="#FFFFFF" fill="#010E0B"/></g><g class="person" transform="translate(0,218.57142857142858)"><path d="M68,0L849,0" stroke="#000000" fill="none"/><circle class="birth role" cx="68" r="6" stroke="#FFFFFF" fill="#FC48FD"/><circle class="bachelor role" cx="397" r="6" stroke="#FFFFFF" fill="#BDBA14"/><circle class="master role" cx="466" r="6" stroke="#FFFFFF" fill="#406EEE"/><circle class="doctor role" cx="602" r="6" stroke="#FFFFFF" fill="#2BCDB0"/><circle class="academician role" cx="849" r="8" stroke="#FFFFFF" fill="#5F3D3D"/><circle class="vicefaculty role" cx="-26768" r="6" stroke="#FFFFFF" fill="#DB73F0"/><circle class="faculty role" cx="-26768" r="6" stroke="#FFFFFF" fill="#772BCD"/><circle class="vicedepart role" cx="-26768" r="6" stroke="#FFFFFF" fill="#2D1791"/><circle class="depart role" cx="-26768" r="6" stroke="#FFFFFF" fill="#DFB542"/><circle class="vicehead role" cx="-26768" r="6" stroke="#FFFFFF" fill="#2B64CD"/><circle class="head role" cx="822" r="6" stroke="#FFFFFF" fill="#F02FC6"/><circle class="add1 role" cx="630" r="8" stroke="#FFFFFF" fill="#CD2B2B"/><circle class="add2 role" cx="-26768" r="8" stroke="#FFFFFF" fill="#010E0B"/></g><g class="person" transform="translate(0,192.85714285714286)"><path d="M0,0L863,0" stroke="#000000" fill="none"/><circle class="birth role" cx="0" r="6" stroke="#FFFFFF" fill="#FC48FD"/><circle class="bachelor role" cx="466" r="6" stroke="#FFFFFF" fill="#BDBA14"/><circle class="master role" cx="520" r="6" stroke="#FFFFFF" fill="#406EEE"/><circle class="doctor role" cx="589" r="6" stroke="#FFFFFF" fill="#2BCDB0"/><circle class="academician role" cx="-26768" r="8" stroke="#FFFFFF" fill="#5F3D3D"/><circle class="vicefaculty role" cx="630" r="6" stroke="#FFFFFF" fill="#DB73F0"/><circle class="faculty role" cx="671" r="6" stroke="#FFFFFF" fill="#772BCD"/><circle class="vicedepart role" cx="-26768" r="6" stroke="#FFFFFF" fill="#2D1791"/><circle class="depart role" cx="-26768" r="6" stroke="#FFFFFF" fill="#DFB542"/><circle class="vicehead role" cx="780" r="6" stroke="#FFFFFF" fill="#2B64CD"/><circle class="head role" cx="863" r="6" stroke="#FFFFFF" fill="#F02FC6"/><circle class="add1 role" cx="808" r="8" stroke="#FFFFFF" fill="#CD2B2B"/><circle class="add2 role" cx="849" r="8" stroke="#FFFFFF" fill="#010E0B"/></g><g class="person" transform="translate(0,167.14285714285714)"><path d="M205,0L876,0" stroke="#000000" fill="none"/><circle class="birth role" cx="205" r="6" stroke="#FFFFFF" fill="#FC48FD"/><circle class="bachelor role" cx="520" r="6" stroke="#FFFFFF" fill="#BDBA14"/><circle class="master role" cx="561" r="6" stroke="#FFFFFF" fill="#406EEE"/><circle class="doctor role" cx="657" r="6" stroke="#FFFFFF" fill="#2BCDB0"/><circle class="academician role" cx="-26768" r="8" stroke="#FFFFFF" fill="#5F3D3D"/><circle class="vicefaculty role" cx="616" r="6" stroke="#FFFFFF" fill="#DB73F0"/><circle class="faculty role" cx="-26768" r="6" stroke="#FFFFFF" fill="#772BCD"/><circle class="vicedepart role" cx="-26768" r="6" stroke="#FFFFFF" fill="#2D1791"/><circle class="depart role" cx="712" r="6" stroke="#FFFFFF" fill="#DFB542"/><circle class="vicehead role" cx="780" r="6" stroke="#FFFFFF" fill="#2B64CD"/><circle class="head role" cx="876" r="6" stroke="#FFFFFF" fill="#F02FC6"/><circle class="add1 role" cx="835" r="8" stroke="#FFFFFF" fill="#CD2B2B"/><circle class="add2 role" cx="863" r="8" stroke="#FFFFFF" fill="#010E0B"/></g><g class="person" transform="translate(0,141.42857142857144)"><path d="M110,0L794,0" stroke="#000000" fill="none"/><circle class="birth role" cx="110" r="6" stroke="#FFFFFF" fill="#FC48FD"/><circle class="bachelor role" cx="411" r="6" stroke="#FFFFFF" fill="#BDBA14"/><circle class="master role" cx="-26768" r="6" stroke="#FFFFFF" fill="#406EEE"/><circle class="doctor role" cx="507" r="6" stroke="#FFFFFF" fill="#2BCDB0"/><circle class="academician role" cx="-26768" r="8" stroke="#FFFFFF" fill="#5F3D3D"/><circle class="vicefaculty role" cx="-26768" r="6" stroke="#FFFFFF" fill="#DB73F0"/><circle class="faculty role" cx="561" r="6" stroke="#FFFFFF" fill="#772BCD"/><circle class="vicedepart role" cx="-26768" r="6" stroke="#FFFFFF" fill="#2D1791"/><circle class="depart role" cx="644" r="6" stroke="#FFFFFF" fill="#DFB542"/><circle class="vicehead role" cx="726" r="6" stroke="#FFFFFF" fill="#2B64CD"/><circle class="head role" cx="794" r="6" stroke="#FFFFFF" fill="#F02FC6"/><circle class="add1 role" cx="-26768" r="8" stroke="#FFFFFF" fill="#CD2B2B"/><circle class="add2 role" cx="-26768" r="8" stroke="#FFFFFF" fill="#010E0B"/></g><g class="person" transform="translate(0,115.71428571428572)"><path d="M192,0L849,0" stroke="#000000" fill="none"/><circle class="birth role" cx="192" r="6" stroke="#FFFFFF" fill="#FC48FD"/><circle class="bachelor role" cx="479" r="6" stroke="#FFFFFF" fill="#BDBA14"/><circle class="master role" cx="575" r="6" stroke="#FFFFFF" fill="#406EEE"/><circle class="doctor role" cx="616" r="6" stroke="#FFFFFF" fill="#2BCDB0"/><circle class="academician role" cx="-26768" r="8" stroke="#FFFFFF" fill="#5F3D3D"/><circle class="vicefaculty role" cx="-26768" r="6" stroke="#FFFFFF" fill="#DB73F0"/><circle class="faculty role" cx="685" r="6" stroke="#FFFFFF" fill="#772BCD"/><circle class="vicedepart role" cx="-26768" r="6" stroke="#FFFFFF" fill="#2D1791"/><circle class="depart role" cx="726" r="6" stroke="#FFFFFF" fill="#DFB542"/><circle class="vicehead role" cx="835" r="6" stroke="#FFFFFF" fill="#2B64CD"/><circle class="head role" cx="849" r="6" stroke="#FFFFFF" fill="#F02FC6"/><circle class="add1 role" cx="-26768" r="8" stroke="#FFFFFF" fill="#CD2B2B"/><circle class="add2 role" cx="-26768" r="8" stroke="#FFFFFF" fill="#010E0B"/></g><g class="person" transform="translate(0,90)"><path d="M137,0L876,0" stroke="#000000" fill="none"/><circle class="birth role" cx="137" r="6" stroke="#FFFFFF" fill="#FC48FD"/><circle class="bachelor role" cx="438" r="6" stroke="#FFFFFF" fill="#BDBA14"/><circle class="master role" cx="479" r="6" stroke="#FFFFFF" fill="#406EEE"/><circle class="doctor role" cx="589" r="6" stroke="#FFFFFF" fill="#2BCDB0"/><circle class="academician role" cx="-26768" r="8" stroke="#FFFFFF" fill="#5F3D3D"/><circle class="vicefaculty role" cx="548" r="6" stroke="#FFFFFF" fill="#DB73F0"/><circle class="faculty role" cx="616" r="6" stroke="#FFFFFF" fill="#772BCD"/><circle class="vicedepart role" cx="630" r="6" stroke="#FFFFFF" fill="#2D1791"/><circle class="depart role" cx="726" r="6" stroke="#FFFFFF" fill="#DFB542"/><circle class="vicehead role" cx="822" r="6" stroke="#FFFFFF" fill="#2B64CD"/><circle class="head role" cx="876" r="6" stroke="#FFFFFF" fill="#F02FC6"/><circle class="add1 role" cx="-26768" r="8" stroke="#FFFFFF" fill="#CD2B2B"/><circle class="add2 role" cx="-26768" r="8" stroke="#FFFFFF" fill="#010E0B"/></g><g class="person" transform="translate(0,64.28571428571429)"><path d="M110,0L863,0" stroke="#000000" fill="none"/><circle class="birth role" cx="110" r="6" stroke="#FFFFFF" fill="#FC48FD"/><circle class="bachelor role" cx="383" r="6" stroke="#FFFFFF" fill="#BDBA14"/><circle class="master role" cx="-26768" r="6" stroke="#FFFFFF" fill="#406EEE"/><circle class="doctor role" cx="466" r="6" stroke="#FFFFFF" fill="#2BCDB0"/><circle class="academician role" cx="-26768" r="8" stroke="#FFFFFF" fill="#5F3D3D"/><circle class="vicefaculty role" cx="-26768" r="6" stroke="#FFFFFF" fill="#DB73F0"/><circle class="faculty role" cx="-26768" r="6" stroke="#FFFFFF" fill="#772BCD"/><circle class="vicedepart role" cx="-26768" r="6" stroke="#FFFFFF" fill="#2D1791"/><circle class="depart role" cx="-26768" r="6" stroke="#FFFFFF" fill="#DFB542"/><circle class="vicehead role" cx="575" r="6" stroke="#FFFFFF" fill="#2B64CD"/><circle class="head role" cx="863" r="6" stroke="#FFFFFF" fill="#F02FC6"/><circle class="add1 role" cx="712" r="8" stroke="#FFFFFF" fill="#CD2B2B"/><circle class="add2 role" cx="849" r="8" stroke="#FFFFFF" fill="#010E0B"/></g><g class="person" transform="translate(0,38.57142857142857)"><path d="M110,0L822,0" stroke="#000000" fill="none"/><circle class="birth role" cx="110" r="6" stroke="#FFFFFF" fill="#FC48FD"/><circle class="bachelor role" cx="397" r="6" stroke="#FFFFFF" fill="#BDBA14"/><circle class="master role" cx="466" r="6" stroke="#FFFFFF" fill="#406EEE"/><circle class="doctor role" cx="507" r="6" stroke="#FFFFFF" fill="#2BCDB0"/><circle class="academician role" cx="-26768" r="8" stroke="#FFFFFF" fill="#5F3D3D"/><circle class="vicefaculty role" cx="630" r="6" stroke="#FFFFFF" fill="#DB73F0"/><circle class="faculty role" cx="-26768" r="6" stroke="#FFFFFF" fill="#772BCD"/><circle class="vicedepart role" cx="-26768" r="6" stroke="#FFFFFF" fill="#2D1791"/><circle class="depart role" cx="-26768" r="6" stroke="#FFFFFF" fill="#DFB542"/><circle class="vicehead role" cx="-26768" r="6" stroke="#FFFFFF" fill="#2B64CD"/><circle class="head role" cx="822" r="6" stroke="#FFFFFF" fill="#F02FC6"/><circle class="add1 role" cx="712" r="8" stroke="#FFFFFF" fill="#CD2B2B"/><circle class="add2 role" cx="767" r="8" stroke="#FFFFFF" fill="#010E0B"/></g><g class="person" transform="translate(0,12.857142857142858)"><path d="M41,0L863,0" stroke="#000000" fill="none"/><circle class="birth role" cx="41" r="6" stroke="#FFFFFF" fill="#FC48FD"/><circle class="bachelor role" cx="-26768" r="6" stroke="#FFFFFF" fill="#BDBA14"/><circle class="master role" cx="-26768" r="6" stroke="#FFFFFF" fill="#406EEE"/><circle class="doctor role" cx="-26768" r="6" stroke="#FFFFFF" fill="#2BCDB0"/><circle class="academician role" cx="-26768" r="8" stroke="#FFFFFF" fill="#5F3D3D"/><circle class="vicefaculty role" cx="-26768" r="6" stroke="#FFFFFF" fill="#DB73F0"/><circle class="faculty role" cx="-26768" r="6" stroke="#FFFFFF" fill="#772BCD"/><circle class="vicedepart role" cx="-26768" r="6" stroke="#FFFFFF" fill="#2D1791"/><circle class="depart role" cx="-26768" r="6" stroke="#FFFFFF" fill="#DFB542"/><circle class="vicehead role" cx="753" r="6" stroke="#FFFFFF" fill="#2B64CD"/><circle class="head role" cx="863" r="6" stroke="#FFFFFF" fill="#F02FC6"/><circle class="add1 role" cx="-26768" r="8" stroke="#FFFFFF" fill="#CD2B2B"/><circle class="add2 role" cx="-26768" r="8" stroke="#FFFFFF" fill="#010E0B"/></g></g><circle cx="270" cy="16" r="6" style="" fill="#FC48FD"/><text x="305" y="21" font-size="13px" style="text-anchor: end;">出生</text><circle cx="370" cy="16" r="6" style="" fill="#BDBA14"/><text x="405" y="21" font-size="13px" style="text-anchor: end;">学士</text><circle cx="470" cy="16" r="6" style="" fill="#406EEE"/><text x="505" y="21" font-size="13px" style="text-anchor: end;">硕士</text><circle cx="570" cy="16" r="6" style="" fill="#2BCDB0"/><text x="605" y="21" font-size="13px" style="text-anchor: end;">博士</text><circle cx="670" cy="16" r="6" style="" fill="#5F3D3D"/><text x="705" y="21" font-size="13px" style="text-anchor: end;">院士</text><circle cx="760" cy="16" r="6" style="" fill="#772BCD"/><circle cx="745" cy="16" r="6" style="" fill="#DB73F0"/><text x="840" y="21" font-size="13px" style="text-anchor: end;">副/正系主任</text><circle cx="870" cy="16" r="6" style="" fill="#DFB542"/><circle cx="855" cy="16" r="6" style="" fill="#2D1791"/><text x="935" y="21" font-size="13px" style="text-anchor: end;">副/正院长</text><circle cx="970" cy="16" r="6" style="" fill="#F02FC6"/><circle cx="955" cy="16" r="6" style="" fill="#2B64CD"/><text x="1035" y="21" font-size="13px" style="text-anchor: end;">副/正校长</text><circle cx="1070" cy="16" r="6" style="" fill="#CD2B2B"/><circle cx="1055" cy="16" r="6" style="" fill="#010E0B"/><text x="1130" y="21" font-size="13px" style="text-anchor: end;">特殊履历</text></svg>