<svg xmlns="http://www.w3.org/2000/svg" version="1.1" style="font-family: Arial;" width="800" height="450" viewBox="0 0 800 450"><title>Wizard data</title><desc>A bar chart, Wizard data, built by anonymous using ChartBlocks.</desc><g class="scaler"><rect width="800" height="450" fill="rgb(255, 255, 255)" fill-opacity="1"/><g class="canvas" transform="translate(189,51)"><g class="grid"><g class="axis-grid x" transform="translate(0,0)"/><g class="axis-grid y" transform="translate(0,300)"><line class="grid" x1="0" x2="0" y1="0" y2="-300" style="stroke: rgb(102, 102, 102); stroke-opacity: 0.3; stroke-width: 1;" transform="translate(0,0)"/><line class="grid" x1="0" x2="0" y1="0" y2="-300" style="stroke: rgb(102, 102, 102); stroke-opacity: 0.3; stroke-width: 1;" transform="translate(146.5,0)"/><line class="grid" x1="0" x2="0" y1="0" y2="-300" style="stroke: rgb(102, 102, 102); stroke-opacity: 0.3; stroke-width: 1;" transform="translate(293,0)"/><line class="grid" x1="0" x2="0" y1="0" y2="-300" style="stroke: rgb(102, 102, 102); stroke-opacity: 0.3; stroke-width: 1;" transform="translate(439.5,0)"/><line class="grid" x1="0" x2="0" y1="0" y2="-300" style="stroke: rgb(102, 102, 102); stroke-opacity: 0.3; stroke-width: 1;" transform="translate(586,0)"/></g><g class="axis-grid y2" transform="translate(0,0.5)"/><g class="axis-grid x2" transform="translate(0,1)"/></g><rect class="trigger-layer" height="400" width="750" opacity="0"/><g class="chart"><g class="series s0"><g class="bar"><rect fill="rgb(250, 106, 49)" opacity="1" x="0" width="224.8775" y="267.391304347826" height="26.086956521739125" clip-path="url(#chart-clipPath-exact)"/></g><g class="bar"><rect fill="rgb(250, 106, 49)" opacity="1" x="0" width="216.08749999999998" y="234.78260869565213" height="26.086956521739125" clip-path="url(#chart-clipPath-exact)"/></g><g class="bar"><rect fill="rgb(250, 106, 49)" opacity="1" x="0" width="238.0625" y="202.17391304347822" height="26.086956521739125" clip-path="url(#chart-clipPath-exact)"/></g><g class="bar"><rect fill="rgb(250, 106, 49)" opacity="1" x="0" width="185.32250000000002" y="169.56521739130432" height="26.086956521739125" clip-path="url(#chart-clipPath-exact)"/></g><g class="bar"><rect fill="rgb(250, 106, 49)" opacity="1" x="0" width="274.6875" y="136.9565217391304" height="26.086956521739125" clip-path="url(#chart-clipPath-exact)"/></g><g class="bar"><rect fill="rgb(250, 106, 49)" opacity="1" x="0" width="195.5775" y="104.3478260869565" height="26.086956521739125" clip-path="url(#chart-clipPath-exact)"/></g><g class="bar"><rect fill="rgb(250, 106, 49)" opacity="1" x="0" width="219.75" y="71.7391304347826" height="26.086956521739125" clip-path="url(#chart-clipPath-exact)"/></g><g class="bar"><rect fill="rgb(250, 106, 49)" opacity="1" x="0" width="389.69" y="39.13043478260869" height="26.086956521739125" clip-path="url(#chart-clipPath-exact)"/></g><g class="bar"><rect fill="rgb(250, 106, 49)" opacity="1" x="0" width="293" y="6.521739130434781" height="26.086956521739125" clip-path="url(#chart-clipPath-exact)"/></g></g><g class="series s1"><g class="bar"><rect fill="rgb(255, 192, 0)" opacity="1" x="224.8775" width="47.612500000000004" y="267.391304347826" height="26.086956521739125" clip-path="url(#chart-clipPath-exact)"/></g><g class="bar"><rect fill="rgb(255, 192, 0)" opacity="1" x="216.08749999999998" width="82.04" y="234.78260869565213" height="26.086956521739125" clip-path="url(#chart-clipPath-exact)"/></g><g class="bar"><rect fill="rgb(255, 192, 0)" opacity="1" x="238.0625" width="94.4925" y="202.17391304347822" height="26.086956521739125" clip-path="url(#chart-clipPath-exact)"/></g><g class="bar"><rect fill="rgb(255, 192, 0)" opacity="1" x="185.32250000000002" width="96.69" y="169.56521739130432" height="26.086956521739125" clip-path="url(#chart-clipPath-exact)"/></g><g class="bar"><rect fill="rgb(255, 192, 0)" opacity="1" x="274.6875" width="65.1925" y="136.9565217391304" height="26.086956521739125" clip-path="url(#chart-clipPath-exact)"/></g><g class="bar"><rect fill="rgb(255, 192, 0)" opacity="1" x="195.5775" width="59.3325" y="104.3478260869565" height="26.086956521739125" clip-path="url(#chart-clipPath-exact)"/></g><g class="bar"><rect fill="rgb(255, 192, 0)" opacity="1" x="219.75" width="170.6725" y="71.7391304347826" height="26.086956521739125" clip-path="url(#chart-clipPath-exact)"/></g><g class="bar"><rect fill="rgb(255, 192, 0)" opacity="1" x="389.69" width="161.8825" y="39.13043478260869" height="26.086956521739125" clip-path="url(#chart-clipPath-exact)"/></g><g class="bar"><rect fill="rgb(255, 192, 0)" opacity="1" x="293" width="120.13000000000001" y="6.521739130434781" height="26.086956521739125" clip-path="url(#chart-clipPath-exact)"/></g></g></g><g class="axes"><g class="axis-labels"/><g class="axis left" transform="translate(0,0)"><g class="tick major" style="opacity: 1; display: block;" transform="translate(0,280.43478260869557)"><line x2="-6" y2="0"/><text x="-9" y="0" dy="7" style="text-anchor: end; fill: rgb(102, 102, 102); fill-opacity: 1; font-family: Arial; font-size: 14px;" transform="rotate(0, -9, 0)translate(0,0)" data-org-x="-9" data-org-y="0">White / European</text></g><g class="tick major" style="opacity: 1; display: block;" transform="translate(0,247.8260869565217)"><line x2="-6" y2="0"/><text x="-9" y="0" dy="7" style="text-anchor: end; fill: rgb(102, 102, 102); fill-opacity: 1; font-family: Arial; font-size: 14px;" transform="rotate(0, -9, 0)translate(0,0)" data-org-x="-9" data-org-y="0">South Asian</text></g><g class="tick major" style="opacity: 1; display: block;" transform="translate(0,215.21739130434779)"><line x2="-6" y2="0"/><text x="-9" y="0" dy="7" style="text-anchor: end; fill: rgb(102, 102, 102); fill-opacity: 1; font-family: Arial; font-size: 14px;" transform="rotate(0, -9, 0)translate(0,0)" data-org-x="-9" data-org-y="0">Multi-racial</text></g><g class="tick major" style="opacity: 1; display: block;" transform="translate(0,182.60869565217388)"><line x2="-6" y2="0"/><text x="-9" y="0" dy="7" style="text-anchor: end; fill: rgb(102, 102, 102); fill-opacity: 1; font-family: Arial; font-size: 14px;" transform="rotate(0, -9, 0)translate(0,0)" data-org-x="-9" data-org-y="0">Middle Eastern</text></g><g class="tick major" style="opacity: 1; display: block;" transform="translate(0,149.99999999999997)"><line x2="-6" y2="0"/><text x="-9" y="0" dy="7" style="text-anchor: end; fill: rgb(102, 102, 102); fill-opacity: 1; font-family: Arial; font-size: 14px;" transform="rotate(0, -9, 0)translate(0,0)" data-org-x="-9" data-org-y="0">Hispanic / Latino</text></g><g class="tick major" style="opacity: 1; display: block;" transform="translate(0,117.39130434782606)"><line x2="-6" y2="0"/><text x="-9" y="0" dy="7" style="text-anchor: end; fill: rgb(102, 102, 102); fill-opacity: 1; font-family: Arial; font-size: 14px;" transform="rotate(0, -9, 0)translate(0,0)" data-org-x="-9" data-org-y="0">East &amp; South East Asian</text></g><g class="tick major" style="opacity: 1; display: block;" transform="translate(0,84.78260869565216)"><line x2="-6" y2="0"/><text x="-9" y="0" dy="7" style="text-anchor: end; fill: rgb(102, 102, 102); fill-opacity: 1; font-family: Arial; font-size: 14px;" transform="rotate(0, -9, 0)translate(0,0)" data-org-x="-9" data-org-y="0">Caribbean</text></g><g class="tick major" style="opacity: 1; display: block;" transform="translate(0,52.17391304347825)"><line x2="-6" y2="0"/><text x="-9" y="0" dy="7" style="text-anchor: end; fill: rgb(102, 102, 102); fill-opacity: 1; font-family: Arial; font-size: 14px;" transform="rotate(0, -9, 0)translate(0,0)" data-org-x="-9" data-org-y="0">African</text></g><g class="tick major" style="opacity: 1; display: block;" transform="translate(0,19.565217391304344)"><line x2="-6" y2="0"/><text x="-9" y="0" dy="7" style="text-anchor: end; fill: rgb(102, 102, 102); fill-opacity: 1; font-family: Arial; font-size: 14px;" transform="rotate(0, -9, 0)translate(0,0)" data-org-x="-9" data-org-y="0">Aboriginal</text></g><path class="domain" d="M0,0H0V300H0" stroke-width="0" fill="none" stroke="rgb(188, 188, 188)" stroke-opacity="1"/></g><g class="axis bottom" transform="translate(0,300)"><g class="tick major" style="opacity: 1; display: block;" transform="translate(0,0)"><line y2="6" x2="0"/><text y="9" x="0" dy="7" style="text-anchor: middle; fill: rgb(102, 102, 102); fill-opacity: 1; font-family: Arial; font-size: 14px;" transform="rotate(0, 0, 9)translate(0,0)" data-org-x="0" data-org-y="9">0%</text></g><g class="tick major" style="opacity: 1; display: block;" transform="translate(146.5,0)"><line y2="6" x2="0"/><text y="9" x="0" dy="7" style="text-anchor: middle; fill: rgb(102, 102, 102); fill-opacity: 1; font-family: Arial; font-size: 14px;" transform="rotate(0, 0, 9)translate(0,0)" data-org-x="0" data-org-y="9">20%</text></g><g class="tick major" style="opacity: 1; display: block;" transform="translate(293,0)"><line y2="6" x2="0"/><text y="9" x="0" dy="7" style="text-anchor: middle; fill: rgb(102, 102, 102); fill-opacity: 1; font-family: Arial; font-size: 14px;" transform="rotate(0, 0, 9)translate(0,0)" data-org-x="0" data-org-y="9">40%</text></g><g class="tick major" style="opacity: 1; display: block;" transform="translate(439.5,0)"><line y2="6" x2="0"/><text y="9" x="0" dy="7" style="text-anchor: middle; fill: rgb(102, 102, 102); fill-opacity: 1; font-family: Arial; font-size: 14px;" transform="rotate(0, 0, 9)translate(0,0)" data-org-x="0" data-org-y="9">60%</text></g><g class="tick major" style="opacity: 1; display: block;" transform="translate(586,0)"><line y2="6" x2="0"/><text y="9" x="0" dy="7" style="text-anchor: middle; fill: rgb(102, 102, 102); fill-opacity: 1; font-family: Arial; font-size: 14px;" transform="rotate(0, 0, 9)translate(0,0)" data-org-x="0" data-org-y="9">80%</text></g><path class="domain" d="M0,0V0H586V0" stroke-width="0" fill="none" stroke="rgb(188, 188, 188)" stroke-opacity="1"/><path class="filler" d="M0,0V0H0V0" stroke-width="0" fill="none" stroke="rgb(188, 188, 188)" stroke-opacity="1"/></g></g></g><g class="label" transform="translate(342,400)"><text style="text-anchor: start; font-family: Arial; font-size: 22px;" fill="rgb(102, 102, 102)" dy="22" transform="rotate(0)">Wizard data</text></g><g class="legend" transform="translate(420.20269775390625,25)"><g class="row" transform="translate(0,0)"><text class="key" style="font-size: 14px; fill: rgb(102, 102, 102); fill-opacity: 1;" dx="28" dy="14">Moderate food insecurity</text><path class="shape" d="M0,7.898654169668588A7.898654169668588,7.898654169668588 0 1,1 0,-7.898654169668588A7.898654169668588,7.898654169668588 0 1,1 0,7.898654169668588Z" style="fill: rgb(250, 106, 49); fill-opacity: 1;" transform="translate(14,9.24)"/></g><g class="row" transform="translate(191.89865112304688,0)"><text class="key" style="font-size: 14px; fill: rgb(102, 102, 102); fill-opacity: 1;" dx="28" dy="14">Severe food insecurity</text><path class="shape" d="M0,7.898654169668588A7.898654169668588,7.898654169668588 0 1,1 0,-7.898654169668588A7.898654169668588,7.898654169668588 0 1,1 0,7.898654169668588Z" style="fill: rgb(255, 192, 0); fill-opacity: 1;" transform="translate(14,9.24)"/></g></g></g></svg>