<?xml version="1.0" encoding="utf-8"?>
<!-- Generator: Adobe Illustrator 24.0.0, SVG Export Plug-In . SVG Version: 6.00 Build 0)  -->
<svg version="1.1" id="图层_1" xmlns="http://www.w3.org/2000/svg" xmlns:xlink="http://www.w3.org/1999/xlink" x="0px" y="0px"
	 viewBox="0 0 595.3 841.9" style="enable-background:new 0 0 595.3 841.9;" xml:space="preserve">
<style type="text/css">
	.st0{fill:#148AFF;}
	.st1{fill:none;}
	.st2{font-family:'FZCSJW--GB1-0';}
	.st3{font-size:29px;}
</style>
<g>
	<path class="st0" d="M317.1,195.1l-16.6-16.6c-1.6-1.6-4.2-1.6-5.9,0l-16.6,16.6c-1.1,1-1.5,2.6-1.1,4c0.4,1.4,1.5,2.6,3,3
		c1.4,0.4,3,0,4-1.1l9.5-9.5v45.9c0,2.3,1.9,4.1,4.1,4.1c2.3,0,4.1-1.9,4.1-4.1v-45.9l9.5,9.5c1,1.1,2.6,1.5,4,1.1
		c1.4-0.4,2.6-1.5,3-3C318.6,197.7,318.2,196.1,317.1,195.1L317.1,195.1z M317.1,195.1"/>
	<path class="st0" d="M328.7,222.9h-14.5c-2.3,0-4.1-1.9-4.1-4.1c0-2.3,1.9-4.1,4.1-4.1h14.5c10.3,0,18.6-8.4,18.6-18.6
		c0-9.7-7.5-17.8-17.1-18.6c-2-0.2-3.5-1.7-3.8-3.6c-1.8-14.5-14.2-25.4-28.8-25.4c-14.6,0-27,10.9-28.8,25.4
		c-0.2,2-1.8,3.5-3.8,3.6c-9.7,0.8-17.1,8.9-17.1,18.6c0,10.3,8.4,18.6,18.6,18.6h14.5c2.3,0,4.1,1.9,4.1,4.1c0,2.3-1.9,4.1-4.1,4.1
		h-14.5c-14.8,0-26.9-12.1-26.9-26.9c0-12.8,9-23.8,21.5-26.4c3.6-17.1,18.7-29.5,36.5-29.5c17.7,0,32.9,12.5,36.5,29.5
		c12.5,2.6,21.5,13.6,21.5,26.4C355.6,210.8,343.6,222.9,328.7,222.9L328.7,222.9z M328.7,222.9"/>
</g>
<rect x="140.3" y="287.9" class="st1" width="314.8" height="56.2"/>
<text transform="matrix(1 0 0 1 154.7903 312.5514)" class="st2 st3">Drag the Chart Here </text>
</svg>
