<svg id="backhand-chart" width="920" height="500" xmlns="http://www.w3.org/2000/svg" viewBox="0 0 920 500" transform_matrix="{&quot;a&quot;:1,&quot;b&quot;:0,&quot;c&quot;:0,&quot;d&quot;:1,&quot;e&quot;:8,&quot;f&quot;:638.0625}"><g><path fill="rgb(61, 185, 207)" d="M36,374.22222222222223L39.041666666666664,374.22222222222223C42.083333333333336,374.22222222222223,48.166666666666664,374.22222222222223,54.25,374.22222222222223C60.333333333333336,374.22222222222223,66.41666666666667,374.22222222222223,72.5,374.22222222222223C78.58333333333333,374.22222222222223,84.66666666666667,374.22222222222223,90.75,374.22222222222223C96.83333333333333,374.22222222222223,102.91666666666667,374.22222222222223,109,377.4276094276094C115.08333333333333,380.6329966329966,121.16666666666667,387.0437710437711,127.25,388.80673400673396C133.33333333333334,390.56969696969696,139.41666666666666,387.6848484848485,145.5,382.2757575757576C151.58333333333334,376.8666666666666,157.66666666666666,368.93333333333334,163.75,362.1333333333334C169.83333333333334,355.3333333333333,175.91666666666666,349.6666666666667,182,353.6333333333334C188.08333333333334,357.6000000000001,194.16666666666666,371.20000000000005,200.25,371.20000000000005C206.33333333333334,371.20000000000005,212.41666666666666,357.6000000000001,218.5,355.8370370370371C224.58333333333334,354.07407407407413,230.66666666666666,364.1481481481482,236.75,357.0648148148148C242.83333333333334,349.98148148148147,248.91666666666666,325.7407407407407,255,308.1111111111111C261.0833333333333,290.48148148148147,267.1666666666667,279.462962962963,273.25,276.1574074074074C279.3333333333333,272.85185185185185,285.4166666666667,277.25925925925924,291.5,276.4579124579124C297.5833333333333,275.65656565656565,303.6666666666667,269.6464646464646,309.75,267.99368686868684C315.8333333333333,266.34090909090907,321.9166666666667,269.04545454545456,328,268.490675990676C334.0833333333333,267.93589743589746,340.1666666666667,264.12179487179486,346.25,263.1301282051282C352.3333333333333,262.13846153846157,358.4166666666667,263.96923076923076,364.5,255.25128205128206C370.5833333333333,246.53333333333333,376.6666666666667,227.26666666666665,382.75,218.54C388.8333333333333,209.81333333333336,394.9166666666667,211.62666666666667,401,212.8859259259259C407.0833333333333,214.14518518518517,413.1666666666667,214.85037037037037,419.25,220.81239057239057C425.3333333333333,226.77441077441077,431.4166666666667,237.99326599326596,437.5,241.38357938357936C443.5833333333333,244.77389277389275,449.6666666666667,240.33566433566435,455.75,233.46697746697748C461.8333333333333,226.59829059829062,467.9166666666667,217.2991452991453,474,213.90883190883196C480.0833333333333,210.5185185185185,486.1666666666667,213.03703703703704,492.25,214.4537037037037C498.3333333333333,215.87037037037035,504.4166666666667,216.1851851851852,510.5,216.04068002428662C516.5833333333334,215.89617486338798,522.6666666666666,215.292349726776,528.75,212.06891977508516C534.8333333333334,208.84548982339433,540.9166666666666,203.0024550566247,547,201.02694146459316C553.0833333333334,199.05142787256162,559.1666666666666,200.94343545526814,565.25,202.88198168602875C571.3333333333334,204.8205279167893,577.4166666666666,206.80561279560393,583.5,206.33303895594153C589.5833333333334,205.86046511627907,595.6666666666666,202.93023255813952,601.75,200.5317829457364C607.8333333333334,198.13333333333333,613.9166666666666,196.26666666666665,620,193.57037037037037C626.0833333333334,190.8740740740741,632.1666666666666,187.3481481481481,638.25,184.6183990442055C644.3333333333334,181.8886499402628,650.4166666666666,179.95507765830348,656.5,175.60276284348865C662.5833333333334,171.25044802867384,668.6666666666666,164.47939068100357,674.75,163.5730286738351C680.8333333333334,162.66666666666666,686.9166666666666,167.62499999999997,693,162.45367983963342C699.0833333333334,157.28235967926688,705.1666666666666,141.98138602520044,711.25,136.32187424068866C717.3333333333334,130.66236245617688,723.4166666666666,134.64431254121976,729.5,134.0309104793641C735.5833333333334,133.41750841750843,741.6666666666666,128.20875420875421,747.75,126.60606060606061C753.8333333333334,125.00336700336702,759.9166666666666,127.00673400673402,766,126.2134006734007C772.0833333333334,125.42006734006736,778.1666666666666,121.83003367003369,784.25,119.2416835016835C790.3333333333334,116.65333333333332,796.4166666666666,115.06666666666666,802.5,111.89333333333332C808.5833333333334,108.71999999999998,814.6666666666666,103.95999999999998,820.75,102.37333333333329C826.8333333333334,100.78666666666663,832.9166666666666,102.37333333333332,839,98.40666666666664C845.0833333333334,94.44,851.1666666666666,84.92,857.25,80.16000000000001C863.3333333333334,75.40000000000002,869.4166666666666,75.40000000000002,875.5,73.81333333333335C881.5833333333334,72.22666666666669,887.6666666666666,69.05333333333334,893.75,66.67333333333335C899.8333333333334,64.29333333333334,905.9166666666666,62.70666666666667,908.9583333333334,61.913333333333334L912,61.12L912,480L908.9583333333334,480C905.9166666666666,480,899.8333333333334,480,893.75,480C887.6666666666666,480,881.5833333333334,480,875.5,480C869.4166666666666,480,863.3333333333334,480,857.25,480C851.1666666666666,480,845.0833333333334,480,839,480C832.9166666666666,480,826.8333333333334,480,820.75,480C814.6666666666666,480,808.5833333333334,480,802.5,480C796.4166666666666,480,790.3333333333334,480,784.25,480C778.1666666666666,480,772.0833333333334,480,766,480C759.9166666666666,480,753.8333333333334,480,747.75,480C741.6666666666666,480,735.5833333333334,480,729.5,480C723.4166666666666,480,717.3333333333334,480,711.25,480C705.1666666666666,480,699.0833333333334,480,693,480C686.9166666666666,480,680.8333333333334,480,674.75,480C668.6666666666666,480,662.5833333333334,480,656.5,480C650.4166666666666,480,644.3333333333334,480,638.25,480C632.1666666666666,480,626.0833333333334,480,620,480C613.9166666666666,480,607.8333333333334,480,601.75,480C595.6666666666666,480,589.5833333333334,480,583.5,480C577.4166666666666,480,571.3333333333334,480,565.25,480C559.1666666666666,480,553.0833333333334,480,547,480C540.9166666666666,480,534.8333333333334,480,528.75,480C522.6666666666666,480,516.5833333333334,480,510.5,480C504.4166666666667,480,498.3333333333333,480,492.25,480C486.1666666666667,480,480.0833333333333,480,474,480C467.9166666666667,480,461.8333333333333,480,455.75,480C449.6666666666667,480,443.5833333333333,480,437.5,480C431.4166666666667,480,425.3333333333333,480,419.25,480C413.1666666666667,480,407.0833333333333,480,401,480C394.9166666666667,480,388.8333333333333,480,382.75,480C376.6666666666667,480,370.5833333333333,480,364.5,480C358.4166666666667,480,352.3333333333333,480,346.25,480C340.1666666666667,480,334.0833333333333,480,328,480C321.9166666666667,480,315.8333333333333,480,309.75,480C303.6666666666667,480,297.5833333333333,480,291.5,480C285.4166666666667,480,279.3333333333333,480,273.25,480C267.1666666666667,480,261.0833333333333,480,255,480C248.91666666666666,480,242.83333333333334,480,236.75,480C230.66666666666666,480,224.58333333333334,480,218.5,480C212.41666666666666,480,206.33333333333334,480,200.25,480C194.16666666666666,480,188.08333333333334,480,182,480C175.91666666666666,480,169.83333333333334,480,163.75,480C157.66666666666666,480,151.58333333333334,480,145.5,480C139.41666666666666,480,133.33333333333334,480,127.25,480C121.16666666666667,480,115.08333333333333,480,109,480C102.91666666666667,480,96.83333333333333,480,90.75,480C84.66666666666667,480,78.58333333333333,480,72.5,480C66.41666666666667,480,60.333333333333336,480,54.25,480C48.166666666666664,480,42.083333333333336,480,39.041666666666664,480L36,480Z" transform_matrix="{&quot;a&quot;:1,&quot;b&quot;:0,&quot;c&quot;:0,&quot;d&quot;:1,&quot;e&quot;:8,&quot;f&quot;:638.0625}" my_stoke="none" my_stoke_width="1px" my_stoke_opacity="1" my_fill="rgb(61, 185, 207)" my_fill_opacity="1" my_font_size="16px" opacity="1" style="font-family: &quot;PingFang SC&quot;;"></path><path fill="rgb(0, 106, 220)" d="M36,4L39.041666666666664,4C42.083333333333336,4,48.166666666666664,4,54.25,4C60.333333333333336,4,66.41666666666667,4,72.5,4C78.58333333333333,4,84.66666666666667,4,90.75,4C96.83333333333333,4,102.91666666666667,4,109,4C115.08333333333333,4,121.16666666666667,4,127.25,4C133.33333333333334,4,139.41666666666666,4,145.5,4C151.58333333333334,4,157.66666666666666,4,163.75,4C169.83333333333334,4,175.91666666666666,4,182,4C188.08333333333334,4,194.16666666666666,4,200.25,4C206.33333333333334,4,212.41666666666666,4,218.5,4C224.58333333333334,4,230.66666666666666,4,236.75,4C242.83333333333334,4,248.91666666666666,4,255,4C261.0833333333333,4,267.1666666666667,4,273.25,4C279.3333333333333,4,285.4166666666667,4,291.5,4C297.5833333333333,4,303.6666666666667,4,309.75,4C315.8333333333333,4,321.9166666666667,4,328,4C334.0833333333333,4,340.1666666666667,4,346.25,4C352.3333333333333,4,358.4166666666667,4,364.5,4C370.5833333333333,4,376.6666666666667,4,382.75,4C388.8333333333333,4,394.9166666666667,4,401,4C407.0833333333333,4,413.1666666666667,4,419.25,4C425.3333333333333,4,431.4166666666667,4,437.5,4C443.5833333333333,4,449.6666666666667,4,455.75,4C461.8333333333333,4,467.9166666666667,4,474,4C480.0833333333333,4,486.1666666666667,4,492.25,4C498.3333333333333,4,504.4166666666667,4,510.5,4C516.5833333333334,4,522.6666666666666,4,528.75,4C534.8333333333334,4,540.9166666666666,4,547,4C553.0833333333334,4,559.1666666666666,4,565.25,4C571.3333333333334,4,577.4166666666666,4,583.5,4C589.5833333333334,4,595.6666666666666,4,601.75,4C607.8333333333334,4,613.9166666666666,4,620,4C626.0833333333334,4,632.1666666666666,4,638.25,4C644.3333333333334,4,650.4166666666666,4,656.5,4C662.5833333333334,4,668.6666666666666,4,674.75,4C680.8333333333334,4,686.9166666666666,4,693,4C699.0833333333334,4,705.1666666666666,4,711.25,4C717.3333333333334,4,723.4166666666666,4,729.5,4C735.5833333333334,4,741.6666666666666,4,747.75,4C753.8333333333334,4,759.9166666666666,4,766,4C772.0833333333334,4,778.1666666666666,4,784.25,4C790.3333333333334,4,796.4166666666666,4,802.5,4C808.5833333333334,4,814.6666666666666,4,820.75,4C826.8333333333334,4,832.9166666666666,4,839,4C845.0833333333334,4,851.1666666666666,4,857.25,4C863.3333333333334,4,869.4166666666666,4,875.5,4C881.5833333333334,4,887.6666666666666,4,893.75,4C899.8333333333334,4,905.9166666666666,4,908.9583333333334,4L912,4L912,61.12L908.9583333333334,61.91333333333333C905.9166666666666,62.70666666666667,899.8333333333334,64.29333333333334,893.75,66.67333333333335C887.6666666666666,69.05333333333334,881.5833333333334,72.22666666666669,875.5,73.81333333333335C869.4166666666666,75.40000000000002,863.3333333333334,75.40000000000002,857.25,80.16000000000001C851.1666666666666,84.92,845.0833333333334,94.44,839,98.40666666666665C832.9166666666666,102.37333333333332,826.8333333333334,100.78666666666663,820.75,102.37333333333332C814.6666666666666,103.95999999999998,808.5833333333334,108.71999999999998,802.5,111.89333333333332C796.4166666666666,115.06666666666666,790.3333333333334,116.65333333333332,784.25,119.2416835016835C778.1666666666666,121.83003367003369,772.0833333333334,125.42006734006736,766,126.2134006734007C759.9166666666666,127.00673400673402,753.8333333333334,125.00336700336702,747.75,126.60606060606062C741.6666666666666,128.20875420875421,735.5833333333334,133.41750841750843,729.5,134.0309104793641C723.4166666666666,134.64431254121976,717.3333333333334,130.66236245617688,711.25,136.32187424068866C705.1666666666666,141.98138602520044,699.0833333333334,157.28235967926688,693,162.45367983963342C686.9166666666666,167.62499999999997,680.8333333333334,162.66666666666666,674.75,163.5730286738351C668.6666666666666,164.47939068100357,662.5833333333334,171.25044802867384,656.5,175.60276284348865C650.4166666666666,179.95507765830348,644.3333333333334,181.8886499402628,638.25,184.6183990442055C632.1666666666666,187.3481481481481,626.0833333333334,190.8740740740741,620,193.57037037037037C613.9166666666666,196.26666666666665,607.8333333333334,198.13333333333333,601.75,200.5317829457364C595.6666666666666,202.93023255813952,589.5833333333334,205.86046511627907,583.5,206.33303895594153C577.4166666666666,206.80561279560393,571.3333333333334,204.8205279167893,565.25,202.8819816860287C559.1666666666666,200.94343545526814,553.0833333333334,199.05142787256162,547,201.02694146459316C540.9166666666666,203.0024550566247,534.8333333333334,208.84548982339433,528.75,212.06891977508516C522.6666666666666,215.292349726776,516.5833333333334,215.89617486338798,510.5,216.04068002428662C504.4166666666667,216.1851851851852,498.3333333333333,215.87037037037035,492.25,214.4537037037037C486.1666666666667,213.03703703703704,480.0833333333333,210.5185185185185,474,213.90883190883196C467.9166666666667,217.2991452991453,461.8333333333333,226.59829059829062,455.75,233.46697746697748C449.6666666666667,240.33566433566435,443.5833333333333,244.77389277389275,437.5,241.38357938357936C431.4166666666667,237.99326599326596,425.3333333333333,226.77441077441077,419.25,220.81239057239057C413.1666666666667,214.85037037037037,407.0833333333333,214.14518518518517,401,212.8859259259259C394.9166666666667,211.62666666666667,388.8333333333333,209.81333333333336,382.75,218.54C376.6666666666667,227.26666666666665,370.5833333333333,246.53333333333333,364.5,255.25128205128206C358.4166666666667,263.96923076923076,352.3333333333333,262.13846153846157,346.25,263.1301282051282C340.1666666666667,264.12179487179486,334.0833333333333,267.93589743589746,328,268.490675990676C321.9166666666667,269.04545454545456,315.8333333333333,266.34090909090907,309.75,267.99368686868684C303.6666666666667,269.6464646464646,297.5833333333333,275.65656565656565,291.5,276.4579124579124C285.4166666666667,277.25925925925924,279.3333333333333,272.85185185185185,273.25,276.1574074074074C267.1666666666667,279.462962962963,261.0833333333333,290.48148148148147,255,308.1111111111111C248.91666666666666,325.7407407407407,242.83333333333334,349.98148148148147,236.75,357.06481481481484C230.66666666666666,364.1481481481482,224.58333333333334,354.07407407407413,218.5,355.8370370370371C212.41666666666666,357.6000000000001,206.33333333333334,371.20000000000005,200.25,371.20000000000005C194.16666666666666,371.20000000000005,188.08333333333334,357.6000000000001,182,353.6333333333334C175.91666666666666,349.6666666666667,169.83333333333334,355.3333333333333,163.75,362.1333333333334C157.66666666666666,368.93333333333334,151.58333333333334,376.8666666666666,145.5,382.27575757575755C139.41666666666666,387.6848484848485,133.33333333333334,390.56969696969696,127.25,388.80673400673396C121.16666666666667,387.0437710437711,115.08333333333333,380.6329966329966,109,377.42760942760947C102.91666666666667,374.22222222222223,96.83333333333333,374.22222222222223,90.75,374.22222222222223C84.66666666666667,374.22222222222223,78.58333333333333,374.22222222222223,72.5,374.22222222222223C66.41666666666667,374.22222222222223,60.333333333333336,374.22222222222223,54.25,374.22222222222223C48.166666666666664,374.22222222222223,42.083333333333336,374.22222222222223,39.041666666666664,374.22222222222223L36,374.22222222222223Z" transform_matrix="{&quot;a&quot;:1,&quot;b&quot;:0,&quot;c&quot;:0,&quot;d&quot;:1,&quot;e&quot;:8,&quot;f&quot;:638.0625}" my_stoke="none" my_stoke_width="1px" my_stoke_opacity="1" my_fill="rgb(0, 106, 220)" my_fill_opacity="1" my_font_size="16px" opacity="1" style="font-family: &quot;PingFang SC&quot;;"></path></g><g transform="translate(0,480)" fill="none" font-size="10" font-family="sans-serif" text-anchor="middle"><path class="domain" stroke="currentColor" d="M36.5,0.5H912.5" transform_matrix="{&quot;a&quot;:1,&quot;b&quot;:0,&quot;c&quot;:0,&quot;d&quot;:1,&quot;e&quot;:8,&quot;f&quot;:1118.0625}" my_stoke="rgb(0, 0, 0)" my_stoke_width="1px" my_stoke_opacity="1" my_fill="none" my_fill_opacity="1" my_font_size="10px" opacity="1" style="font-family: sans-serif;" fill="none"></path><g class="tick" opacity="1" transform="translate(73,0)"><line stroke="currentColor" y2="6" transform_matrix="{&quot;a&quot;:1,&quot;b&quot;:0,&quot;c&quot;:0,&quot;d&quot;:1,&quot;e&quot;:81,&quot;f&quot;:1118.0625}"></line><text fill="rgb(0, 0, 0)" y="9" dy="0.71em" transform_matrix="{&quot;a&quot;:1,&quot;b&quot;:0,&quot;c&quot;:0,&quot;d&quot;:1,&quot;e&quot;:81,&quot;f&quot;:1118.0625}" text_bbox="{&quot;x&quot;:-10.75,&quot;y&quot;:5.09375,&quot;w&quot;:21.5,&quot;h&quot;:14.015625}" my_fill="rgb(0, 0, 0)" my_fill_opacity="1" my_font_size="10px" opacity="1" style="font-family: sans-serif;" content="1975">1975</text></g><g class="tick" opacity="1" transform="translate(164.25,0)"><line stroke="currentColor" y2="6" transform_matrix="{&quot;a&quot;:1,&quot;b&quot;:0,&quot;c&quot;:0,&quot;d&quot;:1,&quot;e&quot;:172.25,&quot;f&quot;:1118.0625}"></line><text fill="rgb(0, 0, 0)" y="9" dy="0.71em" transform_matrix="{&quot;a&quot;:1,&quot;b&quot;:0,&quot;c&quot;:0,&quot;d&quot;:1,&quot;e&quot;:172.25,&quot;f&quot;:1118.0625}" text_bbox="{&quot;x&quot;:-11.015625,&quot;y&quot;:5.09375,&quot;w&quot;:22.03125,&quot;h&quot;:14.015625}" my_fill="rgb(0, 0, 0)" my_fill_opacity="1" my_font_size="10px" opacity="1" style="font-family: sans-serif;" content="1980">1980</text></g><g class="tick" opacity="1" transform="translate(255.5,0)"><line stroke="currentColor" y2="6" transform_matrix="{&quot;a&quot;:1,&quot;b&quot;:0,&quot;c&quot;:0,&quot;d&quot;:1,&quot;e&quot;:263.5,&quot;f&quot;:1118.0625}"></line><text fill="rgb(0, 0, 0)" y="9" dy="0.71em" transform_matrix="{&quot;a&quot;:1,&quot;b&quot;:0,&quot;c&quot;:0,&quot;d&quot;:1,&quot;e&quot;:263.5,&quot;f&quot;:1118.0625}" text_bbox="{&quot;x&quot;:-11.015625,&quot;y&quot;:5.09375,&quot;w&quot;:22.03125,&quot;h&quot;:14.015625}" my_fill="rgb(0, 0, 0)" my_fill_opacity="1" my_font_size="10px" opacity="1" style="font-family: sans-serif;" content="1985">1985</text></g><g class="tick" opacity="1" transform="translate(346.75,0)"><line stroke="currentColor" y2="6" transform_matrix="{&quot;a&quot;:1,&quot;b&quot;:0,&quot;c&quot;:0,&quot;d&quot;:1,&quot;e&quot;:354.75,&quot;f&quot;:1118.0625}"></line><text fill="rgb(0, 0, 0)" y="9" dy="0.71em" transform_matrix="{&quot;a&quot;:1,&quot;b&quot;:0,&quot;c&quot;:0,&quot;d&quot;:1,&quot;e&quot;:354.75,&quot;f&quot;:1118.0625}" text_bbox="{&quot;x&quot;:-11.015625,&quot;y&quot;:5.09375,&quot;w&quot;:22.03125,&quot;h&quot;:14.015625}" my_fill="rgb(0, 0, 0)" my_fill_opacity="1" my_font_size="10px" opacity="1" style="font-family: sans-serif;" content="1990">1990</text></g><g class="tick" opacity="1" transform="translate(438,0)"><line stroke="currentColor" y2="6" transform_matrix="{&quot;a&quot;:1,&quot;b&quot;:0,&quot;c&quot;:0,&quot;d&quot;:1,&quot;e&quot;:446,&quot;f&quot;:1118.0625}"></line><text fill="rgb(0, 0, 0)" y="9" dy="0.71em" transform_matrix="{&quot;a&quot;:1,&quot;b&quot;:0,&quot;c&quot;:0,&quot;d&quot;:1,&quot;e&quot;:446,&quot;f&quot;:1118.0625}" text_bbox="{&quot;x&quot;:-11.015625,&quot;y&quot;:5.09375,&quot;w&quot;:22.03125,&quot;h&quot;:14.015625}" my_fill="rgb(0, 0, 0)" my_fill_opacity="1" my_font_size="10px" opacity="1" style="font-family: sans-serif;" content="1995">1995</text></g><g class="tick" opacity="1" transform="translate(529.25,0)"><line stroke="currentColor" y2="6" transform_matrix="{&quot;a&quot;:1,&quot;b&quot;:0,&quot;c&quot;:0,&quot;d&quot;:1,&quot;e&quot;:537.25,&quot;f&quot;:1118.0625}"></line><text fill="rgb(0, 0, 0)" y="9" dy="0.71em" transform_matrix="{&quot;a&quot;:1,&quot;b&quot;:0,&quot;c&quot;:0,&quot;d&quot;:1,&quot;e&quot;:537.25,&quot;f&quot;:1118.0625}" text_bbox="{&quot;x&quot;:-12,&quot;y&quot;:5.09375,&quot;w&quot;:24,&quot;h&quot;:14.015625}" my_fill="rgb(0, 0, 0)" my_fill_opacity="1" my_font_size="10px" opacity="1" style="font-family: sans-serif;" content="2000">2000</text></g><g class="tick" opacity="1" transform="translate(620.5,0)"><line stroke="currentColor" y2="6" transform_matrix="{&quot;a&quot;:1,&quot;b&quot;:0,&quot;c&quot;:0,&quot;d&quot;:1,&quot;e&quot;:628.5,&quot;f&quot;:1118.0625}"></line><text fill="rgb(0, 0, 0)" y="9" dy="0.71em" transform_matrix="{&quot;a&quot;:1,&quot;b&quot;:0,&quot;c&quot;:0,&quot;d&quot;:1,&quot;e&quot;:628.5,&quot;f&quot;:1118.0625}" text_bbox="{&quot;x&quot;:-12,&quot;y&quot;:5.09375,&quot;w&quot;:24,&quot;h&quot;:14.015625}" my_fill="rgb(0, 0, 0)" my_fill_opacity="1" my_font_size="10px" opacity="1" style="font-family: sans-serif;" content="2005">2005</text></g><g class="tick" opacity="1" transform="translate(711.75,0)"><line stroke="currentColor" y2="6" transform_matrix="{&quot;a&quot;:1,&quot;b&quot;:0,&quot;c&quot;:0,&quot;d&quot;:1,&quot;e&quot;:719.75,&quot;f&quot;:1118.0625}"></line><text fill="rgb(0, 0, 0)" y="9" dy="0.71em" transform_matrix="{&quot;a&quot;:1,&quot;b&quot;:0,&quot;c&quot;:0,&quot;d&quot;:1,&quot;e&quot;:719.75,&quot;f&quot;:1118.0625}" text_bbox="{&quot;x&quot;:-11.015625,&quot;y&quot;:5.09375,&quot;w&quot;:22.03125,&quot;h&quot;:14.015625}" my_fill="rgb(0, 0, 0)" my_fill_opacity="1" my_font_size="10px" opacity="1" style="font-family: sans-serif;" content="2010">2010</text></g><g class="tick" opacity="1" transform="translate(803,0)"><line stroke="currentColor" y2="6" transform_matrix="{&quot;a&quot;:1,&quot;b&quot;:0,&quot;c&quot;:0,&quot;d&quot;:1,&quot;e&quot;:811,&quot;f&quot;:1118.0625}"></line><text fill="rgb(0, 0, 0)" y="9" dy="0.71em" transform_matrix="{&quot;a&quot;:1,&quot;b&quot;:0,&quot;c&quot;:0,&quot;d&quot;:1,&quot;e&quot;:811,&quot;f&quot;:1118.0625}" text_bbox="{&quot;x&quot;:-11.015625,&quot;y&quot;:5.09375,&quot;w&quot;:22.03125,&quot;h&quot;:14.015625}" my_fill="rgb(0, 0, 0)" my_fill_opacity="1" my_font_size="10px" opacity="1" style="font-family: sans-serif;" content="2015">2015</text></g><g class="tick" opacity="1" transform="translate(894.25,0)"><line stroke="currentColor" y2="6" transform_matrix="{&quot;a&quot;:1,&quot;b&quot;:0,&quot;c&quot;:0,&quot;d&quot;:1,&quot;e&quot;:902.25,&quot;f&quot;:1118.0625}"></line><text fill="rgb(0, 0, 0)" y="9" dy="0.71em" transform_matrix="{&quot;a&quot;:1,&quot;b&quot;:0,&quot;c&quot;:0,&quot;d&quot;:1,&quot;e&quot;:902.25,&quot;f&quot;:1118.0625}" text_bbox="{&quot;x&quot;:-12,&quot;y&quot;:5.09375,&quot;w&quot;:24,&quot;h&quot;:14.015625}" my_fill="rgb(0, 0, 0)" my_fill_opacity="1" my_font_size="10px" opacity="1" style="font-family: sans-serif;" content="2020">2020</text></g></g><g transform="translate(36,0)" fill="none" font-size="10" font-family="sans-serif" text-anchor="end"><g class="tick" opacity="1" transform="translate(0,480.5)"><line stroke="currentColor" x2="-6" transform_matrix="{&quot;a&quot;:1,&quot;b&quot;:0,&quot;c&quot;:0,&quot;d&quot;:1,&quot;e&quot;:44,&quot;f&quot;:1118.5625}"></line><text fill="rgb(0, 0, 0)" x="-9" dy="0.32em" transform_matrix="{&quot;a&quot;:1,&quot;b&quot;:0,&quot;c&quot;:0,&quot;d&quot;:1,&quot;e&quot;:44,&quot;f&quot;:1118.5625}" text_bbox="{&quot;x&quot;:-24.703125,&quot;y&quot;:-7.8125,&quot;w&quot;:15.703125,&quot;h&quot;:14.015625}" my_fill="rgb(0, 0, 0)" my_fill_opacity="1" my_font_size="10px" opacity="1" style="font-family: sans-serif;" content="0%">0%</text></g><g class="tick" opacity="1" transform="translate(0,432.9)"><line stroke="currentColor" x2="-6" transform_matrix="{&quot;a&quot;:1,&quot;b&quot;:0,&quot;c&quot;:0,&quot;d&quot;:1,&quot;e&quot;:44,&quot;f&quot;:1070.9624938964844}"></line><text fill="rgb(0, 0, 0)" x="-9" dy="0.32em" transform_matrix="{&quot;a&quot;:1,&quot;b&quot;:0,&quot;c&quot;:0,&quot;d&quot;:1,&quot;e&quot;:44,&quot;f&quot;:1070.9624938964844}" text_bbox="{&quot;x&quot;:-28.71875,&quot;y&quot;:-7.8125,&quot;w&quot;:19.71875,&quot;h&quot;:14.015625}" my_fill="rgb(0, 0, 0)" my_fill_opacity="1" my_font_size="10px" opacity="1" style="font-family: sans-serif;" content="10%">10%</text></g><g class="tick" opacity="1" transform="translate(0,385.3)"><line stroke="currentColor" x2="-6" transform_matrix="{&quot;a&quot;:1,&quot;b&quot;:0,&quot;c&quot;:0,&quot;d&quot;:1,&quot;e&quot;:44,&quot;f&quot;:1023.3624877929688}"></line><text fill="rgb(0, 0, 0)" x="-9" dy="0.32em" transform_matrix="{&quot;a&quot;:1,&quot;b&quot;:0,&quot;c&quot;:0,&quot;d&quot;:1,&quot;e&quot;:44,&quot;f&quot;:1023.3624877929688}" text_bbox="{&quot;x&quot;:-30.703125,&quot;y&quot;:-7.8125,&quot;w&quot;:21.703125,&quot;h&quot;:14.015625}" my_fill="rgb(0, 0, 0)" my_fill_opacity="1" my_font_size="10px" opacity="1" style="font-family: sans-serif;" content="20%">20%</text></g><g class="tick" opacity="1" transform="translate(0,337.7)"><line stroke="currentColor" x2="-6" transform_matrix="{&quot;a&quot;:1,&quot;b&quot;:0,&quot;c&quot;:0,&quot;d&quot;:1,&quot;e&quot;:44,&quot;f&quot;:975.7625122070312}"></line><text fill="rgb(0, 0, 0)" x="-9" dy="0.32em" transform_matrix="{&quot;a&quot;:1,&quot;b&quot;:0,&quot;c&quot;:0,&quot;d&quot;:1,&quot;e&quot;:44,&quot;f&quot;:975.7625122070312}" text_bbox="{&quot;x&quot;:-30.703125,&quot;y&quot;:-7.8125,&quot;w&quot;:21.703125,&quot;h&quot;:14.015625}" my_fill="rgb(0, 0, 0)" my_fill_opacity="1" my_font_size="10px" opacity="1" style="font-family: sans-serif;" content="30%">30%</text></g><g class="tick" opacity="1" transform="translate(0,290.1)"><line stroke="currentColor" x2="-6" transform_matrix="{&quot;a&quot;:1,&quot;b&quot;:0,&quot;c&quot;:0,&quot;d&quot;:1,&quot;e&quot;:44,&quot;f&quot;:928.1625061035156}"></line><text fill="rgb(0, 0, 0)" x="-9" dy="0.32em" transform_matrix="{&quot;a&quot;:1,&quot;b&quot;:0,&quot;c&quot;:0,&quot;d&quot;:1,&quot;e&quot;:44,&quot;f&quot;:928.1625061035156}" text_bbox="{&quot;x&quot;:-30.703125,&quot;y&quot;:-7.8125,&quot;w&quot;:21.703125,&quot;h&quot;:14.015625}" my_fill="rgb(0, 0, 0)" my_fill_opacity="1" my_font_size="10px" opacity="1" style="font-family: sans-serif;" content="40%">40%</text></g><g class="tick" opacity="1" transform="translate(0,242.5)"><line stroke="currentColor" x2="-6" transform_matrix="{&quot;a&quot;:1,&quot;b&quot;:0,&quot;c&quot;:0,&quot;d&quot;:1,&quot;e&quot;:44,&quot;f&quot;:880.5625}"></line><text fill="rgb(0, 0, 0)" x="-9" dy="0.32em" transform_matrix="{&quot;a&quot;:1,&quot;b&quot;:0,&quot;c&quot;:0,&quot;d&quot;:1,&quot;e&quot;:44,&quot;f&quot;:880.5625}" text_bbox="{&quot;x&quot;:-30.703125,&quot;y&quot;:-7.8125,&quot;w&quot;:21.703125,&quot;h&quot;:14.015625}" my_fill="rgb(0, 0, 0)" my_fill_opacity="1" my_font_size="10px" opacity="1" style="font-family: sans-serif;" content="50%">50%</text></g><g class="tick" opacity="1" transform="translate(0,194.9)"><line stroke="currentColor" x2="-6" transform_matrix="{&quot;a&quot;:1,&quot;b&quot;:0,&quot;c&quot;:0,&quot;d&quot;:1,&quot;e&quot;:44,&quot;f&quot;:832.9624938964844}"></line><text fill="rgb(0, 0, 0)" x="-9" dy="0.32em" transform_matrix="{&quot;a&quot;:1,&quot;b&quot;:0,&quot;c&quot;:0,&quot;d&quot;:1,&quot;e&quot;:44,&quot;f&quot;:832.9624938964844}" text_bbox="{&quot;x&quot;:-30.703125,&quot;y&quot;:-7.8125,&quot;w&quot;:21.703125,&quot;h&quot;:14.015625}" my_fill="rgb(0, 0, 0)" my_fill_opacity="1" my_font_size="10px" opacity="1" style="font-family: sans-serif;" content="60%">60%</text></g><g class="tick" opacity="1" transform="translate(0,147.30000000000004)"><line stroke="currentColor" x2="-6" transform_matrix="{&quot;a&quot;:1,&quot;b&quot;:0,&quot;c&quot;:0,&quot;d&quot;:1,&quot;e&quot;:44,&quot;f&quot;:785.3625030517578}"></line><text fill="rgb(0, 0, 0)" x="-9" dy="0.32em" transform_matrix="{&quot;a&quot;:1,&quot;b&quot;:0,&quot;c&quot;:0,&quot;d&quot;:1,&quot;e&quot;:44,&quot;f&quot;:785.3625030517578}" text_bbox="{&quot;x&quot;:-30.171875,&quot;y&quot;:-7.8125,&quot;w&quot;:21.171875,&quot;h&quot;:14.015625}" my_fill="rgb(0, 0, 0)" my_fill_opacity="1" my_font_size="10px" opacity="1" style="font-family: sans-serif;" content="70%">70%</text></g><g class="tick" opacity="1" transform="translate(0,99.69999999999997)"><line stroke="currentColor" x2="-6" transform_matrix="{&quot;a&quot;:1,&quot;b&quot;:0,&quot;c&quot;:0,&quot;d&quot;:1,&quot;e&quot;:44,&quot;f&quot;:737.7624969482422}"></line><text fill="rgb(0, 0, 0)" x="-9" dy="0.32em" transform_matrix="{&quot;a&quot;:1,&quot;b&quot;:0,&quot;c&quot;:0,&quot;d&quot;:1,&quot;e&quot;:44,&quot;f&quot;:737.7624969482422}" text_bbox="{&quot;x&quot;:-30.703125,&quot;y&quot;:-7.8125,&quot;w&quot;:21.703125,&quot;h&quot;:14.015625}" my_fill="rgb(0, 0, 0)" my_fill_opacity="1" my_font_size="10px" opacity="1" style="font-family: sans-serif;" content="80%">80%</text></g><g class="tick" opacity="1" transform="translate(0,52.09999999999999)"><line stroke="currentColor" x2="-6" transform_matrix="{&quot;a&quot;:1,&quot;b&quot;:0,&quot;c&quot;:0,&quot;d&quot;:1,&quot;e&quot;:44,&quot;f&quot;:690.1624984741211}"></line><text fill="rgb(0, 0, 0)" x="-9" dy="0.32em" transform_matrix="{&quot;a&quot;:1,&quot;b&quot;:0,&quot;c&quot;:0,&quot;d&quot;:1,&quot;e&quot;:44,&quot;f&quot;:690.1624984741211}" text_bbox="{&quot;x&quot;:-30.703125,&quot;y&quot;:-7.8125,&quot;w&quot;:21.703125,&quot;h&quot;:14.015625}" my_fill="rgb(0, 0, 0)" my_fill_opacity="1" my_font_size="10px" opacity="1" style="font-family: sans-serif;" content="90%">90%</text></g><g class="tick" opacity="1" transform="translate(0,4.5)"><line stroke="currentColor" x2="-6" transform_matrix="{&quot;a&quot;:1,&quot;b&quot;:0,&quot;c&quot;:0,&quot;d&quot;:1,&quot;e&quot;:44,&quot;f&quot;:642.5625}"></line><text fill="rgb(0, 0, 0)" x="-9" dy="0.32em" transform_matrix="{&quot;a&quot;:1,&quot;b&quot;:0,&quot;c&quot;:0,&quot;d&quot;:1,&quot;e&quot;:44,&quot;f&quot;:642.5625}" text_bbox="{&quot;x&quot;:-34.71875,&quot;y&quot;:-7.8125,&quot;w&quot;:25.71875,&quot;h&quot;:14.015625}" my_fill="rgb(0, 0, 0)" my_fill_opacity="1" my_font_size="10px" opacity="1" style="font-family: sans-serif;" content="100%">100%</text></g></g><g font-size="18" font-family="sans-serif" font-weight="500"><text text-anchor="start" fill="rgb(255, 255, 255)" font-size="28" font-weight="600" x="70" y="60" transform_matrix="{&quot;a&quot;:1,&quot;b&quot;:0,&quot;c&quot;:0,&quot;d&quot;:1,&quot;e&quot;:8,&quot;f&quot;:638.0625}" text_bbox="{&quot;x&quot;:70,&quot;y&quot;:30,&quot;w&quot;:382.828125,&quot;h&quot;:40}" my_fill="rgb(255, 255, 255)" my_fill_opacity="1" my_font_size="28px" opacity="1" style="font-family: sans-serif;" content="Top 100 Male Tennis Players">Top 100 Male Tennis Players</text><text text-anchor="start" fill="rgb(255, 255, 255)" font-size="16" font-weight="500" x="70" y="85" transform_matrix="{&quot;a&quot;:1,&quot;b&quot;:0,&quot;c&quot;:0,&quot;d&quot;:1,&quot;e&quot;:8,&quot;f&quot;:638.0625}" text_bbox="{&quot;x&quot;:70,&quot;y&quot;:68,&quot;w&quot;:93.71875,&quot;h&quot;:22}" my_fill="rgb(255, 255, 255)" my_fill_opacity="1" my_font_size="16px" opacity="1" style="font-family: sans-serif;" content="1973 – 2021">1973 – 2021</text><text text-anchor="end" fill="rgb(255, 255, 255)" x="865" y="54" transform_matrix="{&quot;a&quot;:1,&quot;b&quot;:0,&quot;c&quot;:0,&quot;d&quot;:1,&quot;e&quot;:8,&quot;f&quot;:638.0625}" text_bbox="{&quot;x&quot;:668.515625,&quot;y&quot;:35,&quot;w&quot;:196.484375,&quot;h&quot;:25}" my_fill="rgb(255, 255, 255)" my_fill_opacity="1" my_font_size="18px" opacity="1" style="font-family: sans-serif;" content="One-handed backhand">One-handed backhand</text><text text-anchor="start" x="70" y="450" transform_matrix="{&quot;a&quot;:1,&quot;b&quot;:0,&quot;c&quot;:0,&quot;d&quot;:1,&quot;e&quot;:8,&quot;f&quot;:638.0625}" text_bbox="{&quot;x&quot;:70,&quot;y&quot;:431,&quot;w&quot;:197.78125,&quot;h&quot;:25}" my_fill="rgb(0, 0, 0)" my_fill_opacity="1" my_font_size="18px" opacity="1" style="font-family: sans-serif;" fill="rgb(0, 0, 0)" content="Two-handed backhand">Two-handed backhand</text></g></svg>