<svg width="900" height="400" selected_area="124,96,592,370" xmlns="http://www.w3.org/2000/svg" viewBox="0 0 900 400" transform_matrix="{&quot;a&quot;:1,&quot;b&quot;:0,&quot;c&quot;:0,&quot;d&quot;:1,&quot;e&quot;:1054,&quot;f&quot;:559}"><g transform="translate(50,60)"><g transform="translate(0,290)" fill="none" font-size="10" font-family="sans-serif" text-anchor="middle"><path class="domain" stroke="#000" d="M0.5,6V0.5H620.5V6" transform_matrix="{&quot;a&quot;:1,&quot;b&quot;:0,&quot;c&quot;:0,&quot;d&quot;:1,&quot;e&quot;:1104,&quot;f&quot;:909}" my_stoke="rgb(0, 0, 0)" my_stoke_width="1px" my_stoke_opacity="1" my_fill="none" my_fill_opacity="1" my_font_size="10px" opacity="1" style="font-family: sans-serif;" fill="none"></path><g class="tick" opacity="1" transform="translate(0.5, 0)"><line stroke="#000" y2="6" transform_matrix="{&quot;a&quot;:1,&quot;b&quot;:0,&quot;c&quot;:0,&quot;d&quot;:1,&quot;e&quot;:1104.5,&quot;f&quot;:909}" style="stroke: rgb(0, 0, 0); opacity: 1;"></line><text fill="rgb(0, 0, 0)" y="9" dy="0.71em" transform_matrix="{&quot;a&quot;:1,&quot;b&quot;:0,&quot;c&quot;:0,&quot;d&quot;:1,&quot;e&quot;:1104.5,&quot;f&quot;:909}" text_bbox="{&quot;x&quot;:-12.328125,&quot;y&quot;:5.59375,&quot;w&quot;:24.65625,&quot;h&quot;:14.015625}" my_fill="rgb(0, 0, 0)" my_fill_opacity="1" my_font_size="10px" opacity="1" style="font-family: sans-serif; font-size: 10px;" content="1,880">1,880</text></g><g class="tick" opacity="1" transform="translate(92.35185241699219, 0)"><line stroke="#000" y2="6" transform_matrix="{&quot;a&quot;:1,&quot;b&quot;:0,&quot;c&quot;:0,&quot;d&quot;:1,&quot;e&quot;:1196.3518524169922,&quot;f&quot;:909}" style="stroke: rgb(0, 0, 0); opacity: 1;"></line><text fill="rgb(0, 0, 0)" y="9" dy="0.71em" transform_matrix="{&quot;a&quot;:1,&quot;b&quot;:0,&quot;c&quot;:0,&quot;d&quot;:1,&quot;e&quot;:1196.3518524169922,&quot;f&quot;:909}" text_bbox="{&quot;x&quot;:-12.328125,&quot;y&quot;:5.59375,&quot;w&quot;:24.65625,&quot;h&quot;:14.015625}" my_fill="rgb(0, 0, 0)" my_fill_opacity="1" my_font_size="10px" opacity="1" style="font-family: sans-serif; font-size: 10px;" content="1,900">1,900</text></g><g class="tick" opacity="1" transform="translate(184.20370483398438, 0)"><line stroke="#000" y2="6" transform_matrix="{&quot;a&quot;:1,&quot;b&quot;:0,&quot;c&quot;:0,&quot;d&quot;:1,&quot;e&quot;:1288.2037048339844,&quot;f&quot;:909}" style="stroke: rgb(0, 0, 0); opacity: 1;"></line><text fill="rgb(0, 0, 0)" y="9" dy="0.71em" transform_matrix="{&quot;a&quot;:1,&quot;b&quot;:0,&quot;c&quot;:0,&quot;d&quot;:1,&quot;e&quot;:1288.2037048339844,&quot;f&quot;:909}" text_bbox="{&quot;x&quot;:-12.328125,&quot;y&quot;:5.59375,&quot;w&quot;:24.65625,&quot;h&quot;:14.015625}" my_fill="rgb(0, 0, 0)" my_fill_opacity="1" my_font_size="10px" opacity="1" style="font-family: sans-serif; font-size: 10px;" content="1,920">1,920</text></g><g class="tick" opacity="1" transform="translate(276.0555419921875, 0)"><line stroke="#000" y2="6" transform_matrix="{&quot;a&quot;:1,&quot;b&quot;:0,&quot;c&quot;:0,&quot;d&quot;:1,&quot;e&quot;:1380.0555419921875,&quot;f&quot;:909}" style="stroke: rgb(0, 0, 0); opacity: 1;"></line><text fill="rgb(0, 0, 0)" y="9" dy="0.71em" transform_matrix="{&quot;a&quot;:1,&quot;b&quot;:0,&quot;c&quot;:0,&quot;d&quot;:1,&quot;e&quot;:1380.0555419921875,&quot;f&quot;:909}" text_bbox="{&quot;x&quot;:-12.328125,&quot;y&quot;:5.59375,&quot;w&quot;:24.65625,&quot;h&quot;:14.015625}" my_fill="rgb(0, 0, 0)" my_fill_opacity="1" my_font_size="10px" opacity="1" style="font-family: sans-serif; font-size: 10px;" content="1,940">1,940</text></g><g class="tick" opacity="1" transform="translate(367.90740966796875, 0)"><line stroke="#000" y2="6" transform_matrix="{&quot;a&quot;:1,&quot;b&quot;:0,&quot;c&quot;:0,&quot;d&quot;:1,&quot;e&quot;:1471.9074096679688,&quot;f&quot;:909}" style="stroke: rgb(0, 0, 0); opacity: 1;"></line><text fill="rgb(0, 0, 0)" y="9" dy="0.71em" transform_matrix="{&quot;a&quot;:1,&quot;b&quot;:0,&quot;c&quot;:0,&quot;d&quot;:1,&quot;e&quot;:1471.9074096679688,&quot;f&quot;:909}" text_bbox="{&quot;x&quot;:-12.328125,&quot;y&quot;:5.59375,&quot;w&quot;:24.65625,&quot;h&quot;:14.015625}" my_fill="rgb(0, 0, 0)" my_fill_opacity="1" my_font_size="10px" opacity="1" style="font-family: sans-serif; font-size: 10px;" content="1,960">1,960</text></g><g class="tick" opacity="1" transform="translate(459.7592468261719, 0)"><line stroke="#000" y2="6" transform_matrix="{&quot;a&quot;:1,&quot;b&quot;:0,&quot;c&quot;:0,&quot;d&quot;:1,&quot;e&quot;:1563.7592468261719,&quot;f&quot;:909}" style="stroke: rgb(0, 0, 0); opacity: 1;"></line><text fill="rgb(0, 0, 0)" y="9" dy="0.71em" transform_matrix="{&quot;a&quot;:1,&quot;b&quot;:0,&quot;c&quot;:0,&quot;d&quot;:1,&quot;e&quot;:1563.7592468261719,&quot;f&quot;:909}" text_bbox="{&quot;x&quot;:-12.328125,&quot;y&quot;:5.59375,&quot;w&quot;:24.65625,&quot;h&quot;:14.015625}" my_fill="rgb(0, 0, 0)" my_fill_opacity="1" my_font_size="10px" opacity="1" style="font-family: sans-serif; font-size: 10px;" content="1,980">1,980</text></g><g class="tick" opacity="1" transform="translate(551.611083984375, 0)"><line stroke="#000" y2="6" transform_matrix="{&quot;a&quot;:1,&quot;b&quot;:0,&quot;c&quot;:0,&quot;d&quot;:1,&quot;e&quot;:1655.611083984375,&quot;f&quot;:909}" style="stroke: rgb(0, 0, 0); opacity: 1;"></line><text fill="rgb(0, 0, 0)" y="9" dy="0.71em" transform_matrix="{&quot;a&quot;:1,&quot;b&quot;:0,&quot;c&quot;:0,&quot;d&quot;:1,&quot;e&quot;:1655.611083984375,&quot;f&quot;:909}" text_bbox="{&quot;x&quot;:-13.328125,&quot;y&quot;:5.59375,&quot;w&quot;:26.65625,&quot;h&quot;:14.015625}" my_fill="rgb(0, 0, 0)" my_fill_opacity="1" my_font_size="10px" opacity="1" style="font-family: sans-serif; font-size: 10px;" content="2,000">2,000</text></g></g><text text-anchor="end" x="620" y="330" transform_matrix="{&quot;a&quot;:1,&quot;b&quot;:0,&quot;c&quot;:0,&quot;d&quot;:1,&quot;e&quot;:1104,&quot;f&quot;:619}" text_bbox="{&quot;x&quot;:533.65625,&quot;y&quot;:313,&quot;w&quot;:86.34375,&quot;h&quot;:21.5}" my_fill="rgb(0, 0, 0)" my_fill_opacity="1" my_font_size="16px" opacity="1" style="font-family: &quot;Roboto Slab&quot;, &quot;Helvetica Neue&quot;, Helvetica, Arial, sans-serif; font-size: 16px;" fill="rgb(0, 0, 0)" content="Time (year)">Time (year)</text><text text-anchor="start" x="0" y="-20" transform_matrix="{&quot;a&quot;:1,&quot;b&quot;:0,&quot;c&quot;:0,&quot;d&quot;:1,&quot;e&quot;:1104,&quot;f&quot;:619}" text_bbox="{&quot;x&quot;:0,&quot;y&quot;:-37,&quot;w&quot;:107.203125,&quot;h&quot;:21.5}" my_fill="rgb(0, 0, 0)" my_fill_opacity="1" my_font_size="16px" opacity="1" style="font-family: &quot;Roboto Slab&quot;, &quot;Helvetica Neue&quot;, Helvetica, Arial, sans-serif; font-size: 16px;" fill="rgb(0, 0, 0)" content="# of baby born"># of baby born</text><g fill="none" font-size="10" font-family="sans-serif" text-anchor="end"><path class="domain" stroke="#000" d="M-6,290.5H0.5V0.5H-6" transform_matrix="{&quot;a&quot;:1,&quot;b&quot;:0,&quot;c&quot;:0,&quot;d&quot;:1,&quot;e&quot;:1104,&quot;f&quot;:619}" my_stoke="rgb(0, 0, 0)" my_stoke_width="1px" my_stoke_opacity="1" my_fill="none" my_fill_opacity="1" my_font_size="10px" opacity="1" style="font-family: sans-serif;" fill="none"></path><g class="tick" opacity="1" transform="translate(0,290.5)"><line stroke="#000" x2="-6" transform_matrix="{&quot;a&quot;:1,&quot;b&quot;:0,&quot;c&quot;:0,&quot;d&quot;:1,&quot;e&quot;:1104,&quot;f&quot;:909.5}" style="stroke: rgb(0, 0, 0); opacity: 1;"></line><text fill="rgb(0, 0, 0)" x="-9" dy="0.32em" transform_matrix="{&quot;a&quot;:1,&quot;b&quot;:0,&quot;c&quot;:0,&quot;d&quot;:1,&quot;e&quot;:1104,&quot;f&quot;:909.5}" text_bbox="{&quot;x&quot;:-15,&quot;y&quot;:-7.3125,&quot;w&quot;:6,&quot;h&quot;:14.015625}" my_fill="rgb(0, 0, 0)" my_fill_opacity="1" my_font_size="10px" opacity="1" style="font-family: sans-serif; font-size: 10px;" content="0">0</text></g><g class="tick" opacity="1" transform="translate(0,218)"><line stroke="#000" x2="-6" transform_matrix="{&quot;a&quot;:1,&quot;b&quot;:0,&quot;c&quot;:0,&quot;d&quot;:1,&quot;e&quot;:1104,&quot;f&quot;:837}" style="stroke: rgb(0, 0, 0); opacity: 1;"></line><text fill="rgb(0, 0, 0)" x="-9" dy="0.32em" transform_matrix="{&quot;a&quot;:1,&quot;b&quot;:0,&quot;c&quot;:0,&quot;d&quot;:1,&quot;e&quot;:1104,&quot;f&quot;:837}" text_bbox="{&quot;x&quot;:-41.640625,&quot;y&quot;:-7.3125,&quot;w&quot;:32.640625,&quot;h&quot;:14.015625}" my_fill="rgb(0, 0, 0)" my_fill_opacity="1" my_font_size="10px" opacity="1" style="font-family: sans-serif; font-size: 10px;" content="50,000">50,000</text></g><g class="tick" opacity="1" transform="translate(0,145.5)"><line stroke="#000" x2="-6" transform_matrix="{&quot;a&quot;:1,&quot;b&quot;:0,&quot;c&quot;:0,&quot;d&quot;:1,&quot;e&quot;:1104,&quot;f&quot;:764.5}" style="stroke: rgb(0, 0, 0); opacity: 1;"></line><text fill="rgb(0, 0, 0)" x="-9" dy="0.32em" transform_matrix="{&quot;a&quot;:1,&quot;b&quot;:0,&quot;c&quot;:0,&quot;d&quot;:1,&quot;e&quot;:1104,&quot;f&quot;:764.5}" text_bbox="{&quot;x&quot;:-45.65625,&quot;y&quot;:-7.3125,&quot;w&quot;:36.65625,&quot;h&quot;:14.015625}" my_fill="rgb(0, 0, 0)" my_fill_opacity="1" my_font_size="10px" opacity="1" style="font-family: sans-serif; font-size: 10px;" content="100,000">100,000</text></g><g class="tick" opacity="1" transform="translate(0,73)"><line stroke="#000" x2="-6" transform_matrix="{&quot;a&quot;:1,&quot;b&quot;:0,&quot;c&quot;:0,&quot;d&quot;:1,&quot;e&quot;:1104,&quot;f&quot;:692}" style="stroke: rgb(0, 0, 0); opacity: 1;"></line><text fill="rgb(0, 0, 0)" x="-9" dy="0.32em" transform_matrix="{&quot;a&quot;:1,&quot;b&quot;:0,&quot;c&quot;:0,&quot;d&quot;:1,&quot;e&quot;:1104,&quot;f&quot;:692}" text_bbox="{&quot;x&quot;:-45.65625,&quot;y&quot;:-7.3125,&quot;w&quot;:36.65625,&quot;h&quot;:14.015625}" my_fill="rgb(0, 0, 0)" my_fill_opacity="1" my_font_size="10px" opacity="1" style="font-family: sans-serif; font-size: 10px;" content="150,000">150,000</text></g><g class="tick" opacity="1" transform="translate(0,0.5)"><line stroke="#000" x2="-6" transform_matrix="{&quot;a&quot;:1,&quot;b&quot;:0,&quot;c&quot;:0,&quot;d&quot;:1,&quot;e&quot;:1104,&quot;f&quot;:619.5}" style="stroke: rgb(0, 0, 0); opacity: 1;"></line><text fill="rgb(0, 0, 0)" x="-9" dy="0.32em" transform_matrix="{&quot;a&quot;:1,&quot;b&quot;:0,&quot;c&quot;:0,&quot;d&quot;:1,&quot;e&quot;:1104,&quot;f&quot;:619.5}" text_bbox="{&quot;x&quot;:-47.640625,&quot;y&quot;:-7.3125,&quot;w&quot;:38.640625,&quot;h&quot;:14.015625}" my_fill="rgb(0, 0, 0)" my_fill_opacity="1" my_font_size="10px" opacity="1" style="font-family: sans-serif; font-size: 10px;" content="200,000">200,000</text></g></g><defs></defs><g clip-path="url(#clip)"><path class="myArea Amanda" d="M0,289.65055L4.592592592592593,289.61865L9.185185185185185,289.5824L13.777777777777779,289.58385L18.37037037037037,289.51135L22.962962962962962,289.50845L27.555555555555557,289.4635L32.148148148148145,289.5099L36.74074074074074,289.4142L41.333333333333336,289.40115L45.925925925925924,289.4316L50.51851851851852,289.46205L55.111111111111114,289.34025L59.7037037037037,289.43885L64.29629629629629,289.3939L68.88888888888889,289.37505L73.48148148148148,289.46785L78.07407407407406,289.4867L82.66666666666667,289.46205L87.25925925925927,289.5273L91.85185185185185,289.45335L96.44444444444444,289.54035L101.03703703703704,289.56355L105.62962962962963,289.64185L110.22222222222223,289.5737L114.81481481481481,289.54905L119.4074074074074,289.623L124,289.58675L128.59259259259258,289.623L133.1851851851852,289.60705L137.77777777777777,289.5969L142.37037037037038,289.594L146.96296296296296,289.5505L151.55555555555554,289.4983L156.14814814814812,289.45625L160.74074074074073,289.4026L165.33333333333334,289.38955L169.92592592592592,289.35475L174.51851851851853,289.42435L179.1111111111111,289.45045L183.7037037037037,289.45045L188.2962962962963,289.4316L192.88888888888889,289.50555L197.4814814814815,289.4751L202.07407407407408,289.50555L206.66666666666666,289.5505L211.25925925925927,289.5505L215.85185185185185,289.6607L220.44444444444446,289.64185L225.03703703703704,289.69695L229.62962962962962,289.7158L234.22222222222223,289.69695L238.8148148148148,289.69115L243.40740740740742,289.71145L248,289.72595L252.59259259259258,289.69405L257.18518518518516,289.7216L261.77777777777777,289.7448L266.3703703703704,289.7216L270.962962962963,289.73175L275.55555555555554,289.6839L280.14814814814815,289.67665L284.74074074074076,289.57225L289.3333333333333,289.5882L293.9259259259259,289.6549L298.5185185185185,289.594L303.1111111111111,289.6027L307.7037037037037,289.5505L312.29629629629625,289.5563L316.88888888888886,289.51715L321.48148148148147,289.45045L326.0740740740741,289.40695L330.6666666666667,289.3939L335.25925925925924,289.3794L339.85185185185185,289.3794L344.44444444444446,289.3446L349.03703703703707,289.06765L353.6296296296297,289.03285L358.2222222222222,288.8458L362.8148148148148,288.7559L367.4074074074074,288.58335L372,288.46735L376.5925925925926,288.6254L381.18518518518516,288.49925L385.77777777777777,288.15125L390.3703703703704,287.6075L394.962962962963,286.62295L399.5555555555556,286.13865L404.14814814814815,286.4765L408.7407407407407,285.91535L413.3333333333333,284.8525L417.9259259259259,284.00715L422.51851851851853,283.93755L427.1111111111111,281.84085L431.7037037037037,279.1598L436.2962962962963,271.65315L440.8888888888889,267.39305L445.4814814814815,263.494L450.0740740740741,260.2431L454.66666666666663,243.70585L459.25925925925924,238.06245L463.85185185185185,240.15915L468.44444444444446,240.3955L473.037037037037,241.0567L477.6296296296296,240.8363L482.22222222222223,233.3775L486.81481481481484,231.2431L491.40740740740745,229.4103L496,232.79604999999998L500.5925925925926,236.60085L505.18518518518516,240.11275L509.77777777777777,248.11385L514.3703703703703,253.70069999999998L518.9629629629629,259.82695L523.5555555555555,262.86325L528.1481481481482,266.29975L532.7407407407408,269.73915L537.3333333333334,272.25345L541.925925925926,274.1834L546.5185185185186,275.87555L551.1111111111111,277.6025L555.7037037037037,279.90365L560.2962962962963,281.1086L564.8888888888889,282.25845L569.4814814814815,283.21835L574.0740740740741,284.0724L578.6666666666666,285.13525L583.2592592592592,285.5949L587.8518518518518,286.46345L592.4444444444445,287.1696L597.037037037037,287.60025L601.6296296296296,287.95695L606.2222222222222,288.2194L610.8148148148148,288.4572L615.4074074074074,288.4804L620,288.53115L620,290L615.4074074074074,290L610.8148148148148,290L606.2222222222222,290L601.6296296296296,290L597.037037037037,290L592.4444444444445,290L587.8518518518518,290L583.2592592592592,290L578.6666666666666,290L574.0740740740741,290L569.4814814814815,290L564.8888888888889,290L560.2962962962963,290L555.7037037037037,290L551.1111111111111,290L546.5185185185186,290L541.925925925926,290L537.3333333333334,290L532.7407407407408,290L528.1481481481482,290L523.5555555555555,290L518.9629629629629,290L514.3703703703703,290L509.77777777777777,290L505.18518518518516,290L500.5925925925926,290L496,290L491.40740740740745,290L486.81481481481484,290L482.22222222222223,290L477.6296296296296,290L473.037037037037,290L468.44444444444446,290L463.85185185185185,290L459.25925925925924,290L454.66666666666663,290L450.0740740740741,290L445.4814814814815,290L440.8888888888889,290L436.2962962962963,290L431.7037037037037,290L427.1111111111111,290L422.51851851851853,290L417.9259259259259,290L413.3333333333333,290L408.7407407407407,290L404.14814814814815,290L399.5555555555556,290L394.962962962963,290L390.3703703703704,290L385.77777777777777,290L381.18518518518516,290L376.5925925925926,290L372,290L367.4074074074074,290L362.8148148148148,290L358.2222222222222,290L353.6296296296297,290L349.03703703703707,290L344.44444444444446,290L339.85185185185185,290L335.25925925925924,290L330.6666666666667,290L326.0740740740741,290L321.48148148148147,290L316.88888888888886,290L312.29629629629625,290L307.7037037037037,290L303.1111111111111,290L298.5185185185185,290L293.9259259259259,290L289.3333333333333,290L284.74074074074076,290L280.14814814814815,290L275.55555555555554,290L270.962962962963,290L266.3703703703704,290L261.77777777777777,290L257.18518518518516,290L252.59259259259258,290L248,290L243.40740740740742,290L238.8148148148148,290L234.22222222222223,290L229.62962962962962,290L225.03703703703704,290L220.44444444444446,290L215.85185185185185,290L211.25925925925927,290L206.66666666666666,290L202.07407407407408,290L197.4814814814815,290L192.88888888888889,290L188.2962962962963,290L183.7037037037037,290L179.1111111111111,290L174.51851851851853,290L169.92592592592592,290L165.33333333333334,290L160.74074074074073,290L156.14814814814812,290L151.55555555555554,290L146.96296296296296,290L142.37037037037038,290L137.77777777777777,290L133.1851851851852,290L128.59259259259258,290L124,290L119.4074074074074,290L114.81481481481481,290L110.22222222222223,290L105.62962962962963,290L101.03703703703704,290L96.44444444444444,290L91.85185185185185,290L87.25925925925927,290L82.66666666666667,290L78.07407407407406,290L73.48148148148148,290L68.88888888888889,290L64.29629629629629,290L59.7037037037037,290L55.111111111111114,290L50.51851851851852,290L45.925925925925924,290L41.333333333333336,290L36.74074074074074,290L32.148148148148145,290L27.555555555555557,290L22.962962962962962,290L18.37037037037037,290L13.777777777777779,290L9.185185185185185,290L4.592592592592593,290L0,290Z" style="fill: rgb(102, 194, 165); font-family: &quot;Roboto Slab&quot;, &quot;Helvetica Neue&quot;, Helvetica, Arial, sans-serif;" transform_matrix="{&quot;a&quot;:1,&quot;b&quot;:0,&quot;c&quot;:0,&quot;d&quot;:1,&quot;e&quot;:1104,&quot;f&quot;:619}" my_stoke="none" my_stoke_width="1px" my_stoke_opacity="1" my_fill="rgb(102, 194, 165)" my_fill_opacity="1" my_font_size="16px" opacity="1" fill="rgb(102, 194, 165)"></path><path class="myArea Ashley" d="M0,289.65055L4.592592592592593,289.61865L9.185185185185185,289.5824L13.777777777777779,289.58385L18.37037037037037,289.51135L22.962962962962962,289.50845L27.555555555555557,289.4635L32.148148148148145,289.5099L36.74074074074074,289.4142L41.333333333333336,289.40115L45.925925925925924,289.4316L50.51851851851852,289.46205L55.111111111111114,289.34025L59.7037037037037,289.43885L64.29629629629629,289.3939L68.88888888888889,289.37505L73.48148148148148,289.46785L78.07407407407406,289.4867L82.66666666666667,289.46205L87.25925925925927,289.5273L91.85185185185185,289.45335L96.44444444444444,289.54035L101.03703703703704,289.56355L105.62962962962963,289.64185L110.22222222222223,289.5737L114.81481481481481,289.54905L119.4074074074074,289.623L124,289.58675L128.59259259259258,289.623L133.1851851851852,289.60705L137.77777777777777,289.5969L142.37037037037038,289.594L146.96296296296296,289.5505L151.55555555555554,289.4983L156.14814814814812,289.45625L160.74074074074073,289.4026L165.33333333333334,289.38955L169.92592592592592,289.3475L174.51851851851853,289.42435L179.1111111111111,289.45045L183.7037037037037,289.45045L188.2962962962963,289.4316L192.88888888888889,289.50555L197.4814814814815,289.4751L202.07407407407408,289.50555L206.66666666666666,289.5505L211.25925925925927,289.5505L215.85185185185185,289.6607L220.44444444444446,289.64185L225.03703703703704,289.69695L229.62962962962962,289.7158L234.22222222222223,289.69695L238.8148148148148,289.69115L243.40740740740742,289.71145L248,289.72595L252.59259259259258,289.69405L257.18518518518516,289.7216L261.77777777777777,289.7448L266.3703703703704,289.71145L270.962962962963,289.73175L275.55555555555554,289.6839L280.14814814814815,289.66795L284.74074074074076,289.56065L289.3333333333333,289.5737L293.9259259259259,289.6375L298.5185185185185,289.5795L303.1111111111111,289.59255L307.7037037037037,289.53455L312.29629629629625,289.53745L316.88888888888886,289.5012L321.48148148148147,289.4287L326.0740740740741,289.3852L330.6666666666667,289.3591L335.25925925925924,289.35765L339.85185185185185,289.34895L344.44444444444446,289.333L349.03703703703707,289.0314L353.6296296296297,288.9937L358.2222222222222,288.7907L362.8148148148148,288.70225L367.4074074074074,288.5007L372,288.35135L376.5925925925926,288.48765L381.18518518518516,288.34265L385.77777777777777,287.89025L390.3703703703704,287.2914L394.962962962963,286.2416L399.5555555555556,285.57895L404.14814814814815,285.6877L408.7407407407407,284.983L413.3333333333333,283.5011L417.9259259259259,282.31935L422.51851851851853,282.23235L427.1111111111111,280.024L431.7037037037037,276.8021L436.2962962962963,268.77055L440.8888888888889,264.06965L445.4814814814815,259.5703L450.0740740740741,255.1913L454.66666666666663,237.25335L459.25925925925924,227.48325L463.85185185185185,227.2875L468.44444444444446,218.86155000000002L473.037037037037,192.7862L477.6296296296296,184.63575L482.22222222222223,165.21735L486.81481481481484,159.2158L491.40740740740745,149.88505L496,160.34969999999998L500.5925925925926,167.6026L505.18518518518516,174.0609L509.77777777777777,185.06495L514.3703703703703,197.9453L518.9629629629629,209.29879999999997L523.5555555555555,218.96015L528.1481481481482,227.7254L532.7407407407408,235.40895L537.3333333333334,241.95569999999998L541.925925925926,245.37045L546.5185185185186,249.58415L551.1111111111111,251.50685L555.7037037037037,255.94385L560.2962962962963,258.86705L564.8888888888889,261.21605L569.4814814814815,262.38185L574.0740740740741,264.8309L578.6666666666666,267.24225L583.2592592592592,269.03155L587.8518518518518,272.83055L592.4444444444445,275.84365L597.037037037037,278.45655L601.6296296296296,280.12985L606.2222222222222,281.4102L610.8148148148148,282.75L615.4074074074074,283.33725L620,283.5881L620,288.53115L615.4074074074074,288.4804L610.8148148148148,288.4572L606.2222222222222,288.2194L601.6296296296296,287.95695L597.037037037037,287.60025L592.4444444444445,287.1696L587.8518518518518,286.46345L583.2592592592592,285.5949L578.6666666666666,285.13525L574.0740740740741,284.0724L569.4814814814815,283.21835L564.8888888888889,282.25845L560.2962962962963,281.1086L555.7037037037037,279.90365L551.1111111111111,277.6025L546.5185185185186,275.87555L541.925925925926,274.1834L537.3333333333334,272.25345L532.7407407407408,269.73915L528.1481481481482,266.29975L523.5555555555555,262.86325L518.9629629629629,259.82695L514.3703703703703,253.70069999999998L509.77777777777777,248.11385L505.18518518518516,240.11275L500.5925925925926,236.60085L496,232.79604999999998L491.40740740740745,229.4103L486.81481481481484,231.2431L482.22222222222223,233.3775L477.6296296296296,240.8363L473.037037037037,241.0567L468.44444444444446,240.3955L463.85185185185185,240.15915L459.25925925925924,238.06245L454.66666666666663,243.70585L450.0740740740741,260.2431L445.4814814814815,263.494L440.8888888888889,267.39305L436.2962962962963,271.65315L431.7037037037037,279.1598L427.1111111111111,281.84085L422.51851851851853,283.93755L417.9259259259259,284.00715L413.3333333333333,284.8525L408.7407407407407,285.91535L404.14814814814815,286.4765L399.5555555555556,286.13865L394.962962962963,286.62295L390.3703703703704,287.6075L385.77777777777777,288.15125L381.18518518518516,288.49925L376.5925925925926,288.6254L372,288.46735L367.4074074074074,288.58335L362.8148148148148,288.7559L358.2222222222222,288.8458L353.6296296296297,289.03285L349.03703703703707,289.06765L344.44444444444446,289.3446L339.85185185185185,289.3794L335.25925925925924,289.3794L330.6666666666667,289.3939L326.0740740740741,289.40695L321.48148148148147,289.45045L316.88888888888886,289.51715L312.29629629629625,289.5563L307.7037037037037,289.5505L303.1111111111111,289.6027L298.5185185185185,289.594L293.9259259259259,289.6549L289.3333333333333,289.5882L284.74074074074076,289.57225L280.14814814814815,289.67665L275.55555555555554,289.6839L270.962962962963,289.73175L266.3703703703704,289.7216L261.77777777777777,289.7448L257.18518518518516,289.7216L252.59259259259258,289.69405L248,289.72595L243.40740740740742,289.71145L238.8148148148148,289.69115L234.22222222222223,289.69695L229.62962962962962,289.7158L225.03703703703704,289.69695L220.44444444444446,289.64185L215.85185185185185,289.6607L211.25925925925927,289.5505L206.66666666666666,289.5505L202.07407407407408,289.50555L197.4814814814815,289.4751L192.88888888888889,289.50555L188.2962962962963,289.4316L183.7037037037037,289.45045L179.1111111111111,289.45045L174.51851851851853,289.42435L169.92592592592592,289.35475L165.33333333333334,289.38955L160.74074074074073,289.4026L156.14814814814812,289.45625L151.55555555555554,289.4983L146.96296296296296,289.5505L142.37037037037038,289.594L137.77777777777777,289.5969L133.1851851851852,289.60705L128.59259259259258,289.623L124,289.58675L119.4074074074074,289.623L114.81481481481481,289.54905L110.22222222222223,289.5737L105.62962962962963,289.64185L101.03703703703704,289.56355L96.44444444444444,289.54035L91.85185185185185,289.45335L87.25925925925927,289.5273L82.66666666666667,289.46205L78.07407407407406,289.4867L73.48148148148148,289.46785L68.88888888888889,289.37505L64.29629629629629,289.3939L59.7037037037037,289.43885L55.111111111111114,289.34025L50.51851851851852,289.46205L45.925925925925924,289.4316L41.333333333333336,289.40115L36.74074074074074,289.4142L32.148148148148145,289.5099L27.555555555555557,289.4635L22.962962962962962,289.50845L18.37037037037037,289.51135L13.777777777777779,289.58385L9.185185185185185,289.5824L4.592592592592593,289.61865L0,289.65055Z" style="fill: rgb(252, 141, 98); font-family: &quot;Roboto Slab&quot;, &quot;Helvetica Neue&quot;, Helvetica, Arial, sans-serif;" transform_matrix="{&quot;a&quot;:1,&quot;b&quot;:0,&quot;c&quot;:0,&quot;d&quot;:1,&quot;e&quot;:1104,&quot;f&quot;:619}" my_stoke="none" my_stoke_width="1px" my_stoke_opacity="1" my_fill="rgb(252, 141, 98)" my_fill_opacity="1" my_font_size="16px" opacity="1" fill="rgb(252, 141, 98)"></path><path class="myArea Betty" d="M0,289.4809L4.592592592592593,289.45625L9.185185185185185,289.40405L13.777777777777779,289.40985L18.37037037037037,289.30255L22.962962962962962,289.2837L27.555555555555557,289.22135L32.148148148148145,289.2518L36.74074074074074,289.1039L41.333333333333336,289.1271L45.925925925925924,289.1184L50.51851851851852,289.1155L55.111111111111114,288.9705L59.7037037037037,289.00675L64.29629629629629,288.9618L68.88888888888889,288.86755L73.48148148148148,288.97195L78.07407407407406,288.95455L82.66666666666667,288.8516L87.25925925925927,288.9328L91.85185185185185,288.49055L96.44444444444444,288.85305L101.03703703703704,288.72255L105.62962962962963,288.77765L110.22222222222223,288.54855L114.81481481481481,288.3789L119.4074074074074,288.36875L124,288.11065L128.59259259259258,287.9874L133.1851851851852,288.03815L137.77777777777777,287.58285L142.37037037037038,287.4828L146.96296296296296,286.63455L151.55555555555554,286.25175L156.14814814814812,285.2034L160.74074074074073,283.3387L165.33333333333334,281.94235L169.92592592592592,279.72095L174.51851851851853,276.66145L179.1111111111111,274.7953L183.7037037037037,269.1258L188.2962962962963,263.85795L192.88888888888889,259.2107L197.4814814814815,251.7896L202.07407407407408,245.13265L206.66666666666666,241.96585L211.25925925925927,241.75995L215.85185185185185,238.2988L220.44444444444446,237.32875L225.03703703703704,236.5269L229.62962962962962,234.26925L234.22222222222223,237.34905L238.8148148148148,239.7952L243.40740740740742,243.99875L248,244.66285L252.59259259259258,248.1182L257.18518518518516,252.22025L261.77777777777777,253.0192L266.3703703703704,252.73355L270.962962962963,255.4552L275.55555555555554,257.6766L280.14814814814815,259.36295L284.74074074074076,258.16235L289.3333333333333,258.26095L293.9259259259259,260.98985L298.5185185185185,262.92415L303.1111111111111,261.00725L307.7037037037037,262.03965L312.29629629629625,265.43555L316.88888888888886,267.8295L321.48148148148147,269.6884L326.0740740740741,270.7962L330.6666666666667,271.77785L335.25925925925924,272.8755L339.85185185185185,273.9572L344.44444444444446,274.9374L349.03703703703707,275.67255L353.6296296296297,276.7064L358.2222222222222,277.61265L362.8148148148148,278.0926L367.4074074074074,279.07135L372,280.26035L376.5925925925926,281.5784L381.18518518518516,282.31935L385.77777777777777,281.9931L390.3703703703704,282.12215L394.962962962963,281.967L399.5555555555556,281.8916L404.14814814814815,282.5934L408.7407407407407,281.89015L413.3333333333333,280.64895L417.9259259259259,279.763L422.51851851851853,280.25165L427.1111111111111,278.10565L431.7037037037037,275.1636L436.2962962962963,267.2901L440.8888888888889,262.75305000000003L445.4814814814815,258.40015L450.0740740740741,254.15455L454.66666666666663,236.2224L459.25925925925924,226.52915000000002L463.85185185185185,226.3276L468.44444444444446,217.9408L473.037037037037,191.96985L477.6296296296296,183.90640000000002L482.22222222222223,164.48945L486.81481481481484,158.62565L491.40740740740745,149.2543L496,159.77695L500.5925925925926,167.02405L505.18518518518516,173.4722L509.77777777777777,184.56470000000002L514.3703703703703,197.5161L518.9629629629629,208.8754L523.5555555555555,218.5614L528.1481481481482,227.3861L532.7407407407408,235.0943L537.3333333333334,241.68165L541.925925925926,245.08915L546.5185185185186,249.32025L551.1111111111111,251.25455L555.7037037037037,255.722L560.2962962962963,258.6829L564.8888888888889,261.01015L569.4814814814815,262.18465L574.0740740740741,264.6395L578.6666666666666,267.0465L583.2592592592592,268.83725L587.8518518518518,272.6319L592.4444444444445,275.62905L597.037037037037,278.26515L601.6296296296296,279.8877L606.2222222222222,281.2072L610.8148148148148,282.4977L615.4074074074074,283.0574L620,283.3184L620,283.5881L615.4074074074074,283.33725L610.8148148148148,282.75L606.2222222222222,281.4102L601.6296296296296,280.12985L597.037037037037,278.45655L592.4444444444445,275.84365L587.8518518518518,272.83055L583.2592592592592,269.03155L578.6666666666666,267.24225L574.0740740740741,264.8309L569.4814814814815,262.38185L564.8888888888889,261.21605L560.2962962962963,258.86705L555.7037037037037,255.94385L551.1111111111111,251.50685L546.5185185185186,249.58415L541.925925925926,245.37045L537.3333333333334,241.95569999999998L532.7407407407408,235.40895L528.1481481481482,227.7254L523.5555555555555,218.96015L518.9629629629629,209.29879999999997L514.3703703703703,197.9453L509.77777777777777,185.06495L505.18518518518516,174.0609L500.5925925925926,167.6026L496,160.34969999999998L491.40740740740745,149.88505L486.81481481481484,159.2158L482.22222222222223,165.21735L477.6296296296296,184.63575L473.037037037037,192.7862L468.44444444444446,218.86155000000002L463.85185185185185,227.2875L459.25925925925924,227.48325L454.66666666666663,237.25335L450.0740740740741,255.1913L445.4814814814815,259.5703L440.8888888888889,264.06965L436.2962962962963,268.77055L431.7037037037037,276.8021L427.1111111111111,280.024L422.51851851851853,282.23235L417.9259259259259,282.31935L413.3333333333333,283.5011L408.7407407407407,284.983L404.14814814814815,285.6877L399.5555555555556,285.57895L394.962962962963,286.2416L390.3703703703704,287.2914L385.77777777777777,287.89025L381.18518518518516,288.34265L376.5925925925926,288.48765L372,288.35135L367.4074074074074,288.5007L362.8148148148148,288.70225L358.2222222222222,288.7907L353.6296296296297,288.9937L349.03703703703707,289.0314L344.44444444444446,289.333L339.85185185185185,289.34895L335.25925925925924,289.35765L330.6666666666667,289.3591L326.0740740740741,289.3852L321.48148148148147,289.4287L316.88888888888886,289.5012L312.29629629629625,289.53745L307.7037037037037,289.53455L303.1111111111111,289.59255L298.5185185185185,289.5795L293.9259259259259,289.6375L289.3333333333333,289.5737L284.74074074074076,289.56065L280.14814814814815,289.66795L275.55555555555554,289.6839L270.962962962963,289.73175L266.3703703703704,289.71145L261.77777777777777,289.7448L257.18518518518516,289.7216L252.59259259259258,289.69405L248,289.72595L243.40740740740742,289.71145L238.8148148148148,289.69115L234.22222222222223,289.69695L229.62962962962962,289.7158L225.03703703703704,289.69695L220.44444444444446,289.64185L215.85185185185185,289.6607L211.25925925925927,289.5505L206.66666666666666,289.5505L202.07407407407408,289.50555L197.4814814814815,289.4751L192.88888888888889,289.50555L188.2962962962963,289.4316L183.7037037037037,289.45045L179.1111111111111,289.45045L174.51851851851853,289.42435L169.92592592592592,289.3475L165.33333333333334,289.38955L160.74074074074073,289.4026L156.14814814814812,289.45625L151.55555555555554,289.4983L146.96296296296296,289.5505L142.37037037037038,289.594L137.77777777777777,289.5969L133.1851851851852,289.60705L128.59259259259258,289.623L124,289.58675L119.4074074074074,289.623L114.81481481481481,289.54905L110.22222222222223,289.5737L105.62962962962963,289.64185L101.03703703703704,289.56355L96.44444444444444,289.54035L91.85185185185185,289.45335L87.25925925925927,289.5273L82.66666666666667,289.46205L78.07407407407406,289.4867L73.48148148148148,289.46785L68.88888888888889,289.37505L64.29629629629629,289.3939L59.7037037037037,289.43885L55.111111111111114,289.34025L50.51851851851852,289.46205L45.925925925925924,289.4316L41.333333333333336,289.40115L36.74074074074074,289.4142L32.148148148148145,289.5099L27.555555555555557,289.4635L22.962962962962962,289.50845L18.37037037037037,289.51135L13.777777777777779,289.58385L9.185185185185185,289.5824L4.592592592592593,289.61865L0,289.65055Z" style="fill: rgb(141, 160, 203); font-family: &quot;Roboto Slab&quot;, &quot;Helvetica Neue&quot;, Helvetica, Arial, sans-serif;" transform_matrix="{&quot;a&quot;:1,&quot;b&quot;:0,&quot;c&quot;:0,&quot;d&quot;:1,&quot;e&quot;:1104,&quot;f&quot;:619}" my_stoke="none" my_stoke_width="1px" my_stoke_opacity="1" my_fill="rgb(141, 160, 203)" my_fill_opacity="1" my_font_size="16px" opacity="1" fill="rgb(141, 160, 203)"></path><path class="myArea Deborah" d="M0,289.4635L4.592592592592593,289.43595L9.185185185185185,289.3823L13.777777777777779,289.38665L18.37037037037037,289.2837L22.962962962962962,289.2692L27.555555555555557,289.20685L32.148148148148145,289.23005L36.74074074074074,289.0662L41.333333333333336,289.1097L45.925925925925924,289.0836L50.51851851851852,289.09375L55.111111111111114,288.9473L59.7037037037037,288.97195L64.29629629629629,288.9357L68.88888888888889,288.8487L73.48148148148148,288.94585L78.07407407407406,288.9212L82.66666666666667,288.82115L87.25925925925927,288.91685L91.85185185185185,288.45285L96.44444444444444,288.8226L101.03703703703704,288.6921L105.62962962962963,288.7472L110.22222222222223,288.5152L114.81481481481481,288.3528L119.4074074074074,288.3325L124,288.0802L128.59259259259258,287.95115L133.1851851851852,288.00045L137.77777777777777,287.535L142.37037037037038,287.4306L146.96296296296296,286.58815L151.55555555555554,286.19085L156.14814814814812,285.1135L160.74074074074073,283.185L165.33333333333334,281.81185L169.92592592592592,279.5919L174.51851851851853,276.52805L179.1111111111111,274.6938L183.7037037037037,269.0069L188.2962962962963,263.72165L192.88888888888889,259.10775L197.4814814814815,251.6185L202.07407407407408,244.9514L206.66666666666666,241.84695L211.25925925925927,241.59175L215.85185185185185,238.16685L220.44444444444446,237.14025L225.03703703703704,236.29345L229.62962962962962,234.03L234.22222222222223,237.11995L238.8148148148148,239.49360000000001L243.40740740740742,243.6464L248,244.25685000000001L252.59259259259258,247.71365L257.18518518518516,251.7867L261.77777777777777,252.55085L266.3703703703704,252.13905L270.962962962963,254.81285L275.55555555555554,256.99655L280.14814814814815,258.48135L284.74074074074076,257.18215L289.3333333333333,257.11835L293.9259259259259,259.115L298.5185185185185,260.80135L303.1111111111111,257.42575L307.7037037037037,253.57455L312.29629629629625,249.12885L316.88888888888886,239.9779L321.48148148148147,227.53255L326.0740740740741,209.83095L330.6666666666667,199.5548L335.25925925925924,197.1913L339.85185185185185,194.6799L344.44444444444446,199.0821L349.03703703703707,206.3205L353.6296296296297,218.61214999999999L358.2222222222222,229.85545000000002L362.8148148148148,235.2422L367.4074074074074,242.4313L372,245.32695L376.5925925925926,248.38355L381.18518518518516,251.77945L385.77777777777777,253.9994L390.3703703703704,257.3518L394.962962962963,258.4045L399.5555555555556,261.58145L404.14814814814815,264.7787L408.7407407407407,265.67045L413.3333333333333,266.3621L417.9259259259259,267.18425L422.51851851851853,271.1471L427.1111111111111,270.87885L431.7037037037037,268.86334999999997L436.2962962962963,262.33835L440.8888888888889,258.41175L445.4814814814815,254.51850000000002L450.0740740740741,250.56L454.66666666666663,233.05995000000001L459.25925925925924,223.71904999999998L463.85185185185185,223.56535L468.44444444444446,215.2699L473.037037037037,189.64260000000002L477.6296296296296,181.7778L482.22222222222223,162.458L486.81481481481484,156.76385000000002L491.40740740740745,147.50995L496,158.24575000000002L500.5925925925926,165.46384999999998L505.18518518518516,171.8859L509.77777777777777,183.0944L514.3703703703703,196.18355L518.9629629629629,207.71975L523.5555555555555,217.4884L528.1481481481482,226.4291L532.7407407407408,234.17645L537.3333333333334,240.75655L541.925925925926,244.28730000000002L546.5185185185186,248.56045L551.1111111111111,250.4643L555.7037037037037,255.01295L560.2962962962963,257.9956L564.8888888888889,260.3997L569.4814814814815,261.5655L574.0740740740741,264.02325L578.6666666666666,266.43315L583.2592592592592,268.2993L587.8518518518518,272.11715L592.4444444444445,275.12735L597.037037037037,277.75185L601.6296296296296,279.4063L606.2222222222222,280.72L610.8148148148148,282.02065L615.4074074074074,282.52235L620,282.8167L620,283.3184L615.4074074074074,283.0574L610.8148148148148,282.4977L606.2222222222222,281.2072L601.6296296296296,279.8877L597.037037037037,278.26515L592.4444444444445,275.62905L587.8518518518518,272.6319L583.2592592592592,268.83725L578.6666666666666,267.0465L574.0740740740741,264.6395L569.4814814814815,262.18465L564.8888888888889,261.01015L560.2962962962963,258.6829L555.7037037037037,255.722L551.1111111111111,251.25455L546.5185185185186,249.32025L541.925925925926,245.08915L537.3333333333334,241.68165L532.7407407407408,235.0943L528.1481481481482,227.3861L523.5555555555555,218.5614L518.9629629629629,208.8754L514.3703703703703,197.5161L509.77777777777777,184.56470000000002L505.18518518518516,173.4722L500.5925925925926,167.02405L496,159.77695L491.40740740740745,149.2543L486.81481481481484,158.62565L482.22222222222223,164.48945L477.6296296296296,183.90640000000002L473.037037037037,191.96985L468.44444444444446,217.9408L463.85185185185185,226.3276L459.25925925925924,226.52915000000002L454.66666666666663,236.2224L450.0740740740741,254.15455L445.4814814814815,258.40015L440.8888888888889,262.75305000000003L436.2962962962963,267.2901L431.7037037037037,275.1636L427.1111111111111,278.10565L422.51851851851853,280.25165L417.9259259259259,279.763L413.3333333333333,280.64895L408.7407407407407,281.89015L404.14814814814815,282.5934L399.5555555555556,281.8916L394.962962962963,281.967L390.3703703703704,282.12215L385.77777777777777,281.9931L381.18518518518516,282.31935L376.5925925925926,281.5784L372,280.26035L367.4074074074074,279.07135L362.8148148148148,278.0926L358.2222222222222,277.61265L353.6296296296297,276.7064L349.03703703703707,275.67255L344.44444444444446,274.9374L339.85185185185185,273.9572L335.25925925925924,272.8755L330.6666666666667,271.77785L326.0740740740741,270.7962L321.48148148148147,269.6884L316.88888888888886,267.8295L312.29629629629625,265.43555L307.7037037037037,262.03965L303.1111111111111,261.00725L298.5185185185185,262.92415L293.9259259259259,260.98985L289.3333333333333,258.26095L284.74074074074076,258.16235L280.14814814814815,259.36295L275.55555555555554,257.6766L270.962962962963,255.4552L266.3703703703704,252.73355L261.77777777777777,253.0192L257.18518518518516,252.22025L252.59259259259258,248.1182L248,244.66285L243.40740740740742,243.99875L238.8148148148148,239.7952L234.22222222222223,237.34905L229.62962962962962,234.26925L225.03703703703704,236.5269L220.44444444444446,237.32875L215.85185185185185,238.2988L211.25925925925927,241.75995L206.66666666666666,241.96585L202.07407407407408,245.13265L197.4814814814815,251.7896L192.88888888888889,259.2107L188.2962962962963,263.85795L183.7037037037037,269.1258L179.1111111111111,274.7953L174.51851851851853,276.66145L169.92592592592592,279.72095L165.33333333333334,281.94235L160.74074074074073,283.3387L156.14814814814812,285.2034L151.55555555555554,286.25175L146.96296296296296,286.63455L142.37037037037038,287.4828L137.77777777777777,287.58285L133.1851851851852,288.03815L128.59259259259258,287.9874L124,288.11065L119.4074074074074,288.36875L114.81481481481481,288.3789L110.22222222222223,288.54855L105.62962962962963,288.77765L101.03703703703704,288.72255L96.44444444444444,288.85305L91.85185185185185,288.49055L87.25925925925927,288.9328L82.66666666666667,288.8516L78.07407407407406,288.95455L73.48148148148148,288.97195L68.88888888888889,288.86755L64.29629629629629,288.9618L59.7037037037037,289.00675L55.111111111111114,288.9705L50.51851851851852,289.1155L45.925925925925924,289.1184L41.333333333333336,289.1271L36.74074074074074,289.1039L32.148148148148145,289.2518L27.555555555555557,289.22135L22.962962962962962,289.2837L18.37037037037037,289.30255L13.777777777777779,289.40985L9.185185185185185,289.40405L4.592592592592593,289.45625L0,289.4809Z" style="fill: rgb(231, 138, 195); font-family: &quot;Roboto Slab&quot;, &quot;Helvetica Neue&quot;, Helvetica, Arial, sans-serif;" transform_matrix="{&quot;a&quot;:1,&quot;b&quot;:0,&quot;c&quot;:0,&quot;d&quot;:1,&quot;e&quot;:1104,&quot;f&quot;:619}" my_stoke="none" my_stoke_width="1px" my_stoke_opacity="1" my_fill="rgb(231, 138, 195)" my_fill_opacity="1" my_font_size="16px" opacity="1" fill="rgb(231, 138, 195)"></path><path class="myArea Dorothy" d="M0,289.3011L4.592592592592593,289.2779L9.185185185185185,289.21555L13.777777777777779,289.1822L18.37037037037037,289.04735L22.962962962962962,288.985L27.555555555555557,288.87335L32.148148148148145,288.83565L36.74074074074074,288.52535L41.333333333333336,288.56305L45.925925925925924,288.4195L50.51851851851852,288.27305L55.111111111111114,288.0396L59.7037037037037,287.7815L64.29629629629629,287.4103L68.88888888888889,287.21455L73.48148148148148,286.96515L78.07407407407406,286.7868L82.66666666666667,286.3982L87.25925925925927,286.4707L91.85185185185185,284.8409L96.44444444444444,285.67175L101.03703703703704,284.76695L105.62962962962963,284.2841L110.22222222222223,283.47355L114.81481481481481,282.64415L119.4074074074074,282.0598L124,280.87805000000003L128.59259259259258,279.6818L133.1851851851852,278.9336L137.77777777777777,276.9239L142.37037037037038,274.57055L146.96296296296296,268.2529L151.55555555555554,264.91355L156.14814814814812,257.8796L160.74074074074073,246.7117L165.33333333333334,242.0601L169.92592592592592,237.75504999999998L174.51851851851853,230.07875L179.1111111111111,228.6795L183.7037037037037,215.87165L188.2962962962963,207.0513L192.88888888888889,204.42680000000001L197.4814814814815,195.00324999999998L202.07407407407408,186.9572L206.66666666666666,185.91755L211.25925925925927,188.50145L215.85185185185185,185.9857L220.44444444444446,188.23465L225.03703703703704,190.65179999999998L229.62962962962962,189.9442L234.22222222222223,198.6645L238.8148148148148,203.29000000000002L243.40740740740742,211.6739L248,213.40085L252.59259259259258,219.58365L257.18518518518516,226.1681L261.77777777777777,228.5229L266.3703703703704,228.43445L270.962962962963,232.81635L275.55555555555554,235.42925L280.14814814814815,237.3679L284.74074074074076,235.38575L289.3333333333333,235.68009999999998L293.9259259259259,239.7169L298.5185185185185,242.92575L303.1111111111111,238.87155L307.7037037037037,235.0856L312.29629629629625,232.70615L316.88888888888886,224.88920000000002L321.48148148148147,213.6778L326.0740740740741,196.66205L330.6666666666667,187.07319999999999L335.25925925925924,185.368L339.85185185185185,183.38295L344.44444444444446,188.58265L349.03703703703707,196.37060000000002L353.6296296296297,209.3307L358.2222222222222,221.8239L362.8148148148148,227.6471L367.4074074074074,235.06965L372,238.47424999999998L376.5925925925926,242.47480000000002L381.18518518518516,246.2825L385.77777777777777,248.87365L390.3703703703704,253.0598L394.962962962963,254.53735L399.5555555555556,258.22325L404.14814814814815,261.7569L408.7407407407407,263.09235L413.3333333333333,263.7492L417.9259259259259,264.82655L422.51851851851853,269.29545L427.1111111111111,269.1751L431.7037037037037,267.26835L436.2962962962963,260.9246L440.8888888888889,256.9864L445.4814814814815,253.1642L450.0740740740741,249.23615L454.66666666666663,231.7709L459.25925925925924,222.4213L463.85185185185185,222.42419999999998L468.44444444444446,214.0693L473.037037037037,188.54205L477.6296296296296,180.7889L482.22222222222223,161.41545L486.81481481481484,155.8518L491.40740740740745,146.61965L496,157.36415L500.5925925925926,164.56484999999998L505.18518518518516,171.0217L509.77777777777777,182.3723L514.3703703703703,195.44695000000002L518.9629629629629,207.02955L523.5555555555555,216.84750000000003L528.1481481481482,225.88389999999998L532.7407407407408,233.66895L537.3333333333334,240.2998L541.925925925926,243.8349L546.5185185185186,248.0747L551.1111111111111,250.0119L555.7037037037037,254.5533L560.2962962962963,257.61424999999997L564.8888888888889,259.97775L569.4814814814815,261.1479L574.0740740740741,263.68395L578.6666666666666,266.0489L583.2592592592592,267.9194L587.8518518518518,271.76625L592.4444444444445,274.79965L597.037037037037,277.40385L601.6296296296296,279.0061L606.2222222222222,280.31835L610.8148148148148,281.53635L615.4074074074074,281.96845L620,282.24395L620,282.8167L615.4074074074074,282.52235L610.8148148148148,282.02065L606.2222222222222,280.72L601.6296296296296,279.4063L597.037037037037,277.75185L592.4444444444445,275.12735L587.8518518518518,272.11715L583.2592592592592,268.2993L578.6666666666666,266.43315L574.0740740740741,264.02325L569.4814814814815,261.5655L564.8888888888889,260.3997L560.2962962962963,257.9956L555.7037037037037,255.01295L551.1111111111111,250.4643L546.5185185185186,248.56045L541.925925925926,244.28730000000002L537.3333333333334,240.75655L532.7407407407408,234.17645L528.1481481481482,226.4291L523.5555555555555,217.4884L518.9629629629629,207.71975L514.3703703703703,196.18355L509.77777777777777,183.0944L505.18518518518516,171.8859L500.5925925925926,165.46384999999998L496,158.24575000000002L491.40740740740745,147.50995L486.81481481481484,156.76385000000002L482.22222222222223,162.458L477.6296296296296,181.7778L473.037037037037,189.64260000000002L468.44444444444446,215.2699L463.85185185185185,223.56535L459.25925925925924,223.71904999999998L454.66666666666663,233.05995000000001L450.0740740740741,250.56L445.4814814814815,254.51850000000002L440.8888888888889,258.41175L436.2962962962963,262.33835L431.7037037037037,268.86334999999997L427.1111111111111,270.87885L422.51851851851853,271.1471L417.9259259259259,267.18425L413.3333333333333,266.3621L408.7407407407407,265.67045L404.14814814814815,264.7787L399.5555555555556,261.58145L394.962962962963,258.4045L390.3703703703704,257.3518L385.77777777777777,253.9994L381.18518518518516,251.77945L376.5925925925926,248.38355L372,245.32695L367.4074074074074,242.4313L362.8148148148148,235.2422L358.2222222222222,229.85545000000002L353.6296296296297,218.61214999999999L349.03703703703707,206.3205L344.44444444444446,199.0821L339.85185185185185,194.6799L335.25925925925924,197.1913L330.6666666666667,199.5548L326.0740740740741,209.83095L321.48148148148147,227.53255L316.88888888888886,239.9779L312.29629629629625,249.12885L307.7037037037037,253.57455L303.1111111111111,257.42575L298.5185185185185,260.80135L293.9259259259259,259.115L289.3333333333333,257.11835L284.74074074074076,257.18215L280.14814814814815,258.48135L275.55555555555554,256.99655L270.962962962963,254.81285L266.3703703703704,252.13905L261.77777777777777,252.55085L257.18518518518516,251.7867L252.59259259259258,247.71365L248,244.25685000000001L243.40740740740742,243.6464L238.8148148148148,239.49360000000001L234.22222222222223,237.11995L229.62962962962962,234.03L225.03703703703704,236.29345L220.44444444444446,237.14025L215.85185185185185,238.16685L211.25925925925927,241.59175L206.66666666666666,241.84695L202.07407407407408,244.9514L197.4814814814815,251.6185L192.88888888888889,259.10775L188.2962962962963,263.72165L183.7037037037037,269.0069L179.1111111111111,274.6938L174.51851851851853,276.52805L169.92592592592592,279.5919L165.33333333333334,281.81185L160.74074074074073,283.185L156.14814814814812,285.1135L151.55555555555554,286.19085L146.96296296296296,286.58815L142.37037037037038,287.4306L137.77777777777777,287.535L133.1851851851852,288.00045L128.59259259259258,287.95115L124,288.0802L119.4074074074074,288.3325L114.81481481481481,288.3528L110.22222222222223,288.5152L105.62962962962963,288.7472L101.03703703703704,288.6921L96.44444444444444,288.8226L91.85185185185185,288.45285L87.25925925925927,288.91685L82.66666666666667,288.82115L78.07407407407406,288.9212L73.48148148148148,288.94585L68.88888888888889,288.8487L64.29629629629629,288.9357L59.7037037037037,288.97195L55.111111111111114,288.9473L50.51851851851852,289.09375L45.925925925925924,289.0836L41.333333333333336,289.1097L36.74074074074074,289.0662L32.148148148148145,289.23005L27.555555555555557,289.20685L22.962962962962962,289.2692L18.37037037037037,289.2837L13.777777777777779,289.38665L9.185185185185185,289.3823L4.592592592592593,289.43595L0,289.4635Z" style="fill: rgb(166, 216, 84); font-family: &quot;Roboto Slab&quot;, &quot;Helvetica Neue&quot;, Helvetica, Arial, sans-serif;" transform_matrix="{&quot;a&quot;:1,&quot;b&quot;:0,&quot;c&quot;:0,&quot;d&quot;:1,&quot;e&quot;:1104,&quot;f&quot;:619}" my_stoke="none" my_stoke_width="1px" my_stoke_opacity="1" my_fill="rgb(166, 216, 84)" my_fill_opacity="1" my_font_size="16px" opacity="1" fill="rgb(166, 216, 84)"></path><path class="myArea Helen" d="M0,288.3789L4.592592592592593,288.3905L9.185185185185185,288.00045L13.777777777777779,287.9323L18.37037037037037,287.61765L22.962962962962962,287.3407L27.555555555555557,287.0362L32.148148148148145,286.7984L36.74074074074074,285.8472L41.333333333333336,285.795L45.925925925925924,285.0671L50.51851851851852,284.7684L55.111111111111114,283.7824L59.7037037037037,283.07045L64.29629629629629,282.0801L68.88888888888889,281.3812L73.48148148148148,280.59675L78.07407407407406,280.23425L82.66666666666667,278.8147L87.25925925925927,279.1511L91.85185185185185,275.64355L96.44444444444444,278.0636L101.03703703703704,276.1148L105.62962962962963,275.39705L110.22222222222223,274.06595L114.81481481481481,272.7682L119.4074074074074,271.6546L124,269.8885L128.59259259259258,267.44525L133.1851851851852,265.5211L137.77777777777777,261.72935L142.37037037037038,257.45765L146.96296296296296,244.86005L151.55555555555554,237.5245L156.14814814814812,224.20915L160.74074074074073,201.95600000000002L165.33333333333334,194.70165L169.92592592592592,188.094L174.51851851851853,177.66125L179.1111111111111,179.80725L183.7037037037037,164.97955L188.2962962962963,156.56375L192.88888888888889,157.29165L197.4814814814815,149.33985L202.07407407407408,141.72735L206.66666666666666,143.62395L211.25925925925927,149.51965L215.85185185185185,149.2775L220.44444444444446,154.97745L225.03703703703704,160.22645L229.62962962962962,161.0689L234.22222222222223,173.06185L238.8148148148148,179.54625L243.40740740740742,190.43865L248,192.9573L252.59259259259258,201.05554999999998L257.18518518518516,208.43169999999998L261.77777777777777,211.91750000000002L266.3703703703704,212.72660000000002L270.962962962963,217.7117L275.55555555555554,220.6378L280.14814814814815,223.02885L284.74074074074076,220.8669L289.3333333333333,221.47155L293.9259259259259,227.11205L298.5185185185185,230.89075L303.1111111111111,226.03615L307.7037037037037,222.0675L312.29629629629625,220.6639L316.88888888888886,213.71115L321.48148148148147,203.4408L326.0740740740741,186.59179999999998L330.6666666666667,177.6917L335.25925925925924,176.49399999999997L339.85185185185185,174.76995L344.44444444444446,180.46845000000002L349.03703703703707,188.71605L353.6296296296297,202.05895L358.2222222222222,214.91755L362.8148148148148,221.299L367.4074074074074,229.1696L372,232.8845L376.5925925925926,237.27365L381.18518518518516,241.4395L385.77777777777777,244.3859L390.3703703703704,248.994L394.962962962963,250.9863L399.5555555555556,255.1014L404.14814814814815,259.02945L408.7407407407407,260.3997L413.3333333333333,261.26245L417.9259259259259,262.7371L422.51851851851853,267.4902L427.1111111111111,267.53225L431.7037037037037,265.61535L436.2962962962963,259.39195L440.8888888888889,255.6205L445.4814814814815,251.7258L450.0740740740741,247.89925L454.66666666666663,230.49635L459.25925925925924,221.10325L463.85185185185185,221.125L468.44444444444446,212.80055L473.037037037037,187.31825L477.6296296296296,179.54335L482.22222222222223,160.2424L486.81481481481484,154.7411L491.40740740740745,145.4379L496,156.2404L500.5925925925926,163.3222L505.18518518518516,169.77325L509.77777777777777,181.25144999999998L514.3703703703703,194.2478L518.9629629629629,205.77095L523.5555555555555,215.61790000000002L528.1481481481482,224.67025L532.7407407407408,232.36395L537.3333333333334,239.1224L541.925925925926,242.6285L546.5185185185186,246.85525L551.1111111111111,248.72140000000002L555.7037037037037,253.2715L560.2962962962963,256.3455L564.8888888888889,258.8424L569.4814814814815,259.9009L574.0740740740741,262.29195L578.6666666666666,264.6743L583.2592592592592,266.56945L587.8518518518518,270.48445L592.4444444444445,273.60195L597.037037037037,276.3845L601.6296296296296,277.94905L606.2222222222222,279.19895L610.8148148148148,280.46625L615.4074074074074,280.807L620,281.1463L620,282.24395L615.4074074074074,281.96845L610.8148148148148,281.53635L606.2222222222222,280.31835L601.6296296296296,279.0061L597.037037037037,277.40385L592.4444444444445,274.79965L587.8518518518518,271.76625L583.2592592592592,267.9194L578.6666666666666,266.0489L574.0740740740741,263.68395L569.4814814814815,261.1479L564.8888888888889,259.97775L560.2962962962963,257.61424999999997L555.7037037037037,254.5533L551.1111111111111,250.0119L546.5185185185186,248.0747L541.925925925926,243.8349L537.3333333333334,240.2998L532.7407407407408,233.66895L528.1481481481482,225.88389999999998L523.5555555555555,216.84750000000003L518.9629629629629,207.02955L514.3703703703703,195.44695000000002L509.77777777777777,182.3723L505.18518518518516,171.0217L500.5925925925926,164.56484999999998L496,157.36415L491.40740740740745,146.61965L486.81481481481484,155.8518L482.22222222222223,161.41545L477.6296296296296,180.7889L473.037037037037,188.54205L468.44444444444446,214.0693L463.85185185185185,222.42419999999998L459.25925925925924,222.4213L454.66666666666663,231.7709L450.0740740740741,249.23615L445.4814814814815,253.1642L440.8888888888889,256.9864L436.2962962962963,260.9246L431.7037037037037,267.26835L427.1111111111111,269.1751L422.51851851851853,269.29545L417.9259259259259,264.82655L413.3333333333333,263.7492L408.7407407407407,263.09235L404.14814814814815,261.7569L399.5555555555556,258.22325L394.962962962963,254.53735L390.3703703703704,253.0598L385.77777777777777,248.87365L381.18518518518516,246.2825L376.5925925925926,242.47480000000002L372,238.47424999999998L367.4074074074074,235.06965L362.8148148148148,227.6471L358.2222222222222,221.8239L353.6296296296297,209.3307L349.03703703703707,196.37060000000002L344.44444444444446,188.58265L339.85185185185185,183.38295L335.25925925925924,185.368L330.6666666666667,187.07319999999999L326.0740740740741,196.66205L321.48148148148147,213.6778L316.88888888888886,224.88920000000002L312.29629629629625,232.70615L307.7037037037037,235.0856L303.1111111111111,238.87155L298.5185185185185,242.92575L293.9259259259259,239.7169L289.3333333333333,235.68009999999998L284.74074074074076,235.38575L280.14814814814815,237.3679L275.55555555555554,235.42925L270.962962962963,232.81635L266.3703703703704,228.43445L261.77777777777777,228.5229L257.18518518518516,226.1681L252.59259259259258,219.58365L248,213.40085L243.40740740740742,211.6739L238.8148148148148,203.29000000000002L234.22222222222223,198.6645L229.62962962962962,189.9442L225.03703703703704,190.65179999999998L220.44444444444446,188.23465L215.85185185185185,185.9857L211.25925925925927,188.50145L206.66666666666666,185.91755L202.07407407407408,186.9572L197.4814814814815,195.00324999999998L192.88888888888889,204.42680000000001L188.2962962962963,207.0513L183.7037037037037,215.87165L179.1111111111111,228.6795L174.51851851851853,230.07875L169.92592592592592,237.75504999999998L165.33333333333334,242.0601L160.74074074074073,246.7117L156.14814814814812,257.8796L151.55555555555554,264.91355L146.96296296296296,268.2529L142.37037037037038,274.57055L137.77777777777777,276.9239L133.1851851851852,278.9336L128.59259259259258,279.6818L124,280.87805000000003L119.4074074074074,282.0598L114.81481481481481,282.64415L110.22222222222223,283.47355L105.62962962962963,284.2841L101.03703703703704,284.76695L96.44444444444444,285.67175L91.85185185185185,284.8409L87.25925925925927,286.4707L82.66666666666667,286.3982L78.07407407407406,286.7868L73.48148148148148,286.96515L68.88888888888889,287.21455L64.29629629629629,287.4103L59.7037037037037,287.7815L55.111111111111114,288.0396L50.51851851851852,288.27305L45.925925925925924,288.4195L41.333333333333336,288.56305L36.74074074074074,288.52535L32.148148148148145,288.83565L27.555555555555557,288.87335L22.962962962962962,288.985L18.37037037037037,289.04735L13.777777777777779,289.1822L9.185185185185185,289.21555L4.592592592592593,289.2779L0,289.3011Z" style="fill: rgb(255, 217, 47); font-family: &quot;Roboto Slab&quot;, &quot;Helvetica Neue&quot;, Helvetica, Arial, sans-serif;" transform_matrix="{&quot;a&quot;:1,&quot;b&quot;:0,&quot;c&quot;:0,&quot;d&quot;:1,&quot;e&quot;:1104,&quot;f&quot;:619}" my_stoke="none" my_stoke_width="1px" my_stoke_opacity="1" my_fill="rgb(255, 217, 47)" my_fill_opacity="1" my_font_size="16px" opacity="1" fill="rgb(255, 217, 47)"></path><path class="myArea Linda" d="M0,288.33975L4.592592592592593,288.3354L9.185185185185185,287.94825L13.777777777777779,287.86125L18.37037037037037,287.5698L22.962962962962962,287.2537L27.555555555555557,286.96515L32.148148148148145,286.7259L36.74074074074074,285.73555L41.333333333333336,285.6877L45.925925925925924,284.9888L50.51851851851852,284.6553L55.111111111111114,283.66205L59.7037037037037,282.95155L64.29629629629629,281.9438L68.88888888888889,281.242L73.48148148148148,280.44595L78.07407407407406,280.1168L82.66666666666667,278.6668L87.25925925925927,279.009L91.85185185185185,275.46085L96.44444444444444,277.9389L101.03703703703704,275.98285L105.62962962962963,275.26655L110.22222222222223,273.91949999999997L114.81481481481481,272.6145L119.4074074074074,271.5125L124,269.7406L128.59259259259258,267.3104L133.1851851851852,265.36885L137.77777777777777,261.5307L142.37037037037038,257.26915L146.96296296296296,244.586L151.55555555555554,237.1794L156.14814814814812,223.89159999999998L160.74074074074073,201.5355L165.33333333333334,194.27100000000002L169.92592592592592,187.67205L174.51851851851853,177.19435L179.1111111111111,179.39835L183.7037037037037,164.4735L188.2962962962963,156.0316L192.88888888888889,156.76239999999999L197.4814814814815,148.7265L202.07407407407408,141.06905L206.66666666666666,142.98884999999999L211.25925925925927,148.8251L215.85185185185185,148.5293L220.44444444444446,154.17415L225.03703703703704,159.4884L229.62962962962962,160.35405L234.22222222222223,172.28755L238.8148148148148,178.42395L243.40740740740742,189.29895L248,191.50585L252.59259259259258,199.3199L257.18518518518516,204.89515L261.77777777777777,205.5665L266.3703703703704,202.50844999999998L270.962962962963,202.1764L275.55555555555554,194.00420000000003L280.14814814814815,188.6421L284.74074074074076,175.03095000000002L289.3333333333333,165.73790000000002L293.9259259259259,171.4161L298.5185185185185,170.76794999999998L303.1111111111111,149.60954999999998L307.7037037037037,77.5315L312.29629629629625,81.15795L316.88888888888886,81.74665000000002L321.48148148148147,86.80425L326.0740740740741,79.36864999999997L330.6666666666667,80.4083L335.25925925925924,87.66120000000001L339.85185185185185,94.482L344.44444444444446,106.1139L349.03703703703707,119.0189L353.6296296296297,137.5412L358.2222222222222,154.16545L362.8148148148148,162.70595L367.4074074074074,175.0643L372,181.3022L376.5925925925926,191.65375L381.18518518518516,201.25275L385.77777777777777,210.11804999999998L390.3703703703704,220.95245L394.962962962963,228.42430000000002L399.5555555555556,235.96285L404.14814814814815,242.54585L408.7407407407407,245.5401L413.3333333333333,248.59815L417.9259259259259,252.03755L422.51851851851853,259.1585L427.1111111111111,260.6665L431.7037037037037,259.6921L436.2962962962963,254.2807L440.8888888888889,251.06605L445.4814814814815,247.50775L450.0740740740741,243.64204999999998L454.66666666666663,226.5248L459.25925925925924,217.036L463.85185185185185,217.16649999999998L468.44444444444446,208.7594L473.037037037037,183.73239999999998L477.6296296296296,176.15905L482.22222222222223,157.17855L486.81481481481484,151.91215L491.40740740740745,142.64085L496,153.5666L500.5925925925926,160.6484L505.18518518518516,167.36915L509.77777777777777,178.91985L514.3703703703703,191.9568L518.9629629629629,203.6148L523.5555555555555,213.76045L528.1481481481482,222.88240000000002L532.7407407407408,230.9328L537.3333333333334,237.53465L541.925925925926,241.222L546.5185185185186,245.55315L551.1111111111111,247.49035L555.7037037037037,252.05785L560.2962962962963,255.23045L564.8888888888889,257.77085L569.4814814814815,258.84675L574.0740740740741,261.2117L578.6666666666666,263.6622L583.2592592592592,265.6139L587.8518518518518,269.5985L592.4444444444445,272.80445L597.037037037037,275.6943L601.6296296296296,277.24145L606.2222222222222,278.54935L610.8148148148148,279.8268L615.4074074074074,280.1255L620,280.53295L620,281.1463L615.4074074074074,280.807L610.8148148148148,280.46625L606.2222222222222,279.19895L601.6296296296296,277.94905L597.037037037037,276.3845L592.4444444444445,273.60195L587.8518518518518,270.48445L583.2592592592592,266.56945L578.6666666666666,264.6743L574.0740740740741,262.29195L569.4814814814815,259.9009L564.8888888888889,258.8424L560.2962962962963,256.3455L555.7037037037037,253.2715L551.1111111111111,248.72140000000002L546.5185185185186,246.85525L541.925925925926,242.6285L537.3333333333334,239.1224L532.7407407407408,232.36395L528.1481481481482,224.67025L523.5555555555555,215.61790000000002L518.9629629629629,205.77095L514.3703703703703,194.2478L509.77777777777777,181.25144999999998L505.18518518518516,169.77325L500.5925925925926,163.3222L496,156.2404L491.40740740740745,145.4379L486.81481481481484,154.7411L482.22222222222223,160.2424L477.6296296296296,179.54335L473.037037037037,187.31825L468.44444444444446,212.80055L463.85185185185185,221.125L459.25925925925924,221.10325L454.66666666666663,230.49635L450.0740740740741,247.89925L445.4814814814815,251.7258L440.8888888888889,255.6205L436.2962962962963,259.39195L431.7037037037037,265.61535L427.1111111111111,267.53225L422.51851851851853,267.4902L417.9259259259259,262.7371L413.3333333333333,261.26245L408.7407407407407,260.3997L404.14814814814815,259.02945L399.5555555555556,255.1014L394.962962962963,250.9863L390.3703703703704,248.994L385.77777777777777,244.3859L381.18518518518516,241.4395L376.5925925925926,237.27365L372,232.8845L367.4074074074074,229.1696L362.8148148148148,221.299L358.2222222222222,214.91755L353.6296296296297,202.05895L349.03703703703707,188.71605L344.44444444444446,180.46845000000002L339.85185185185185,174.76995L335.25925925925924,176.49399999999997L330.6666666666667,177.6917L326.0740740740741,186.59179999999998L321.48148148148147,203.4408L316.88888888888886,213.71115L312.29629629629625,220.6639L307.7037037037037,222.0675L303.1111111111111,226.03615L298.5185185185185,230.89075L293.9259259259259,227.11205L289.3333333333333,221.47155L284.74074074074076,220.8669L280.14814814814815,223.02885L275.55555555555554,220.6378L270.962962962963,217.7117L266.3703703703704,212.72660000000002L261.77777777777777,211.91750000000002L257.18518518518516,208.43169999999998L252.59259259259258,201.05554999999998L248,192.9573L243.40740740740742,190.43865L238.8148148148148,179.54625L234.22222222222223,173.06185L229.62962962962962,161.0689L225.03703703703704,160.22645L220.44444444444446,154.97745L215.85185185185185,149.2775L211.25925925925927,149.51965L206.66666666666666,143.62395L202.07407407407408,141.72735L197.4814814814815,149.33985L192.88888888888889,157.29165L188.2962962962963,156.56375L183.7037037037037,164.97955L179.1111111111111,179.80725L174.51851851851853,177.66125L169.92592592592592,188.094L165.33333333333334,194.70165L160.74074074074073,201.95600000000002L156.14814814814812,224.20915L151.55555555555554,237.5245L146.96296296296296,244.86005L142.37037037037038,257.45765L137.77777777777777,261.72935L133.1851851851852,265.5211L128.59259259259258,267.44525L124,269.8885L119.4074074074074,271.6546L114.81481481481481,272.7682L110.22222222222223,274.06595L105.62962962962963,275.39705L101.03703703703704,276.1148L96.44444444444444,278.0636L91.85185185185185,275.64355L87.25925925925927,279.1511L82.66666666666667,278.8147L78.07407407407406,280.23425L73.48148148148148,280.59675L68.88888888888889,281.3812L64.29629629629629,282.0801L59.7037037037037,283.07045L55.111111111111114,283.7824L50.51851851851852,284.7684L45.925925925925924,285.0671L41.333333333333336,285.795L36.74074074074074,285.8472L32.148148148148145,286.7984L27.555555555555557,287.0362L22.962962962962962,287.3407L18.37037037037037,287.61765L13.777777777777779,287.9323L9.185185185185185,288.00045L4.592592592592593,288.3905L0,288.3789Z" style="fill: rgb(229, 196, 148); font-family: &quot;Roboto Slab&quot;, &quot;Helvetica Neue&quot;, Helvetica, Arial, sans-serif;" transform_matrix="{&quot;a&quot;:1,&quot;b&quot;:0,&quot;c&quot;:0,&quot;d&quot;:1,&quot;e&quot;:1104,&quot;f&quot;:619}" my_stoke="none" my_stoke_width="1px" my_stoke_opacity="1" my_fill="rgb(229, 196, 148)" my_fill_opacity="1" my_font_size="16px" opacity="1" fill="rgb(229, 196, 148)"></path><path class="myArea Patricia" d="M0,288.33975L4.592592592592593,288.3354L9.185185185185185,287.94825L13.777777777777779,287.86125L18.37037037037037,287.5611L22.962962962962962,287.24645L27.555555555555557,286.95355L32.148148148148145,286.7114L36.74074074074074,285.71815L41.333333333333336,285.66305L45.925925925925924,284.97285L50.51851851851852,284.6379L55.111111111111114,283.6316L59.7037037037037,282.91095L64.29629629629629,281.8916L68.88888888888889,281.19125L73.48148148148148,280.3923L78.07407407407406,280.04575L82.66666666666667,278.59865L87.25925925925927,278.9278L91.85185185185185,275.3318L96.44444444444444,277.8403L101.03703703703704,275.8596L105.62962962962963,275.152L110.22222222222223,273.73969999999997L114.81481481481481,272.43905L119.4074074074074,271.28485L124,269.48395L128.59259259259258,267.01315L133.1851851851852,265.031L137.77777777777777,261.0725L142.37037037037038,256.7979L146.96296296296296,243.8552L151.55555555555554,236.3268L156.14814814814812,222.9404L160.74074074074073,200.23775L165.33333333333334,192.7079L169.92592592592592,185.5826L174.51851851851853,174.64235L179.1111111111111,176.28955000000002L183.7037037037037,160.84560000000002L188.2962962962963,151.1277L192.88888888888889,151.1045L197.4814814814815,141.7665L202.07407407407408,130.97995L206.66666666666666,131.2511L211.25925925925927,136.3696L215.85185185185185,133.22744999999998L220.44444444444446,136.29275L225.03703703703704,139.73069999999998L229.62962962962962,137.518L234.22222222222223,148.40895L238.8148148148148,152.337L243.40740740740742,162.29270000000002L248,161.2777L252.59259259259258,166.1497L257.18518518518516,170.22275000000002L261.77777777777777,166.65285L266.3703703703704,162.5537L270.962962962963,159.1056L275.55555555555554,146.64575L280.14814814814815,135.13565L284.74074074074076,117.82265000000001L289.3333333333333,108.28890000000001L293.9259259259259,117.95170000000002L298.5185185185185,118.79995L303.1111111111111,82.48179999999999L307.7037037037037,3.1841999999999757L312.29629629629625,14.262200000000007L316.88888888888886,14.557999999999993L321.48148148148147,17.27384999999998L326.0740740740741,-2.45920000000001L330.6666666666667,3.4277999999999906L335.25925925925924,13.70105000000001L339.85185185185185,23.239149999999995L344.44444444444446,39.109399999999994L349.03703703703707,56.1875L353.6296296296297,80.58955L358.2222222222222,99.16405L362.8148148148148,111.63550000000001L367.4074074074074,128.50914999999998L372,139.44504999999998L376.5925925925926,153.17365L381.18518518518516,164.4764L385.77777777777777,172.2919L390.3703703703704,186.80349999999999L394.962962962963,199.25755L399.5555555555556,210.23115L404.14814814814815,219.62715L408.7407407407407,223.85245L413.3333333333333,229.16235L417.9259259259259,235.41185L422.51851851851853,245.2356L427.1111111111111,248.37485L431.7037037037037,248.0341L436.2962962962963,244.0495L440.8888888888889,242.3414L445.4814814814815,238.9426L450.0740740740741,235.66995L454.66666666666663,218.33085L459.25925925925924,209.33795L463.85185185185185,209.50324999999998L468.44444444444446,201.26725L473.037037037037,176.59550000000002L477.6296296296296,169.6703L482.22222222222223,150.80145L486.81481481481484,145.75545L491.40740740740745,136.967L496,148.0595L500.5925925925926,155.4197L505.18518518518516,162.18105L509.77777777777777,173.96375L514.3703703703703,187.67784999999998L518.9629629629629,199.7578L523.5555555555555,210.33409999999998L528.1481481481482,219.7504L532.7407407407408,228.0763L537.3333333333334,234.9522L541.925925925926,238.7512L546.5185185185186,243.33175L551.1111111111111,245.47195L555.7037037037037,250.2845L560.2962962962963,253.6166L564.8888888888889,256.3049L569.4814814814815,257.4011L574.0740740740741,259.94005L578.6666666666666,262.53845L583.2592592592592,264.56265L587.8518518518518,268.68645L592.4444444444445,271.98665L597.037037037037,274.99975L601.6296296296296,276.6223L606.2222222222222,277.97805L610.8148148148148,279.21925L615.4074074074074,279.57885L620,280.03125L620,280.53295L615.4074074074074,280.1255L610.8148148148148,279.8268L606.2222222222222,278.54935L601.6296296296296,277.24145L597.037037037037,275.6943L592.4444444444445,272.80445L587.8518518518518,269.5985L583.2592592592592,265.6139L578.6666666666666,263.6622L574.0740740740741,261.2117L569.4814814814815,258.84675L564.8888888888889,257.77085L560.2962962962963,255.23045L555.7037037037037,252.05785L551.1111111111111,247.49035L546.5185185185186,245.55315L541.925925925926,241.222L537.3333333333334,237.53465L532.7407407407408,230.9328L528.1481481481482,222.88240000000002L523.5555555555555,213.76045L518.9629629629629,203.6148L514.3703703703703,191.9568L509.77777777777777,178.91985L505.18518518518516,167.36915L500.5925925925926,160.6484L496,153.5666L491.40740740740745,142.64085L486.81481481481484,151.91215L482.22222222222223,157.17855L477.6296296296296,176.15905L473.037037037037,183.73239999999998L468.44444444444446,208.7594L463.85185185185185,217.16649999999998L459.25925925925924,217.036L454.66666666666663,226.5248L450.0740740740741,243.64204999999998L445.4814814814815,247.50775L440.8888888888889,251.06605L436.2962962962963,254.2807L431.7037037037037,259.6921L427.1111111111111,260.6665L422.51851851851853,259.1585L417.9259259259259,252.03755L413.3333333333333,248.59815L408.7407407407407,245.5401L404.14814814814815,242.54585L399.5555555555556,235.96285L394.962962962963,228.42430000000002L390.3703703703704,220.95245L385.77777777777777,210.11804999999998L381.18518518518516,201.25275L376.5925925925926,191.65375L372,181.3022L367.4074074074074,175.0643L362.8148148148148,162.70595L358.2222222222222,154.16545L353.6296296296297,137.5412L349.03703703703707,119.0189L344.44444444444446,106.1139L339.85185185185185,94.482L335.25925925925924,87.66120000000001L330.6666666666667,80.4083L326.0740740740741,79.36864999999997L321.48148148148147,86.80425L316.88888888888886,81.74665000000002L312.29629629629625,81.15795L307.7037037037037,77.5315L303.1111111111111,149.60954999999998L298.5185185185185,170.76794999999998L293.9259259259259,171.4161L289.3333333333333,165.73790000000002L284.74074074074076,175.03095000000002L280.14814814814815,188.6421L275.55555555555554,194.00420000000003L270.962962962963,202.1764L266.3703703703704,202.50844999999998L261.77777777777777,205.5665L257.18518518518516,204.89515L252.59259259259258,199.3199L248,191.50585L243.40740740740742,189.29895L238.8148148148148,178.42395L234.22222222222223,172.28755L229.62962962962962,160.35405L225.03703703703704,159.4884L220.44444444444446,154.17415L215.85185185185185,148.5293L211.25925925925927,148.8251L206.66666666666666,142.98884999999999L202.07407407407408,141.06905L197.4814814814815,148.7265L192.88888888888889,156.76239999999999L188.2962962962963,156.0316L183.7037037037037,164.4735L179.1111111111111,179.39835L174.51851851851853,177.19435L169.92592592592592,187.67205L165.33333333333334,194.27100000000002L160.74074074074073,201.5355L156.14814814814812,223.89159999999998L151.55555555555554,237.1794L146.96296296296296,244.586L142.37037037037038,257.26915L137.77777777777777,261.5307L133.1851851851852,265.36885L128.59259259259258,267.3104L124,269.7406L119.4074074074074,271.5125L114.81481481481481,272.6145L110.22222222222223,273.91949999999997L105.62962962962963,275.26655L101.03703703703704,275.98285L96.44444444444444,277.9389L91.85185185185185,275.46085L87.25925925925927,279.009L82.66666666666667,278.6668L78.07407407407406,280.1168L73.48148148148148,280.44595L68.88888888888889,281.242L64.29629629629629,281.9438L59.7037037037037,282.95155L55.111111111111114,283.66205L50.51851851851852,284.6553L45.925925925925924,284.9888L41.333333333333336,285.6877L36.74074074074074,285.73555L32.148148148148145,286.7259L27.555555555555557,286.96515L22.962962962962962,287.2537L18.37037037037037,287.5698L13.777777777777779,287.86125L9.185185185185185,287.94825L4.592592592592593,288.3354L0,288.33975Z" style="fill: rgb(179, 179, 179); font-family: &quot;Roboto Slab&quot;, &quot;Helvetica Neue&quot;, Helvetica, Arial, sans-serif;" transform_matrix="{&quot;a&quot;:1,&quot;b&quot;:0,&quot;c&quot;:0,&quot;d&quot;:1,&quot;e&quot;:1104,&quot;f&quot;:619}" my_stoke="none" my_stoke_width="1px" my_stoke_opacity="1" my_fill="rgb(179, 179, 179)" my_fill_opacity="1" my_font_size="16px" opacity="1" fill="rgb(179, 179, 179)"></path><g class="brush" fill="none" pointer-events="all" style="-webkit-tap-highlight-color: rgba(0, 0, 0, 0);"><rect class="overlay" pointer-events="all" cursor="crosshair" x="0" y="0" width="620" height="290" real_x="1104" real_y="619" real_width="620" real_height="290" transform_matrix="{&quot;a&quot;:1,&quot;b&quot;:0,&quot;c&quot;:0,&quot;d&quot;:1,&quot;e&quot;:1104,&quot;f&quot;:619}" fill="none" opacity="1" stroke="none" stroke-width="1px" stroke-opacity="1"></rect><rect class="selection" cursor="move" fill="rgb(119, 119, 119)" fill-opacity="0.3" stroke="rgb(255, 255, 255)" shape-rendering="crispEdges" style="display: none;" real_x="0" real_y="0" real_width="0" real_height="0" transform_matrix="{&quot;a&quot;:1,&quot;b&quot;:0,&quot;c&quot;:0,&quot;d&quot;:1,&quot;e&quot;:1104,&quot;f&quot;:619}" opacity="1" stroke-width="1px" stroke-opacity="1"></rect><rect class="handle handle--e" cursor="ew-resize" style="display: none;" real_x="0" real_y="0" real_width="0" real_height="0" transform_matrix="{&quot;a&quot;:1,&quot;b&quot;:0,&quot;c&quot;:0,&quot;d&quot;:1,&quot;e&quot;:1104,&quot;f&quot;:619}" fill="none" opacity="1" stroke="none" stroke-width="1px" stroke-opacity="1"></rect><rect class="handle handle--w" cursor="ew-resize" style="display: none;" real_x="0" real_y="0" real_width="0" real_height="0" transform_matrix="{&quot;a&quot;:1,&quot;b&quot;:0,&quot;c&quot;:0,&quot;d&quot;:1,&quot;e&quot;:1104,&quot;f&quot;:619}" fill="none" opacity="1" stroke="none" stroke-width="1px" stroke-opacity="1"></rect></g></g><rect x="650" y="10" width="20" height="20" style="fill: rgb(102, 194, 165);" real_x="1754" real_y="629" real_width="20" real_height="20" transform_matrix="{&quot;a&quot;:1,&quot;b&quot;:0,&quot;c&quot;:0,&quot;d&quot;:1,&quot;e&quot;:1104,&quot;f&quot;:619}" fill="rgb(102, 194, 165)" opacity="1" stroke="none" stroke-width="1px" stroke-opacity="1"></rect><rect x="650" y="35" width="20" height="20" style="fill: rgb(252, 141, 98);" real_x="1754" real_y="654" real_width="20" real_height="20" transform_matrix="{&quot;a&quot;:1,&quot;b&quot;:0,&quot;c&quot;:0,&quot;d&quot;:1,&quot;e&quot;:1104,&quot;f&quot;:619}" fill="rgb(252, 141, 98)" opacity="1" stroke="none" stroke-width="1px" stroke-opacity="1"></rect><rect x="650" y="60" width="20" height="20" style="fill: rgb(141, 160, 203);" real_x="1754" real_y="679" real_width="20" real_height="20" transform_matrix="{&quot;a&quot;:1,&quot;b&quot;:0,&quot;c&quot;:0,&quot;d&quot;:1,&quot;e&quot;:1104,&quot;f&quot;:619}" fill="rgb(141, 160, 203)" opacity="1" stroke="none" stroke-width="1px" stroke-opacity="1"></rect><rect x="650" y="85" width="20" height="20" style="fill: rgb(231, 138, 195);" real_x="1754" real_y="704" real_width="20" real_height="20" transform_matrix="{&quot;a&quot;:1,&quot;b&quot;:0,&quot;c&quot;:0,&quot;d&quot;:1,&quot;e&quot;:1104,&quot;f&quot;:619}" fill="rgb(231, 138, 195)" opacity="1" stroke="none" stroke-width="1px" stroke-opacity="1"></rect><rect x="650" y="110" width="20" height="20" style="fill: rgb(166, 216, 84);" real_x="1754" real_y="729" real_width="20" real_height="20" transform_matrix="{&quot;a&quot;:1,&quot;b&quot;:0,&quot;c&quot;:0,&quot;d&quot;:1,&quot;e&quot;:1104,&quot;f&quot;:619}" fill="rgb(166, 216, 84)" opacity="1" stroke="none" stroke-width="1px" stroke-opacity="1"></rect><rect x="650" y="135" width="20" height="20" style="fill: rgb(255, 217, 47);" real_x="1754" real_y="754" real_width="20" real_height="20" transform_matrix="{&quot;a&quot;:1,&quot;b&quot;:0,&quot;c&quot;:0,&quot;d&quot;:1,&quot;e&quot;:1104,&quot;f&quot;:619}" fill="rgb(255, 217, 47)" opacity="1" stroke="none" stroke-width="1px" stroke-opacity="1"></rect><rect x="650" y="160" width="20" height="20" style="fill: rgb(229, 196, 148);" real_x="1754" real_y="779" real_width="20" real_height="20" transform_matrix="{&quot;a&quot;:1,&quot;b&quot;:0,&quot;c&quot;:0,&quot;d&quot;:1,&quot;e&quot;:1104,&quot;f&quot;:619}" fill="rgb(229, 196, 148)" opacity="1" stroke="none" stroke-width="1px" stroke-opacity="1"></rect><rect x="650" y="185" width="20" height="20" style="fill: rgb(179, 179, 179);" real_x="1754" real_y="804" real_width="20" real_height="20" transform_matrix="{&quot;a&quot;:1,&quot;b&quot;:0,&quot;c&quot;:0,&quot;d&quot;:1,&quot;e&quot;:1104,&quot;f&quot;:619}" fill="rgb(179, 179, 179)" opacity="1" stroke="none" stroke-width="1px" stroke-opacity="1"></rect><text x="674" y="20" text-anchor="left" style="fill: rgb(102, 194, 165); alignment-baseline: middle; font-family: &quot;Roboto Slab&quot;, &quot;Helvetica Neue&quot;, Helvetica, Arial, sans-serif; font-size: 16px;" transform_matrix="{&quot;a&quot;:1,&quot;b&quot;:0,&quot;c&quot;:0,&quot;d&quot;:1,&quot;e&quot;:1104,&quot;f&quot;:619}" text_bbox="{&quot;x&quot;:674,&quot;y&quot;:7.21875,&quot;w&quot;:65.046875,&quot;h&quot;:21.515625}" my_fill="rgb(102, 194, 165)" my_fill_opacity="1" my_font_size="16px" opacity="1" fill="rgb(102, 194, 165)" content="Amanda">Amanda</text><text x="674" y="45" text-anchor="left" style="fill: rgb(252, 141, 98); alignment-baseline: middle; font-family: &quot;Roboto Slab&quot;, &quot;Helvetica Neue&quot;, Helvetica, Arial, sans-serif; font-size: 16px;" transform_matrix="{&quot;a&quot;:1,&quot;b&quot;:0,&quot;c&quot;:0,&quot;d&quot;:1,&quot;e&quot;:1104,&quot;f&quot;:619}" text_bbox="{&quot;x&quot;:674,&quot;y&quot;:32.21875,&quot;w&quot;:52.59375,&quot;h&quot;:21.515625}" my_fill="rgb(252, 141, 98)" my_fill_opacity="1" my_font_size="16px" opacity="1" fill="rgb(252, 141, 98)" content="Ashley">Ashley</text><text x="674" y="70" text-anchor="left" style="fill: rgb(141, 160, 203); alignment-baseline: middle; font-family: &quot;Roboto Slab&quot;, &quot;Helvetica Neue&quot;, Helvetica, Arial, sans-serif; font-size: 16px;" transform_matrix="{&quot;a&quot;:1,&quot;b&quot;:0,&quot;c&quot;:0,&quot;d&quot;:1,&quot;e&quot;:1104,&quot;f&quot;:619}" text_bbox="{&quot;x&quot;:674,&quot;y&quot;:57.21875,&quot;w&quot;:39.328125,&quot;h&quot;:21.515625}" my_fill="rgb(141, 160, 203)" my_fill_opacity="1" my_font_size="16px" opacity="1" fill="rgb(141, 160, 203)" content="Betty">Betty</text><text x="674" y="95" text-anchor="left" style="fill: rgb(231, 138, 195); alignment-baseline: middle; font-family: &quot;Roboto Slab&quot;, &quot;Helvetica Neue&quot;, Helvetica, Arial, sans-serif; font-size: 16px;" transform_matrix="{&quot;a&quot;:1,&quot;b&quot;:0,&quot;c&quot;:0,&quot;d&quot;:1,&quot;e&quot;:1104,&quot;f&quot;:619}" text_bbox="{&quot;x&quot;:674,&quot;y&quot;:82.21875,&quot;w&quot;:62.703125,&quot;h&quot;:21.515625}" my_fill="rgb(231, 138, 195)" my_fill_opacity="1" my_font_size="16px" opacity="1" fill="rgb(231, 138, 195)" content="Deborah">Deborah</text><text x="674" y="120" text-anchor="left" style="fill: rgb(166, 216, 84); alignment-baseline: middle; font-family: &quot;Roboto Slab&quot;, &quot;Helvetica Neue&quot;, Helvetica, Arial, sans-serif; font-size: 16px;" transform_matrix="{&quot;a&quot;:1,&quot;b&quot;:0,&quot;c&quot;:0,&quot;d&quot;:1,&quot;e&quot;:1104,&quot;f&quot;:619}" text_bbox="{&quot;x&quot;:674,&quot;y&quot;:107.21875,&quot;w&quot;:59.265625,&quot;h&quot;:21.515625}" my_fill="rgb(166, 216, 84)" my_fill_opacity="1" my_font_size="16px" opacity="1" fill="rgb(166, 216, 84)" content="Dorothy">Dorothy</text><text x="674" y="145" text-anchor="left" style="fill: rgb(255, 217, 47); alignment-baseline: middle; font-family: &quot;Roboto Slab&quot;, &quot;Helvetica Neue&quot;, Helvetica, Arial, sans-serif; font-size: 16px;" transform_matrix="{&quot;a&quot;:1,&quot;b&quot;:0,&quot;c&quot;:0,&quot;d&quot;:1,&quot;e&quot;:1104,&quot;f&quot;:619}" text_bbox="{&quot;x&quot;:674,&quot;y&quot;:132.21875,&quot;w&quot;:44.3125,&quot;h&quot;:21.515625}" my_fill="rgb(255, 217, 47)" my_fill_opacity="1" my_font_size="16px" opacity="1" fill="rgb(255, 217, 47)" content="Helen">Helen</text><text x="674" y="170" text-anchor="left" style="fill: rgb(229, 196, 148); alignment-baseline: middle; font-family: &quot;Roboto Slab&quot;, &quot;Helvetica Neue&quot;, Helvetica, Arial, sans-serif; font-size: 16px;" transform_matrix="{&quot;a&quot;:1,&quot;b&quot;:0,&quot;c&quot;:0,&quot;d&quot;:1,&quot;e&quot;:1104,&quot;f&quot;:619}" text_bbox="{&quot;x&quot;:674,&quot;y&quot;:157.21875,&quot;w&quot;:43.328125,&quot;h&quot;:21.515625}" my_fill="rgb(229, 196, 148)" my_fill_opacity="1" my_font_size="16px" opacity="1" fill="rgb(229, 196, 148)" content="Linda">Linda</text><text x="674" y="195" text-anchor="left" style="fill: rgb(179, 179, 179); alignment-baseline: middle; font-family: &quot;Roboto Slab&quot;, &quot;Helvetica Neue&quot;, Helvetica, Arial, sans-serif; font-size: 16px;" transform_matrix="{&quot;a&quot;:1,&quot;b&quot;:0,&quot;c&quot;:0,&quot;d&quot;:1,&quot;e&quot;:1104,&quot;f&quot;:619}" text_bbox="{&quot;x&quot;:674,&quot;y&quot;:182.21875,&quot;w&quot;:58.640625,&quot;h&quot;:21.515625}" my_fill="rgb(179, 179, 179)" my_fill_opacity="1" my_font_size="16px" opacity="1" fill="rgb(179, 179, 179)" content="Patricia">Patricia</text></g></svg>