<svg width="460" height="400" xmlns="http://www.w3.org/2000/svg" viewBox="0 0 460 400" transform_matrix="{&quot;a&quot;:1,&quot;b&quot;:0,&quot;c&quot;:0,&quot;d&quot;:1,&quot;e&quot;:165,&quot;f&quot;:281}"><g transform="translate(60,10)"><g transform="translate(0,360)" fill="none" font-size="10" font-family="sans-serif" text-anchor="middle"><path class="domain" stroke="#000" d="M0.5,6V0.5H370.5V6" transform_matrix="{&quot;a&quot;:1,&quot;b&quot;:0,&quot;c&quot;:0,&quot;d&quot;:1,&quot;e&quot;:225,&quot;f&quot;:651}" my_stoke="rgb(0, 0, 0)" my_stoke_width="1px" my_stoke_opacity="1" my_fill="none" my_fill_opacity="1" my_font_size="10px" opacity="1" style="font-family: sans-serif;" fill="none"></path><g class="tick" opacity="1" transform="translate(0.5,0)"><line stroke="#000" y2="6" transform_matrix="{&quot;a&quot;:1,&quot;b&quot;:0,&quot;c&quot;:0,&quot;d&quot;:1,&quot;e&quot;:225.5,&quot;f&quot;:651}"></line><text fill="rgb(0, 0, 0)" y="9" dy="0.71em" transform_matrix="{&quot;a&quot;:1,&quot;b&quot;:0,&quot;c&quot;:0,&quot;d&quot;:1,&quot;e&quot;:225.5,&quot;f&quot;:651}" text_bbox="{&quot;x&quot;:-12.328125,&quot;y&quot;:5.59375,&quot;w&quot;:24.65625,&quot;h&quot;:14.015625}" opacity="1" stroke="none" stroke-width="1px" stroke-opacity="1" my_stoke="none" my_stoke_width="1px" my_stoke_opacity="1" my_fill="rgb(0, 0, 0)" my_fill_opacity="1" my_font_size="10px" style="font-family: sans-serif;">1,880</text></g><g class="tick" opacity="1" transform="translate(55.31481481481481,0)"><line stroke="#000" y2="6" transform_matrix="{&quot;a&quot;:1,&quot;b&quot;:0,&quot;c&quot;:0,&quot;d&quot;:1,&quot;e&quot;:280.31481552124023,&quot;f&quot;:651}"></line><text fill="rgb(0, 0, 0)" y="9" dy="0.71em" transform_matrix="{&quot;a&quot;:1,&quot;b&quot;:0,&quot;c&quot;:0,&quot;d&quot;:1,&quot;e&quot;:280.31481552124023,&quot;f&quot;:651}" text_bbox="{&quot;x&quot;:-12.328125,&quot;y&quot;:5.59375,&quot;w&quot;:24.65625,&quot;h&quot;:14.015625}" opacity="1" stroke="none" stroke-width="1px" stroke-opacity="1" my_stoke="none" my_stoke_width="1px" my_stoke_opacity="1" my_fill="rgb(0, 0, 0)" my_fill_opacity="1" my_font_size="10px" style="font-family: sans-serif;">1,900</text></g><g class="tick" opacity="1" transform="translate(110.12962962962962,0)"><line stroke="#000" y2="6" transform_matrix="{&quot;a&quot;:1,&quot;b&quot;:0,&quot;c&quot;:0,&quot;d&quot;:1,&quot;e&quot;:335.12963104248047,&quot;f&quot;:651}"></line><text fill="rgb(0, 0, 0)" y="9" dy="0.71em" transform_matrix="{&quot;a&quot;:1,&quot;b&quot;:0,&quot;c&quot;:0,&quot;d&quot;:1,&quot;e&quot;:335.12963104248047,&quot;f&quot;:651}" text_bbox="{&quot;x&quot;:-12.328125,&quot;y&quot;:5.59375,&quot;w&quot;:24.65625,&quot;h&quot;:14.015625}" opacity="1" stroke="none" stroke-width="1px" stroke-opacity="1" my_stoke="none" my_stoke_width="1px" my_stoke_opacity="1" my_fill="rgb(0, 0, 0)" my_fill_opacity="1" my_font_size="10px" style="font-family: sans-serif;">1,920</text></g><g class="tick" opacity="1" transform="translate(164.94444444444443,0)"><line stroke="#000" y2="6" transform_matrix="{&quot;a&quot;:1,&quot;b&quot;:0,&quot;c&quot;:0,&quot;d&quot;:1,&quot;e&quot;:389.94444274902344,&quot;f&quot;:651}"></line><text fill="rgb(0, 0, 0)" y="9" dy="0.71em" transform_matrix="{&quot;a&quot;:1,&quot;b&quot;:0,&quot;c&quot;:0,&quot;d&quot;:1,&quot;e&quot;:389.94444274902344,&quot;f&quot;:651}" text_bbox="{&quot;x&quot;:-12.328125,&quot;y&quot;:5.59375,&quot;w&quot;:24.65625,&quot;h&quot;:14.015625}" opacity="1" stroke="none" stroke-width="1px" stroke-opacity="1" my_stoke="none" my_stoke_width="1px" my_stoke_opacity="1" my_fill="rgb(0, 0, 0)" my_fill_opacity="1" my_font_size="10px" style="font-family: sans-serif;">1,940</text></g><g class="tick" opacity="1" transform="translate(219.75925925925924,0)"><line stroke="#000" y2="6" transform_matrix="{&quot;a&quot;:1,&quot;b&quot;:0,&quot;c&quot;:0,&quot;d&quot;:1,&quot;e&quot;:444.75926208496094,&quot;f&quot;:651}"></line><text fill="rgb(0, 0, 0)" y="9" dy="0.71em" transform_matrix="{&quot;a&quot;:1,&quot;b&quot;:0,&quot;c&quot;:0,&quot;d&quot;:1,&quot;e&quot;:444.75926208496094,&quot;f&quot;:651}" text_bbox="{&quot;x&quot;:-12.328125,&quot;y&quot;:5.59375,&quot;w&quot;:24.65625,&quot;h&quot;:14.015625}" opacity="1" stroke="none" stroke-width="1px" stroke-opacity="1" my_stoke="none" my_stoke_width="1px" my_stoke_opacity="1" my_fill="rgb(0, 0, 0)" my_fill_opacity="1" my_font_size="10px" style="font-family: sans-serif;">1,960</text></g><g class="tick" opacity="1" transform="translate(274.5740740740741,0)"><line stroke="#000" y2="6" transform_matrix="{&quot;a&quot;:1,&quot;b&quot;:0,&quot;c&quot;:0,&quot;d&quot;:1,&quot;e&quot;:499.5740661621094,&quot;f&quot;:651}"></line><text fill="rgb(0, 0, 0)" y="9" dy="0.71em" transform_matrix="{&quot;a&quot;:1,&quot;b&quot;:0,&quot;c&quot;:0,&quot;d&quot;:1,&quot;e&quot;:499.5740661621094,&quot;f&quot;:651}" text_bbox="{&quot;x&quot;:-12.328125,&quot;y&quot;:5.59375,&quot;w&quot;:24.65625,&quot;h&quot;:14.015625}" opacity="1" stroke="none" stroke-width="1px" stroke-opacity="1" my_stoke="none" my_stoke_width="1px" my_stoke_opacity="1" my_fill="rgb(0, 0, 0)" my_fill_opacity="1" my_font_size="10px" style="font-family: sans-serif;">1,980</text></g><g class="tick" opacity="1" transform="translate(329.38888888888886,0)"><line stroke="#000" y2="6" transform_matrix="{&quot;a&quot;:1,&quot;b&quot;:0,&quot;c&quot;:0,&quot;d&quot;:1,&quot;e&quot;:554.3888854980469,&quot;f&quot;:651}"></line><text fill="rgb(0, 0, 0)" y="9" dy="0.71em" transform_matrix="{&quot;a&quot;:1,&quot;b&quot;:0,&quot;c&quot;:0,&quot;d&quot;:1,&quot;e&quot;:554.3888854980469,&quot;f&quot;:651}" text_bbox="{&quot;x&quot;:-13.328125,&quot;y&quot;:5.59375,&quot;w&quot;:26.65625,&quot;h&quot;:14.015625}" opacity="1" stroke="none" stroke-width="1px" stroke-opacity="1" my_stoke="none" my_stoke_width="1px" my_stoke_opacity="1" my_fill="rgb(0, 0, 0)" my_fill_opacity="1" my_font_size="10px" style="font-family: sans-serif;">2,000</text></g></g><g fill="none" font-size="10" font-family="sans-serif" text-anchor="end"><path class="domain" stroke="#000" d="M-6,360.5H0.5V0.5H-6" transform_matrix="{&quot;a&quot;:1,&quot;b&quot;:0,&quot;c&quot;:0,&quot;d&quot;:1,&quot;e&quot;:225,&quot;f&quot;:291}" my_stoke="rgb(0, 0, 0)" my_stoke_width="1px" my_stoke_opacity="1" my_fill="none" my_fill_opacity="1" my_font_size="10px" opacity="1" style="font-family: sans-serif;" fill="none"></path><g class="tick" opacity="1" transform="translate(0,360.5)"><line stroke="#000" x2="-6" transform_matrix="{&quot;a&quot;:1,&quot;b&quot;:0,&quot;c&quot;:0,&quot;d&quot;:1,&quot;e&quot;:225,&quot;f&quot;:651.5}"></line><text fill="rgb(0, 0, 0)" x="-9" dy="0.32em" transform_matrix="{&quot;a&quot;:1,&quot;b&quot;:0,&quot;c&quot;:0,&quot;d&quot;:1,&quot;e&quot;:225,&quot;f&quot;:651.5}" text_bbox="{&quot;x&quot;:-15,&quot;y&quot;:-7.3125,&quot;w&quot;:6,&quot;h&quot;:14.015625}" opacity="1" stroke="none" stroke-width="1px" stroke-opacity="1" my_stoke="none" my_stoke_width="1px" my_stoke_opacity="1" my_fill="rgb(0, 0, 0)" my_fill_opacity="1" my_font_size="10px" style="font-family: sans-serif;">0</text></g><g class="tick" opacity="1" transform="translate(0,324.384430176565)"><line stroke="#000" x2="-6" transform_matrix="{&quot;a&quot;:1,&quot;b&quot;:0,&quot;c&quot;:0,&quot;d&quot;:1,&quot;e&quot;:225,&quot;f&quot;:615.3844299316406}"></line><text fill="rgb(0, 0, 0)" x="-9" dy="0.32em" transform_matrix="{&quot;a&quot;:1,&quot;b&quot;:0,&quot;c&quot;:0,&quot;d&quot;:1,&quot;e&quot;:225,&quot;f&quot;:615.3844299316406}" text_bbox="{&quot;x&quot;:-39.65625,&quot;y&quot;:-7.3125,&quot;w&quot;:30.65625,&quot;h&quot;:14.015625}" opacity="1" stroke="none" stroke-width="1px" stroke-opacity="1" my_stoke="none" my_stoke_width="1px" my_stoke_opacity="1" my_fill="rgb(0, 0, 0)" my_fill_opacity="1" my_font_size="10px" style="font-family: sans-serif;">10,000</text></g><g class="tick" opacity="1" transform="translate(0,288.26886035313)"><line stroke="#000" x2="-6" transform_matrix="{&quot;a&quot;:1,&quot;b&quot;:0,&quot;c&quot;:0,&quot;d&quot;:1,&quot;e&quot;:225,&quot;f&quot;:579.2688598632812}"></line><text fill="rgb(0, 0, 0)" x="-9" dy="0.32em" transform_matrix="{&quot;a&quot;:1,&quot;b&quot;:0,&quot;c&quot;:0,&quot;d&quot;:1,&quot;e&quot;:225,&quot;f&quot;:579.2688598632812}" text_bbox="{&quot;x&quot;:-41.640625,&quot;y&quot;:-7.3125,&quot;w&quot;:32.640625,&quot;h&quot;:14.015625}" opacity="1" stroke="none" stroke-width="1px" stroke-opacity="1" my_stoke="none" my_stoke_width="1px" my_stoke_opacity="1" my_fill="rgb(0, 0, 0)" my_fill_opacity="1" my_font_size="10px" style="font-family: sans-serif;">20,000</text></g><g class="tick" opacity="1" transform="translate(0,252.15329052969503)"><line stroke="#000" x2="-6" transform_matrix="{&quot;a&quot;:1,&quot;b&quot;:0,&quot;c&quot;:0,&quot;d&quot;:1,&quot;e&quot;:225,&quot;f&quot;:543.1532897949219}"></line><text fill="rgb(0, 0, 0)" x="-9" dy="0.32em" transform_matrix="{&quot;a&quot;:1,&quot;b&quot;:0,&quot;c&quot;:0,&quot;d&quot;:1,&quot;e&quot;:225,&quot;f&quot;:543.1532897949219}" text_bbox="{&quot;x&quot;:-41.640625,&quot;y&quot;:-7.3125,&quot;w&quot;:32.640625,&quot;h&quot;:14.015625}" opacity="1" stroke="none" stroke-width="1px" stroke-opacity="1" my_stoke="none" my_stoke_width="1px" my_stoke_opacity="1" my_fill="rgb(0, 0, 0)" my_fill_opacity="1" my_font_size="10px" style="font-family: sans-serif;">30,000</text></g><g class="tick" opacity="1" transform="translate(0,216.03772070626002)"><line stroke="#000" x2="-6" transform_matrix="{&quot;a&quot;:1,&quot;b&quot;:0,&quot;c&quot;:0,&quot;d&quot;:1,&quot;e&quot;:225,&quot;f&quot;:507.0377197265625}"></line><text fill="rgb(0, 0, 0)" x="-9" dy="0.32em" transform_matrix="{&quot;a&quot;:1,&quot;b&quot;:0,&quot;c&quot;:0,&quot;d&quot;:1,&quot;e&quot;:225,&quot;f&quot;:507.0377197265625}" text_bbox="{&quot;x&quot;:-41.640625,&quot;y&quot;:-7.3125,&quot;w&quot;:32.640625,&quot;h&quot;:14.015625}" opacity="1" stroke="none" stroke-width="1px" stroke-opacity="1" my_stoke="none" my_stoke_width="1px" my_stoke_opacity="1" my_fill="rgb(0, 0, 0)" my_fill_opacity="1" my_font_size="10px" style="font-family: sans-serif;">40,000</text></g><g class="tick" opacity="1" transform="translate(0,179.92215088282504)"><line stroke="#000" x2="-6" transform_matrix="{&quot;a&quot;:1,&quot;b&quot;:0,&quot;c&quot;:0,&quot;d&quot;:1,&quot;e&quot;:225,&quot;f&quot;:470.9221496582031}"></line><text fill="rgb(0, 0, 0)" x="-9" dy="0.32em" transform_matrix="{&quot;a&quot;:1,&quot;b&quot;:0,&quot;c&quot;:0,&quot;d&quot;:1,&quot;e&quot;:225,&quot;f&quot;:470.9221496582031}" text_bbox="{&quot;x&quot;:-41.640625,&quot;y&quot;:-7.3125,&quot;w&quot;:32.640625,&quot;h&quot;:14.015625}" opacity="1" stroke="none" stroke-width="1px" stroke-opacity="1" my_stoke="none" my_stoke_width="1px" my_stoke_opacity="1" my_fill="rgb(0, 0, 0)" my_fill_opacity="1" my_font_size="10px" style="font-family: sans-serif;">50,000</text></g><g class="tick" opacity="1" transform="translate(0,143.80658105939006)"><line stroke="#000" x2="-6" transform_matrix="{&quot;a&quot;:1,&quot;b&quot;:0,&quot;c&quot;:0,&quot;d&quot;:1,&quot;e&quot;:225,&quot;f&quot;:434.80657958984375}"></line><text fill="rgb(0, 0, 0)" x="-9" dy="0.32em" transform_matrix="{&quot;a&quot;:1,&quot;b&quot;:0,&quot;c&quot;:0,&quot;d&quot;:1,&quot;e&quot;:225,&quot;f&quot;:434.80657958984375}" text_bbox="{&quot;x&quot;:-41.640625,&quot;y&quot;:-7.3125,&quot;w&quot;:32.640625,&quot;h&quot;:14.015625}" opacity="1" stroke="none" stroke-width="1px" stroke-opacity="1" my_stoke="none" my_stoke_width="1px" my_stoke_opacity="1" my_fill="rgb(0, 0, 0)" my_fill_opacity="1" my_font_size="10px" style="font-family: sans-serif;">60,000</text></g><g class="tick" opacity="1" transform="translate(0,107.69101123595505)"><line stroke="#000" x2="-6" transform_matrix="{&quot;a&quot;:1,&quot;b&quot;:0,&quot;c&quot;:0,&quot;d&quot;:1,&quot;e&quot;:225,&quot;f&quot;:398.6910095214844}"></line><text fill="rgb(0, 0, 0)" x="-9" dy="0.32em" transform_matrix="{&quot;a&quot;:1,&quot;b&quot;:0,&quot;c&quot;:0,&quot;d&quot;:1,&quot;e&quot;:225,&quot;f&quot;:398.6910095214844}" text_bbox="{&quot;x&quot;:-41.125,&quot;y&quot;:-7.3125,&quot;w&quot;:32.125,&quot;h&quot;:14.015625}" opacity="1" stroke="none" stroke-width="1px" stroke-opacity="1" my_stoke="none" my_stoke_width="1px" my_stoke_opacity="1" my_fill="rgb(0, 0, 0)" my_fill_opacity="1" my_font_size="10px" style="font-family: sans-serif;">70,000</text></g><g class="tick" opacity="1" transform="translate(0,71.57544141252004)"><line stroke="#000" x2="-6" transform_matrix="{&quot;a&quot;:1,&quot;b&quot;:0,&quot;c&quot;:0,&quot;d&quot;:1,&quot;e&quot;:225,&quot;f&quot;:362.575439453125}"></line><text fill="rgb(0, 0, 0)" x="-9" dy="0.32em" transform_matrix="{&quot;a&quot;:1,&quot;b&quot;:0,&quot;c&quot;:0,&quot;d&quot;:1,&quot;e&quot;:225,&quot;f&quot;:362.575439453125}" text_bbox="{&quot;x&quot;:-41.640625,&quot;y&quot;:-7.3125,&quot;w&quot;:32.640625,&quot;h&quot;:14.015625}" opacity="1" stroke="none" stroke-width="1px" stroke-opacity="1" my_stoke="none" my_stoke_width="1px" my_stoke_opacity="1" my_fill="rgb(0, 0, 0)" my_fill_opacity="1" my_font_size="10px" style="font-family: sans-serif;">80,000</text></g><g class="tick" opacity="1" transform="translate(0,35.45987158908508)"><line stroke="#000" x2="-6" transform_matrix="{&quot;a&quot;:1,&quot;b&quot;:0,&quot;c&quot;:0,&quot;d&quot;:1,&quot;e&quot;:225,&quot;f&quot;:326.4598731994629}"></line><text fill="rgb(0, 0, 0)" x="-9" dy="0.32em" transform_matrix="{&quot;a&quot;:1,&quot;b&quot;:0,&quot;c&quot;:0,&quot;d&quot;:1,&quot;e&quot;:225,&quot;f&quot;:326.4598731994629}" text_bbox="{&quot;x&quot;:-41.640625,&quot;y&quot;:-7.3125,&quot;w&quot;:32.640625,&quot;h&quot;:14.015625}" opacity="1" stroke="none" stroke-width="1px" stroke-opacity="1" my_stoke="none" my_stoke_width="1px" my_stoke_opacity="1" my_fill="rgb(0, 0, 0)" my_fill_opacity="1" my_font_size="10px" style="font-family: sans-serif;">90,000</text></g></g><path fill="none" stroke="#e41a1c" stroke-width="1.5" d="M0,357.70304975922954L2.740740740740741,357.78972712680576L5.481481481481482,356.97351524879616L8.222222222222223,356.8868378812199L10.962962962962964,356.4390048154093L13.703703703703702,355.90449438202245L16.444444444444446,355.4241573033708L19.185185185185183,354.9257624398074L21.925925925925927,353.3294542536116L24.666666666666668,353.10553772070625L27.407407407407405,351.6500802568218L30.148148148148152,351.2708667736758L32.88888888888889,349.3964686998395L35.629629629629626,348.266051364366L38.37037037037037,346.7239165329053L41.11111111111111,345.4707062600321L43.851851851851855,344.13804173354737L46.59259259259259,343.6793739967897L49.333333333333336,341.1115569823435L52.074074074074076,341.76886035313004L54.81481481481481,337.0918940609952L57.55555555555556,341.0501605136437L60.296296296296305,338.4498394863563L63.03703703703704,337.8647672552167L65.77777777777779,336.5682182985554L68.51851851851852,335.40168539325845L71.25925925925925,334.08346709470305L74,332.6280096308186L76.74074074074073,329.5220706260032L79.48148148148148,326.59309791332265L82.22222222222221,322.15449438202245L84.96296296296296,317.37640449438203L87.70370370370371,301.73475120385234L90.44444444444444,291.78130016051364L93.18518518518518,276.13603531300157L95.92592592592592,248.52568218298558L98.66666666666667,242.04293739967898L101.4074074074074,236.30778491171748L104.14814814814815,229.4422150882825L106.88888888888889,238.27247191011236L109.62962962962962,233.24157303370785L112.37037037037037,234.2491974317817L115.11111111111111,242.59911717495987L117.85185185185186,246.26484751203853L120.59259259259261,247.34470304975923L123.33333333333333,254.65810593900483L126.07407407407408,262.90690208667735L128.8148148148148,268.569823434992L131.55555555555557,277.16532905296947L134.2962962962963,284.21869983948636L137.03703703703704,288.0794542536116L139.77777777777777,296.23073836276086L142.5185185185185,300.8607544141252L145.25925925925927,307.10874799357947L148,309.080658105939L150.74074074074073,313.8515248796148L153.48148148148147,315.8234349919743L156.22222222222223,318.64044943820227L158.96296296296296,320.87600321027287L161.70370370370372,322.37841091492777L164.44444444444443,323.158507223114L167.1851851851852,324.2853130016051L169.92592592592592,323.83747993579453L172.66666666666666,324.61035313001605L175.40740740740742,328.604735152488L178.14814814814815,330.02407704654894L180.88888888888889,328.0304975922953L183.62962962962962,327.57544141252004L186.37037037037035,330.0060192616372L189.1111111111111,332.158507223114L191.85185185185185,334.5024077046549L194.59259259259258,334.9177367576244L197.33333333333334,336.63322632423757L200.07407407407408,337.8972712680578L202.8148148148148,338.5473515248796L205.55555555555557,339.78972712680576L208.2962962962963,340.93459069020867L211.03703703703707,341.88804173354737L213.77777777777777,342.79815409309793L216.5185185185185,344.18860353130015L219.25925925925924,345.3045746388443L222,346.07744783306583L224.74074074074073,347.0453451043339L227.4814814814815,347.9373996789727L230.22222222222223,348.8222311396469L232.96296296296296,349.8731942215088L235.70370370370372,351.15529695024077L238.44444444444446,352.2243178170144L241.18518518518522,353.20666131621186L243.9259259259259,353.29333868378814L246.66666666666666,353.8061797752809L249.4074074074074,354.79574638844304L252.14814814814815,355.5036115569823L254.88888888888889,355.9081059390048L257.6296296296296,355.8828250401284L260.3703703703704,356.1825842696629L263.11111111111114,356.59791332263245L265.85185185185185,356.41733547351527L268.5925925925926,356.67014446227927L271.3333333333333,356.82544141252004L274.0740740740741,356.7170947030498L276.8148148148148,356.76404494382024L279.55555555555554,356.83988764044943L282.2962962962963,356.95184590690207L285.037037037037,356.8976725521669L287.77777777777777,357.0782504012841L290.51851851851853,357.23354735152486L293.2592592592593,357.05658105939006L296,357.2010433386838L298.74074074074076,356.9048956661316L301.48148148148147,356.89044943820227L304.22222222222223,357.2082664526485L306.96296296296293,357.0132423756019L309.7037037037037,356.86516853932585L312.44444444444446,356.9373996789727L315.18518518518516,356.9771268057785L317.9259259259259,356.74959871589084L320.6666666666667,357.0674157303371L323.40740740740745,356.9951845906902L326.14814814814815,356.96268057784914L328.88888888888886,356.7857142857143L331.6296296296296,356.8073836276084L334.3703703703704,356.83988764044943L337.1111111111111,357.17215088282506L339.85185185185185,356.8940609951846L342.5925925925926,356.5329052969502L345.3333333333333,356.57624398073835L348.0740740740741,356.6376404494382L350.81481481481484,356.8073836276084L353.5555555555556,357.0168539325843L356.2962962962963,357.4610754414125L359.037037037037,357.3671749598716L361.77777777777777,357.2118780096308L364.51851851851853,357.3346709470305L367.25925925925924,357.10714285714283L370,357.266051364366" transform_matrix="{&quot;a&quot;:1,&quot;b&quot;:0,&quot;c&quot;:0,&quot;d&quot;:1,&quot;e&quot;:225,&quot;f&quot;:291}" my_stoke="rgb(228, 26, 28)" my_stoke_width="1.5px" my_stoke_opacity="1" my_fill="none" my_fill_opacity="1" my_font_size="16px" opacity="1" style="font-family: &quot;Roboto Slab&quot;, &quot;Helvetica Neue&quot;, Helvetica, Arial, sans-serif;"></path><path fill="none" stroke="#377eb8" stroke-width="1.5" d="M0,359.1296147672552L2.740740740740741,359.0501605136437L5.481481481481482,358.9598715890851L8.222222222222223,358.9634831460674L10.962962962962964,358.7829052969502L13.703703703703702,358.7756821829856L16.444444444444446,358.6637239165329L19.185185185185183,358.7792937399679L21.925925925925927,358.54093097913324L24.666666666666668,358.5084269662921L27.407407407407405,358.5842696629214L30.148148148148152,358.66011235955057L32.88888888888889,358.35674157303373L35.629629629629626,358.6023274478331L38.37037037037037,358.4903691813804L41.11111111111111,358.44341894060994L43.851851851851855,358.6745585874799L46.59259259259259,358.7215088282504L49.333333333333336,358.66011235955057L52.074074074074076,358.82263242375603L54.81481481481481,358.6384430176565L57.55555555555556,358.8551364365971L60.296296296296305,358.9129213483146L63.03703703703704,359.10794542536115L65.77777777777779,358.938202247191L68.51851851851852,358.8768057784912L71.25925925925925,359.0609951845907L74,358.9707062600321L76.74074074074073,359.0609951845907L79.48148148148148,359.02126805778494L82.22222222222221,358.9959871589085L84.96296296296296,358.9887640449438L87.70370370370371,358.8804173354735L90.44444444444444,358.75040128410916L93.18518518518518,358.64566613162117L95.92592592592592,358.5120385232745L98.66666666666667,358.4795345104334L101.4074074074074,358.39285714285717L104.14814814814815,358.56621187800965L106.88888888888889,358.63121990369183L109.62962962962962,358.63121990369183L112.37037037037037,358.5842696629214L115.11111111111111,358.7684590690209L117.85185185185186,358.6926163723916L120.59259259259261,358.7684590690209L123.33333333333333,358.8804173354735L126.07407407407408,358.8804173354735L128.8148148148148,359.1548956661316L131.55555555555557,359.10794542536115L134.2962962962963,359.2451845906902L137.03703703703704,359.29213483146066L139.77777777777777,359.2451845906902L142.5185185185185,359.23073836276086L145.25925925925927,359.28130016051364L148,359.3174157303371L150.74074074074073,359.2379614767255L153.48148148148147,359.30658105939006L156.22222222222223,359.36436597110753L158.96296296296296,359.30658105939006L161.70370370370372,359.3318619582665L164.44444444444443,359.21268057784914L167.1851851851852,359.1946227929374L169.92592592592592,358.93459069020867L172.66666666666666,358.9743178170144L175.40740740740742,359.14044943820227L178.14814814814815,358.9887640449438L180.88888888888889,359.01043338683786L183.62962962962962,358.8804173354735L186.37037037037035,358.8948635634029L189.1111111111111,358.7973515248796L191.85185185185185,358.63121990369183L194.59259259259258,358.5228731942215L197.33333333333334,358.4903691813804L200.07407407407408,358.45425361155696L202.8148148148148,358.45425361155696L205.55555555555557,358.36757624398075L208.2962962962963,357.6777688603531L211.03703703703707,357.5910914927769L213.77777777777777,357.12520064205455L216.5185185185185,356.9012841091493L219.25925925925924,356.4715088282504L222,356.1825842696629L224.74074074074073,356.57624398073835L227.4814814814815,356.2620385232745L230.22222222222223,355.39526484751207L232.96296296296296,354.04093097913324L235.70370370370372,351.588683788122L238.44444444444446,350.38242375601925L241.18518518518522,351.2239165329053L243.9259259259259,349.82624398073835L246.66666666666666,347.1789727126806L249.4074074074074,345.0734349919743L252.14814814814815,344.9000802568218L254.88888888888889,339.6777688603531L257.6296296296296,333L260.3703703703704,314.3029695024077L263.11111111111114,303.6922150882825L265.85185185185185,293.9807383627608L268.5925925925926,285.8836276083467L271.3333333333333,244.6938202247191L274.0740740740741,230.6376404494382L276.8148148148148,235.8599518459069L279.55555555555554,236.4486356340289L282.2962962962963,238.09550561797752L285.037037037037,237.54654895666133L287.77777777777777,218.96869983948636L290.51851851851853,213.6524879614767L293.2592592592593,209.08747993579453L296,217.52046548956662L298.74074074074076,226.99719101123597L301.48148148148147,235.74438202247194L304.22222222222223,255.67295345104333L306.96296296296293,269.58828250401285L309.7037037037037,284.84711075441413L312.44444444444446,292.4097110754414L315.18518518518516,300.9691011235955L317.9259259259259,309.5357142857143L320.6666666666667,315.79815409309793L323.40740740740745,320.6051364365971L326.14814814814815,324.819823434992L328.88888888888886,329.12118780096307L331.6296296296296,334.8527287319422L334.3703703703704,337.85393258426967L337.1111111111111,340.71789727126804L339.85185185185185,343.10874799357947L342.5925925925926,345.23595505617976L345.3333333333333,347.88322632423757L348.0740740740741,349.0280898876405L350.81481481481484,351.1914125200642L353.5555555555556,352.9502407704655L356.2962962962963,354.0228731942215L359.037037037037,354.911316211878L361.77777777777777,355.5650080256822L364.51851851851853,356.1573033707865L367.25925925925924,356.215088282504L370,356.341492776886" transform_matrix="{&quot;a&quot;:1,&quot;b&quot;:0,&quot;c&quot;:0,&quot;d&quot;:1,&quot;e&quot;:225,&quot;f&quot;:291}" my_stoke="rgb(55, 126, 184)" my_stoke_width="1.5px" my_stoke_opacity="1" my_fill="none" my_fill_opacity="1" my_font_size="16px" opacity="1" style="font-family: &quot;Roboto Slab&quot;, &quot;Helvetica Neue&quot;, Helvetica, Arial, sans-serif;"></path><path fill="none" stroke="#4daf4a" stroke-width="1.5" d="M0,359.57744783306583L2.740740740740741,359.59550561797755L5.481481481481482,359.55577849117174L8.222222222222223,359.56661316211876L10.962962962962964,359.47993579454254L13.703703703703702,359.4402086677368L16.444444444444446,359.39686998394865L19.185185185185183,359.35714285714283L21.925925925925927,359.2271268057785L24.666666666666668,359.3174157303371L27.407407407407405,359.2199036918138L30.148148148148152,359.1368378812199L32.88888888888889,359.0790529695024L35.629629629629626,358.92375601926165L38.37037037037037,358.92375601926165L41.11111111111111,358.73595505617976L43.851851851851855,358.7648475120385L46.59259259259259,358.6745585874799L49.333333333333336,358.4795345104334L52.074074074074076,358.51926163723914L54.81481481481481,357.60192616372393L57.55555555555556,358.2881219903692L60.296296296296305,357.90529695024077L63.03703703703704,357.8475120385233L65.77777777777779,357.44662921348316L68.51851851851852,357.0854735152488L71.25925925925925,356.87600321027287L74,356.3234349919743L76.74074074074073,355.92616372391655L79.48148148148148,356.09229534510433L82.22222222222221,354.98354735152486L84.96296296296296,354.7415730337079L87.70370370370371,352.73715890850724L90.44444444444444,351.9137239165329L93.18518518518518,349.4073033707865L95.92592592592592,344.8964686998395L98.66666666666667,341.4510433386838L101.4074074074074,336.0228731942215L104.14814814814815,328.2110754414125L106.88888888888889,323.49799357945426L109.62962962962962,309.3768057784912L112.37037037037037,296.3029695024077L115.11111111111111,284.5437399678973L117.85185185185186,266.13563402889247L120.59259259259261,249.47913322632422L123.33333333333333,241.47953451043338L126.07407407407408,240.96669341894062L128.8148148148148,232.07142857142856L131.55555555555557,229.70224719101122L134.2962962962963,227.56781701444623L137.03703703703704,221.89767255216694L139.77777777777777,229.61556982343498L142.5185185185185,235.72271268057784L145.25925925925927,246.14205457463885L148,247.76003210272876L150.74074074074073,256.44582664526484L153.48148148148147,266.5943017656501L156.22222222222223,268.52648475120384L158.96296296296296,267.8980738362761L161.70370370370372,274.62640449438203L164.44444444444443,280.2784911717496L167.1851851851852,284.5184590690209L169.92592592592592,281.7953451043339L172.66666666666666,282.0084269662921L175.40740740740742,288.6464686998395L178.14814814814815,293.60874799357947L180.88888888888889,288.80176565008026L183.62962962962962,291.51765650080256L186.37037037037035,299.96869983948636L189.1111111111111,306.02166934189404L191.85185185185185,310.8322632423756L194.59259259259258,313.6998394863563L197.33333333333334,316.2098715890851L200.07407407407408,318.9474317817014L202.8148148148148,321.66332263242373L205.55555555555557,324.14446227929375L208.2962962962963,326.7267255216693L211.03703703703707,329.39566613162117L213.77777777777777,332.158507223114L216.5185185185185,333.5742375601926L219.25925925925924,336.51404494382024L222,339.8475120385233L224.74074074074073,342.79093097913324L227.4814814814815,344.9975922953451L230.22222222222223,345.311797752809L232.96296296296296,347.12479935794545L235.70370370370372,349.35313001605135L238.44444444444446,350.8158105939005L241.18518518518522,352.292937399679L243.9259259259259,352.2965489566613L246.66666666666666,352.89606741573033L249.4074074074074,353.6328250401284L252.14814814814815,355.06661316211876L254.88888888888889,355.2219101123595L257.6296296296296,355.91894060995185L260.3703703703704,356.3126003210273L263.11111111111114,356.7207062600321L265.85185185185185,357.0854735152488L268.5925925925926,357.4177367576244L271.3333333333333,357.43218298555377L274.0740740740741,357.62359550561797L276.8148148148148,357.60914927768863L279.55555555555554,357.70666131621186L282.2962962962963,357.9666934189406L285.037037037037,358.18338683788124L287.77777777777777,358.18699839486356L290.51851851851853,358.5300963081862L293.2592592592593,358.4289727126806L296,358.5734349919743L298.74074074074076,358.55898876404495L301.48148148148147,358.53370786516854L304.22222222222223,358.7540128410915L306.96296296296293,358.93097913322634L309.7037037037037,358.9454253611557L312.44444444444446,359.00682182985554L315.18518518518516,359.1548956661316L317.9259259259259,359.21629213483146L320.6666666666667,359.3174157303371L323.40740740740745,359.29935794542536L326.14814814814815,359.3426966292135L328.88888888888886,359.37158908507223L331.6296296296296,359.4474317817014L334.3703703703704,359.5413322632424L337.1111111111111,359.48715890850724L339.85185185185185,359.5088282504013L342.5925925925926,359.5232744783307L345.3333333333333,359.5124398073836L348.0740740740741,359.516051364366L350.81481481481484,359.50521669341896L353.5555555555556,359.46548956661314L356.2962962962963,359.5232744783307L359.037037037037,359.39686998394865L361.77777777777777,359.4943820224719L364.51851851851853,359.37158908507223L367.25925925925924,359.3029695024077L370,359.3282504012841" transform_matrix="{&quot;a&quot;:1,&quot;b&quot;:0,&quot;c&quot;:0,&quot;d&quot;:1,&quot;e&quot;:225,&quot;f&quot;:291}" my_stoke="rgb(77, 175, 74)" my_stoke_width="1.5px" my_stoke_opacity="1" my_fill="none" my_fill_opacity="1" my_font_size="16px" opacity="1" style="font-family: &quot;Roboto Slab&quot;, &quot;Helvetica Neue&quot;, Helvetica, Arial, sans-serif;"></path><path fill="none" stroke="#984ea3" stroke-width="1.5" d="M0,359.59550561797755L2.740740740740741,359.60634028892457L5.481481481481482,359.5846709470305L8.222222222222223,359.49077046548956L10.962962962962964,359.411316211878L13.703703703703702,359.29213483146066L16.444444444444446,359.169341894061L19.185185185185183,359.01765650080256L21.925925925925927,358.65288924558587L24.666666666666668,358.6384430176565L27.407407407407405,358.34590690208665L30.148148148148152,357.9558587479936L32.88888888888889,357.739165329053L35.629629629629626,357.034911717496L38.37037037037037,356.20064205457464L41.11111111111111,355.92977528089887L43.851851851851855,355.06661316211876L46.59259259259259,354.68378812199035L49.333333333333336,353.965088282504L52.074074074074076,353.9073033707865L54.81481481481481,351.0036115569823L57.55555555555556,352.15208667736755L60.296296296296305,350.22351524879616L63.03703703703704,348.8836276083467L65.77777777777779,347.4426163723916L68.51851851851852,345.78130016051364L71.25925925925925,344.37640449438203L74,342.06139646869985L76.74074074074073,339.403290529695L79.48148148148148,337.4169341894061L82.22222222222221,333.5706260032103L84.96296296296296,327.9691011235955L87.70370370370371,314.3318619582665L90.44444444444444,307.0040128410915L93.18518518518518,292.1677367576244L95.92592592592592,269.1548956661316L98.66666666666667,260.989165329053L101.4074074074074,255.79574638844304L104.14814814814815,244.30738362760835L106.88888888888889,245.3908507223114L109.62962962962962,227.65449438202248L112.37037037037037,218.84951845906903L115.11111111111111,223.80457463884431L117.85185185185186,218.98675762439808L120.59259259259261,215.55216693418942L123.33333333333333,220.69502407704655L126.07407407407408,227.7664526484751L128.8148148148148,230.03089887640448L131.55555555555557,238.18940609951846L134.2962962962963,246.31902086677366L137.03703703703704,250.19422150882826L139.77777777777777,264.21789727126804L142.5185185185185,269.8266452648475L145.25925925925927,280.36516853932585L148,283.14606741573033L150.74074074074073,289.9357945425361L153.48148148148147,296.19101123595505L156.22222222222223,300.15288924558587L158.96296296296296,300.9582664526485L161.70370370370372,305.21268057784914L164.44444444444443,306.2817014446228L167.1851851851852,307.4121187800963L169.92592592592592,305.7110754414125L172.66666666666666,306.60313001605135L175.40740740740742,311.68459069020867L178.14814814814815,315.4767255216693L180.88888888888889,313.7865168539326L183.62962962962962,313.94903691813806L186.37037037037035,319.09550561797755L189.1111111111111,322.4181380417335L191.85185185185185,325.4915730337079L194.59259259259258,327.1998394863563L197.33333333333334,328.91171749598715L200.07407407407408,330.5513643659711L202.8148148148148,331.8623595505618L205.55555555555557,333.8487158908507L208.2962962962963,335.2174959871589L211.03703703703707,336.88242375601925L213.77777777777777,339.99558587479936L216.5185185185185,341.08266452648473L219.25925925925924,341.66412520064205L222,342.9317817014446L224.74074074074073,345.2829052969502L227.4814814814815,346.3085874799358L230.22222222222223,347.2331460674157L232.96296296296296,349.3097913322632L235.70370370370372,350.3679775280899L238.44444444444446,351.63563402889247L241.18518518518522,352.47351524879616L243.9259259259259,353.57865168539325L246.66666666666666,353.49197431781704L249.4074074074074,354.12760834670945L252.14814814814815,355.38804173354737L254.88888888888889,355.7564205457464L257.6296296296296,356.02728731942216L260.3703703703704,356.47873194221506L263.11111111111114,356.4498394863563L265.85185185185185,356.6268057784912L268.5925925925926,356.7026484751204L271.3333333333333,356.78932584269666L274.0740740740741,356.76765650080256L276.8148148148148,357.15770465489567L279.55555555555554,357.0096308186196L282.2962962962963,357.2588282504013L285.037037037037,357.53691813804176L287.77777777777777,357.403290529695L290.51851851851853,357.72833065810596L293.2592592592593,357.7825040128411L296,357.80417335473516L298.74074074074076,357.760834670947L301.48148148148147,357.8475120385233L304.22222222222223,358.20144462279296L306.96296296296293,358.1653290529695L309.7037037037037,358.2808988764045L312.44444444444446,358.4036918138042L315.18518518518516,358.64205457463885L317.9259259259259,358.73595505617976L320.6666666666667,358.8623595505618L323.40740740740745,358.8731942215088L326.14814814814815,358.7901284109149L328.88888888888886,358.8731942215088L331.6296296296296,358.8551364365971L334.3703703703704,359.0501605136437L337.1111111111111,358.94903691813806L339.85185185185185,358.9598715890851L342.5925925925926,359.1548956661316L345.3333333333333,359.042937399679L348.0740740740741,359.053772070626L350.81481481481484,359.12600321027287L353.5555555555556,359.18378812199035L356.2962962962963,359.13322632423757L359.037037037037,359.0032102728732L361.77777777777777,358.99959871589084L364.51851851851853,358.7937399678973L367.25925925925924,358.6203852327448L370,358.5734349919743" transform_matrix="{&quot;a&quot;:1,&quot;b&quot;:0,&quot;c&quot;:0,&quot;d&quot;:1,&quot;e&quot;:225,&quot;f&quot;:291}" my_stoke="rgb(152, 78, 163)" my_stoke_width="1.5px" my_stoke_opacity="1" my_fill="none" my_fill_opacity="1" my_font_size="16px" opacity="1" style="font-family: &quot;Roboto Slab&quot;, &quot;Helvetica Neue&quot;, Helvetica, Arial, sans-serif;"></path><path fill="none" stroke="#ff7f00" stroke-width="1.5" d="M0,359.9024879614767L2.740740740740741,359.86276083467095L5.481481481481482,359.86998394863565L8.222222222222223,359.8230337078652L10.962962962962964,359.88081861958267L13.703703703703702,359.7833065810594L16.444444444444446,359.8230337078652L19.185185185185183,359.8194221508828L21.925925925925927,359.7219101123595L24.666666666666668,359.7327447833066L27.407407407407405,359.8049759229535L30.148148148148152,359.7182985553772L32.88888888888889,359.7002407704655L35.629629629629626,359.7038523274478L38.37037037037037,359.6605136436597L41.11111111111111,359.653290529695L43.851851851851855,359.6243980738363L46.59259259259259,359.7074638844302L49.333333333333336,359.631621187801L52.074074074074076,359.64606741573033L54.81481481481481,359.5449438202247L57.55555555555556,359.68940609951846L60.296296296296305,359.67134831460675L63.03703703703704,359.67495987158907L65.77777777777779,359.6352327447833L68.51851851851852,359.6171749598716L71.25925925925925,359.64606741573033L74,359.631621187801L76.74074074074073,359.66412520064205L79.48148148148148,359.6207865168539L82.22222222222221,359.50521669341896L84.96296296296296,359.5304975922953L87.70370370370371,359.3174157303371L90.44444444444444,359.14044943820227L93.18518518518518,359.20906902086676L95.92592592592592,358.9526484751204L98.66666666666667,358.92736757624397L101.4074074074074,358.94903691813806L104.14814814814815,358.8370786516854L106.88888888888889,358.9815409309791L109.62962962962962,358.73956661316214L112.37037037037037,358.6745585874799L115.11111111111111,358.6817817014446L117.85185185185186,358.4723113964687L120.59259259259261,358.36035313001605L123.33333333333333,358.4181380417335L126.07407407407408,358.27006420545746L128.8148148148148,358.13643659711073L131.55555555555557,357.9991974317817L134.2962962962963,358.16171749598715L137.03703703703704,358.2195024077047L139.77777777777777,358.07142857142856L142.5185185185185,357.2046548956661L145.25925925925927,357.161316211878L148,356.38483146067415L150.74074074074073,355.6769662921348L153.48148148148147,351.1914125200642L156.22222222222223,344.18138041733545L158.96296296296296,334.54935794542536L161.70370370370372,321.30577849117174L164.44444444444443,293.6629213483146L167.1851851851852,274.35192616372393L169.92592592592592,245.83507223113963L172.66666666666666,221.18258426966293L175.40740740740742,221.27648475120387L178.14814814814815,210.25040128410916L180.88888888888889,169.64205457463885L183.62962962962962,0L186.37037037037035,12.528491171749636L189.1111111111111,31.312199036918116L191.85185185185185,69.48996789727124L194.59259259259258,92.93619582664525L197.33333333333334,117.69341894060997L200.07407407407408,138.74157303370785L202.8148148148148,160.0244783306581L205.55555555555557,174.8029695024077L208.2962962962963,186.40329052969503L211.03703703703707,199.30377207062602L213.77777777777777,208.68298555377206L216.5185185185185,214.06059390048154L219.25925925925924,225.23836276083466L222,231.52247191011236L224.74074074074073,246.3731942215088L227.4814814814815,259.9056982343499L230.22222222222223,274.64807383627607L232.96296296296296,290.1560995184591L235.70370370370372,303.80417335473516L238.44444444444446,312.33105939004815L241.18518518518522,318.9438202247191L243.9259259259259,322.9887640449438L246.66666666666666,328.45666131621186L249.4074074074074,333.3503210272873L252.14814814814815,339.24799357945426L254.88888888888889,342.89927768860355L257.6296296296296,345.2467897271268L260.3703703703704,347.26926163723914L263.11111111111114,348.6560995184591L265.85185185185185,349.4939807383628L268.5925925925926,349.3964686998395L271.3333333333333,350.10794542536115L274.0740740740741,349.8695826645265L276.8148148148148,350.14044943820227L279.55555555555554,349.93459069020867L282.2962962962963,351.06861958266455L285.037037037037,351.5706260032103L287.77777777777777,352.36878009630817L290.51851851851853,352.9538523274478L293.2592592592593,353.0333065810594L296,353.3402889245586L298.74074074074076,353.3402889245586L301.48148148148147,354.0120385232745L304.22222222222223,354.1926163723916L306.96296296296293,354.2937399678973L309.7037037037037,354.6296147672552L312.44444444444446,355.37359550561797L315.18518518518516,355.54695024077046L317.9259259259259,356.435393258427L320.6666666666667,356.0453451043339L323.40740740740745,356.4967897271268L326.14814814814815,356.75682182985554L328.88888888888886,356.93378812199035L331.6296296296296,356.9771268057785L334.3703703703704,357.22271268057784L337.1111111111111,357.33105939004815L339.85185185185185,357.3743980738363L342.5925925925926,357.3093900481541L345.3333333333333,357.4791332263242L348.0740740740741,357.61998394863565L350.81481481481484,357.79333868378814L353.5555555555556,358.0136436597111L356.2962962962963,358.2808988764045L359.037037037037,358.2375601926164L361.77777777777777,358.3820224719101L364.51851851851853,358.4073033707865L367.25925925925924,358.3025682182986L370,358.4723113964687" transform_matrix="{&quot;a&quot;:1,&quot;b&quot;:0,&quot;c&quot;:0,&quot;d&quot;:1,&quot;e&quot;:225,&quot;f&quot;:291}" my_stoke="rgb(255, 127, 0)" my_stoke_width="1.5px" my_stoke_opacity="1" my_fill="none" my_fill_opacity="1" my_font_size="16px" opacity="1" style="font-family: &quot;Roboto Slab&quot;, &quot;Helvetica Neue&quot;, Helvetica, Arial, sans-serif;"></path><path fill="none" stroke="#ffff33" stroke-width="1.5" d="M0,359.95666131621186L2.740740740740741,359.94943820224717L5.481481481481482,359.94582664526484L8.222222222222223,359.9422150882825L10.962962962962964,359.95304975922954L13.703703703703702,359.96388443017656L16.444444444444446,359.96388443017656L19.185185185185183,359.94582664526484L21.925925925925927,359.9060995184591L24.666666666666668,359.95666131621186L27.407407407407405,359.91332263242373L30.148148148148152,359.94582664526484L32.88888888888889,359.9422150882825L35.629629629629626,359.91332263242373L38.37037037037037,359.9349919743178L41.11111111111111,359.95304975922954L43.851851851851855,359.9349919743178L46.59259259259259,359.9169341894061L49.333333333333336,359.9241573033708L52.074074074074076,359.96027287319424L54.81481481481481,359.9060995184591L57.55555555555556,359.9241573033708L60.296296296296305,359.9241573033708L63.03703703703704,359.9241573033708L65.77777777777779,359.9169341894061L68.51851851851852,359.9349919743178L71.25925925925925,359.9097110754414L74,359.9241573033708L76.74074074074073,359.9097110754414L79.48148148148148,359.9060995184591L82.22222222222221,359.88081861958267L84.96296296296296,359.86998394863565L87.70370370370371,359.884430176565L90.44444444444444,359.84831460674155L93.18518518518518,359.7760834670947L95.92592592592592,359.6171749598716L98.66666666666667,359.67495987158907L101.4074074074074,359.67857142857144L104.14814814814815,359.6677367576244L106.88888888888889,359.74719101123594L109.62962962962962,359.7038523274478L112.37037037037037,359.6605136436597L115.11111111111111,359.7435794542536L117.85185185185186,359.57383627608345L120.59259259259261,359.54855537720704L123.33333333333333,359.7038523274478L126.07407407407408,359.58105939004815L128.8148148148148,359.67134831460675L131.55555555555557,359.5304975922953L134.2962962962963,359.4185393258427L137.03703703703704,359.40409309791335L139.77777777777777,359.4293739967897L142.5185185185185,359.2487961476726L145.25925925925927,359.12239165329055L148,358.9887640449438L150.74074074074073,358.99237560192614L153.48148148148147,358.92014446227927L156.22222222222223,358.83346709470305L158.96296296296296,358.51926163723914L161.70370370370372,358.4000802568218L164.44444444444443,358.3061797752809L167.1851851851852,357.80417335473516L169.92592592592592,357.5585874799358L172.66666666666666,357.15409309791335L175.40740740740742,355.33025682182983L178.14814814814815,354.71268057784914L180.88888888888889,351.0794542536116L183.62962962962962,338.9157303370786L186.37037037037035,319.384430176565L189.1111111111111,290.62921348314603L191.85185185185185,255.00120385232742L194.59259259259258,208.15208667736758L197.33333333333334,180.11195826645266L200.07407407407408,171.49117174959872L202.8148148148148,162.5417335473515L205.55555555555557,171.06500802568218L208.2962962962963,187.2628410914928L211.03703703703707,215.3029695024077L213.77777777777777,241.04975922953452L216.5185185185185,253.2712680577849L219.25925925925924,268.73956661316214L222,272.9903691813804L224.74074074074073,277.3206260032103L227.4814814814815,283.93338683788124L230.22222222222223,290.2752808988764L232.96296296296296,298.303772070626L235.70370370370372,301.3121990369182L238.44444444444446,309.4129213483146L241.18518518518522,315.62841091492777L243.9259259259259,319.6011235955056L246.66666666666666,324.4153290529695L249.4074074074074,328.66974317817017L252.14814814814815,337.3230337078652L254.88888888888889,342L257.6296296296296,344.3077849117175L260.3703703703704,347.66653290529695L263.11111111111114,349.18699839486356L265.85185185185185,350.3318619582665L268.5925925925926,351.04695024077046L271.3333333333333,352.1231942215088L274.0740740740741,353.0008025682183L276.8148148148148,353.11998394863565L279.55555555555554,353.3475120385233L282.2962962962963,354.2034510433387L285.037037037037,354.69823434991974L287.77777777777777,354.9402086677368L290.51851851851853,355.36276083467095L293.2592592592593,355.65529695024077L296,356.18619582664525L298.74074074074076,356.1139646869984L301.48148148148147,356.0489566613162L304.22222222222223,356.3378812199037L306.96296296296293,356.68097913322634L309.7037037037037,357.12158908507223L312.44444444444446,357.32744783306583L315.18518518518516,357.6163723916533L317.9259259259259,357.71388443017656L320.6666666666667,357.69582664526484L323.40740740740745,358.00280898876406L326.14814814814815,358.107544141252L328.88888888888886,358.0317014446228L331.6296296296296,358.233948635634L334.3703703703704,358.2881219903692L337.1111111111111,358.4795345104334L339.85185185185185,358.45786516853934L342.5925925925926,358.465088282504L345.3333333333333,358.4723113964687L348.0740740740741,358.66011235955057L350.81481481481484,358.71789727126804L353.5555555555556,358.75040128410916L356.2962962962963,358.7215088282504L359.037037037037,358.80096308186194L361.77777777777777,358.7865168539326L364.51851851851853,358.811797752809L367.25925925925924,358.66733547351527L370,358.75040128410916" transform_matrix="{&quot;a&quot;:1,&quot;b&quot;:0,&quot;c&quot;:0,&quot;d&quot;:1,&quot;e&quot;:225,&quot;f&quot;:291}" my_stoke="rgb(255, 255, 51)" my_stoke_width="1.5px" my_stoke_opacity="1" my_fill="none" my_fill_opacity="1" my_font_size="16px" opacity="1" style="font-family: &quot;Roboto Slab&quot;, &quot;Helvetica Neue&quot;, Helvetica, Arial, sans-serif;"></path><path fill="none" stroke="#a65628" stroke-width="1.5" d="M0,359.9747191011236L2.740740740740741,359.9747191011236L5.481481481481482,359.97110754414126L8.222222222222223,359.97833065810596L10.962962962962964,359.94943820224717L13.703703703703702,359.97833065810596L16.444444444444446,359.96027287319424L19.185185185185183,359.97110754414126L21.925925925925927,359.9349919743178L24.666666666666668,359.9674959871589L27.407407407407405,359.9349919743178L30.148148148148152,359.94943820224717L32.88888888888889,359.94943820224717L35.629629629629626,359.94582664526484L38.37037037037037,359.96388443017656L41.11111111111111,359.93138041733545L43.851851851851855,359.9674959871589L46.59259259259259,359.9674959871589L49.333333333333336,359.95304975922954L52.074074074074076,359.94943820224717L54.81481481481481,359.9169341894061L57.55555555555556,359.97110754414126L60.296296296296305,359.9674959871589L63.03703703703704,359.9422150882825L65.77777777777779,359.9422150882825L68.51851851851852,359.93860353130015L71.25925925925925,359.9349919743178L74,359.93860353130015L76.74074074074073,359.93860353130015L79.48148148148148,359.9349919743178L82.22222222222221,359.8988764044944L84.96296296296296,359.9241573033708L87.70370370370371,359.86998394863565L90.44444444444444,359.9097110754414L93.18518518518518,359.84831460674155L95.92592592592592,359.8013643659711L98.66666666666667,359.8085874799358L101.4074074074074,359.8013643659711L104.14814814814815,359.7977528089888L106.88888888888889,359.85553772070625L109.62962962962962,359.84470304975923L112.37037037037037,359.8266452648475L115.11111111111111,359.85553772070625L117.85185185185186,359.8121990369181L120.59259259259261,359.85192616372393L123.33333333333333,359.87720706260035L126.07407407407408,359.87359550561797L128.8148148148148,359.85914927768863L131.55555555555557,359.86998394863565L134.2962962962963,359.84831460674155L137.03703703703704,359.86276083467095L139.77777777777777,359.85914927768863L142.5185185185185,359.8410914927769L145.25925925925927,359.84470304975923L148,359.8338683788122L150.74074074074073,359.83025682182983L153.48148148148147,359.84470304975923L156.22222222222223,359.73996789727124L158.96296296296296,359.8194221508828L161.70370370370372,359.7219101123595L164.44444444444443,359.77969502407706L167.1851851851852,359.7074638844302L169.92592592592592,359.5413322632424L172.66666666666666,359.56300160513644L175.40740740740742,359.5521669341894L178.14814814814815,359.5232744783307L180.88888888888889,359.13322632423757L183.62962962962962,358.4470304975923L186.37037037037035,358.25922953451044L189.1111111111111,358.53370786516854L191.85185185185185,358.54815409309793L194.59259259259258,358.3170144462279L197.33333333333334,358.36757624398075L200.07407407407408,358.21227929374L202.8148148148148,358.46869983948636L205.55555555555557,358.6059390048154L208.2962962962963,358.53370786516854L211.03703703703707,358.2808988764045L213.77777777777777,358.0894863563403L216.5185185185185,358.11115569823437L219.25925925925924,357.97752808988764L222,357.5838683788122L224.74074074074073,356.86878009630817L227.4814814814815,355.95144462279296L230.22222222222223,355.7672552166934L232.96296296296296,354.4779293739968L235.70370370370372,353.9867576243981L238.44444444444446,353.6400481540931L241.18518518518522,353.3511235955056L243.9259259259259,351L246.66666666666666,345.4707062600321L249.4074074074074,340.64205457463885L252.14814814814815,337.5794542536116L254.88888888888889,333.90288924558587L257.6296296296296,321.5260834670947L260.3703703703704,313.3025682182986L263.11111111111114,293.6556982343499L265.85185185185185,270.2780898876405L268.5925925925926,265.72030497592294L271.3333333333333,259.6817817014446L274.0740740740741,237.49237560192617L276.8148148148148,206.41131621187802L279.55555555555554,195.87279293739968L282.2962962962963,196.47592295345103L285.037037037037,194.40650080256822L287.77777777777777,185.40650080256822L290.51851851851853,169.79012841091492L293.2592592592593,157.7889245585875L296,173.88924558587482L298.74074074074076,187.06059390048154L301.48148148148147,192.1709470304976L304.22222222222223,203.2800963081862L306.96296296296293,221.4895666131621L309.7037037037037,233.642455858748L312.44444444444446,244.00762439807386L315.18518518518516,259.11115569823437L317.9259259259259,272.6292134831461L320.6666666666667,284.00200642054574L323.40740740740745,294.15048154093097L326.14814814814815,300.96548956661314L328.88888888888886,303.2804975922953L331.6296296296296,309.7379614767255L334.3703703703704,316.9755216693419L337.1111111111111,322.27728731942216L339.85185185185185,325.8021669341894L342.5925925925926,330.7174959871589L345.3333333333333,335.40890850722315L348.0740740740741,339.3996789727127L350.81481481481484,342.91011235955057L353.5555555555556,346.3013643659711L356.2962962962963,348.4610754414125L359.037037037037,350.53772070626L361.77777777777777,351.59590690208665L364.51851851851853,352.9719101123595L367.25925925925924,353.5353130016051L370,354.3045746388443" transform_matrix="{&quot;a&quot;:1,&quot;b&quot;:0,&quot;c&quot;:0,&quot;d&quot;:1,&quot;e&quot;:225,&quot;f&quot;:291}" my_stoke="rgb(166, 86, 40)" my_stoke_width="1.5px" my_stoke_opacity="1" my_fill="none" my_fill_opacity="1" my_font_size="16px" opacity="1" style="font-family: &quot;Roboto Slab&quot;, &quot;Helvetica Neue&quot;, Helvetica, Arial, sans-serif;"></path><path fill="none" stroke="#f781bf" stroke-width="1.5" d="M10.962962962962964,359.97833065810596L13.703703703703702,359.9819422150883L16.444444444444446,359.97110754414126L19.185185185185183,359.96388443017656L21.925925925925927,359.95666131621186L24.666666666666668,359.93860353130015L27.407407407407405,359.96027287319424L30.148148148148152,359.95666131621186L32.88888888888889,359.9241573033708L35.629629629629626,359.8988764044944L38.37037037037037,359.86998394863565L41.11111111111111,359.87359550561797L43.851851851851855,359.8663723916533L46.59259259259259,359.8230337078652L49.333333333333336,359.83025682182983L52.074074074074076,359.7977528089888L54.81481481481481,359.67857142857144L57.55555555555556,359.75441412520064L60.296296296296305,359.6930176565008L63.03703703703704,359.7146869983949L65.77777777777779,359.5521669341894L68.51851851851852,359.56300160513644L71.25925925925925,359.4329855537721L74,359.3607544141252L76.74074074074073,359.2596308186196L79.48148148148148,359.158507223114L82.22222222222221,358.85874799357947L84.96296296296296,358.82624398073835L87.70370370370371,358.17977528089887L90.44444444444444,357.87640449438203L93.18518518518518,357.63081861958267L95.92592592592592,356.76765650080256L98.66666666666667,356.10674157303373L101.4074074074074,354.79574638844304L104.14814814814815,353.64365971107543L106.88888888888889,352.25682182985554L109.62962962962962,350.96388443017656L112.37037037037037,347.7857142857143L115.11111111111111,345.90770465489567L117.85185185185186,342.6645264847512L120.59259259259261,334.8707865168539L123.33333333333333,330.7644462279294L126.07407407407408,328.9767255216693L128.8148148148148,321.88723916532905L131.55555555555557,315.46227929374L134.2962962962963,310.7889245585875L137.03703703703704,303.12158908507223L139.77777777777777,300.52487961476726L142.5185185185185,295.0244783306581L145.25925925925927,292.73475120385234L148,284.7098715890851L150.74074074074073,277.3820224719101L153.48148148148147,273.64044943820227L156.22222222222223,263.0766452648475L158.96296296296296,260.48354735152486L161.70370370370372,252.7223113964687L164.44444444444443,242.04293739967898L167.1851851851852,226.72993579454254L169.92592592592592,217.5096308186196L172.66666666666666,216.91011235955057L175.40740740740742,226.8346709470305L178.14814814814815,230.56179775280899L180.88888888888889,192.8029695024077L183.62962962962962,174.8210272873194L186.37037037037035,193.38081861958267L189.1111111111111,192.65128410914926L191.85185185185185,186.81861958266452L194.59259259259258,156.1890048154093L197.33333333333334,168.26243980738363L200.07407407407408,175.78531300160512L202.8148148148148,182.55337078651684L205.55555555555557,193.1099518459069L208.2962962962963,203.50401284109148L211.03703703703707,218.1488764044944L213.77777777777777,223.00642054574638L216.5185185185185,232.79735152487962L219.25925925925924,244.04373996789727L222,255.7451845906902L224.74074074074073,264.1565008025682L227.4814814814815,268.40008025682187L230.22222222222223,265.7853130016051L232.96296296296296,274.94422150882826L235.70370370370372,287.3535313001605L238.44444444444446,295.90930979133225L241.18518518518522,302.9157303370786L243.9259259259259,305.9819422150883L246.66666666666666,311.59069020866775L249.4074074074074,318.58988764044943L252.14814814814815,325.3218298555377L254.88888888888889,329.38483146067415L257.6296296296296,330.96308186195824L260.3703703703704,334.51685393258424L263.11111111111114,338.26926163723914L265.85185185185185,338.66653290529695L268.5925925925926,340.14365971107543L271.3333333333333,339.5910914927769L274.0740740740741,340.82624398073835L276.8148148148148,340.9129213483146L279.55555555555554,341.3390850722311L282.2962962962963,342.2239165329053L285.037037037037,343.83828250401285L287.77777777777777,344.1163723916533L290.51851851851853,344.6653290529695L293.2592592592593,345.8679775280899L296,346.2833065810594L298.74074074074076,346.9767255216693L301.48148148148147,347.07784911717494L304.22222222222223,347.6556982343499L306.96296296296293,349.34229534510433L309.7037037037037,350.39325842696627L312.44444444444446,351.4658908507223L315.18518518518516,352.19903691813806L317.9259259259259,352.8852327447833L320.6666666666667,353.56781701444623L323.40740740740745,353.84590690208665L326.14814814814815,354.4670947030498L328.88888888888886,354.97271268057784L331.6296296296296,355.5830658105939L334.3703703703704,355.9803370786517L337.1111111111111,356.3487158908507L339.85185185185185,356.39927768860355L342.5925925925926,356.83266452648473L345.3333333333333,357.2010433386838L348.0740740740741,357.381621187801L350.81481481481484,357.72833065810596L353.5555555555556,357.96308186195824L356.2962962962963,358.27006420545746L359.037037037037,358.45786516853934L361.77777777777777,358.5770465489567L364.51851851851853,358.4867576243981L367.25925925925924,358.6384430176565L370,358.75040128410916" transform_matrix="{&quot;a&quot;:1,&quot;b&quot;:0,&quot;c&quot;:0,&quot;d&quot;:1,&quot;e&quot;:225,&quot;f&quot;:291}" my_stoke="rgb(247, 129, 191)" my_stoke_width="1.5px" my_stoke_opacity="1" my_fill="none" my_fill_opacity="1" my_font_size="16px" opacity="1" style="font-family: &quot;Roboto Slab&quot;, &quot;Helvetica Neue&quot;, Helvetica, Arial, sans-serif;"></path><path fill="none" stroke="#999999" stroke-width="1.5" d="M101.4074074074074,359.9819422150883L158.96296296296296,359.9747191011236L167.1851851851852,359.97833065810596L169.92592592592592,359.97110754414126L172.66666666666666,359.96388443017656L175.40740740740742,359.95666131621186L178.14814814814815,359.96388443017656L180.88888888888889,359.9747191011236L183.62962962962962,359.96027287319424L186.37037037037035,359.95304975922954L189.1111111111111,359.96027287319424L191.85185185185185,359.94582664526484L194.59259259259258,359.94582664526484L197.33333333333334,359.91332263242373L200.07407407407408,359.94582664526484L202.8148148148148,359.9241573033708L205.55555555555557,359.97110754414126L208.2962962962963,359.9097110754414L211.03703703703707,359.9024879614767L213.77777777777777,359.86276083467095L216.5185185185185,359.8663723916533L219.25925925925924,359.7941412520064L222,359.7110754414125L224.74074074074073,359.65690208667735L227.4814814814815,359.6099518459069L230.22222222222223,359.3499197431782L232.96296296296296,359.21268057784914L235.70370370370372,359.0501605136437L238.44444444444446,358.6059390048154L241.18518518518522,358.0353130016051L243.9259259259259,357.6777688603531L246.66666666666666,356.63402889245583L249.4074074074074,355.7961476725522L252.14814814814815,355.75280898876406L254.88888888888889,355.4747191011236L257.6296296296296,354.12760834670945L260.3703703703704,352.82022471910113L263.11111111111114,351.7223113964687L265.85185185185185,350.2271268057785L268.5925925925926,347.41733547351527L271.3333333333333,343.92857142857144L274.0740740740741,333.6500802568218L276.8148148148148,327.9402086677368L279.55555555555554,306.3647672552167L282.2962962962963,239.7712680577849L285.037037037037,220.01966292134833L287.77777777777777,190.23154093097912L290.51851851851853,180.59951845906903L293.2592592592593,161.92415730337078L296,179.55577849117176L298.74074074074076,188.1440609951846L301.48148148148147,195.48274478330657L304.22222222222223,202.96227929373995L306.96296296296293,221.12841091492777L309.7037037037037,234.1480738362761L312.44444444444446,250.64927768860355L315.18518518518516,263.9217495987159L317.9259259259259,274.4927768860353L320.6666666666667,284.5365168539326L323.40740740740745,288.23475120385234L326.14814814814815,294.51524879614766L328.88888888888886,295.00280898876406L331.6296296296296,300.32263242375603L334.3703703703704,304.6023274478331L337.1111111111111,307.5890850722311L339.85185185185185,308.10192616372393L342.5925925925926,312.0746388443018L345.3333333333333,315.43338683788124L348.0740740740741,318.7451845906902L350.81481481481484,326.0441412520064L353.5555555555556,331.7901284109149L356.2962962962963,337.2255216693419L359.037037037037,340.5048154093098L361.77777777777777,343.0401284109149L364.51851851851853,345.784911717496L367.25925925925924,347.1898073836276L370,347.688202247191" transform_matrix="{&quot;a&quot;:1,&quot;b&quot;:0,&quot;c&quot;:0,&quot;d&quot;:1,&quot;e&quot;:225,&quot;f&quot;:291}" my_stoke="rgb(153, 153, 153)" my_stoke_width="1.5px" my_stoke_opacity="1" my_fill="none" my_fill_opacity="1" my_font_size="16px" opacity="1" style="font-family: &quot;Roboto Slab&quot;, &quot;Helvetica Neue&quot;, Helvetica, Arial, sans-serif;"></path></g></svg>