<svg xmlns="http://www.w3.org/2000/svg" width="960" height="500"><g transform="translate(50,61)"><text x="0" y="-40" dy="0.71em" fill="#000" style="font: 23px avenir; fill: rgb(0, 0, 0);">SFPD Incidents by Hour in Dec 2016</text><g class="browser"><path class="area" d="M0,312.65000000000003L33.47826086956522,320.6775L66.95652173913044,314.7625L100.43478260869566,321.52250000000004L133.91304347826087,332.93L167.3913043478261,331.24L200.8695652173913,329.1275L234.34782608695653,327.015L267.82608695652175,322.3675L301.304347826087,320.6775L334.7826086956522,316.03000000000003L368.2608695652174,318.1425L401.7391304347826,316.4525L435.2173913043478,311.805L468.69565217391306,316.4525L502.17391304347825,318.1425L535.6521739130435,315.6075L569.1304347826086,313.91749999999996L602.608695652174,315.185L636.0869565217391,304.6225L669.5652173913044,311.805L703.0434782608695,317.2975L736.5217391304348,314.34L770,312.22749999999996L770,338L736.5217391304348,338L703.0434782608695,338L669.5652173913044,338L636.0869565217391,338L602.608695652174,338L569.1304347826086,338L535.6521739130435,338L502.17391304347825,338L468.69565217391306,338L435.2173913043478,338L401.7391304347826,338L368.2608695652174,338L334.7826086956522,338L301.304347826087,338L267.82608695652175,338L234.34782608695653,338L200.8695652173913,338L167.3913043478261,338L133.91304347826087,338L100.43478260869566,338L66.95652173913044,338L33.47826086956522,338L0,338Z" style="fill: rgb(166, 206, 227);"></path><text transform="translate(500,325.11375000000004)" x="-6" dy="-0.882em" style="font: 15px avenir;">assault</text></g><g class="browser"><path class="area" d="M0,306.3125L33.47826086956522,311.805L66.95652173913044,308.425L100.43478260869566,314.34L133.91304347826087,320.6775L167.3913043478261,324.0575L200.8695652173913,323.21250000000003L234.34782608695653,321.945L267.82608695652175,314.7625L301.304347826087,310.96000000000004L334.7826086956522,309.27000000000004L368.2608695652174,310.96000000000004L401.7391304347826,306.735L435.2173913043478,305.045L468.69565217391306,307.15749999999997L502.17391304347825,304.6225L535.6521739130435,306.735L569.1304347826086,298.70750000000004L602.608695652174,302.08750000000003L636.0869565217391,291.10249999999996L669.5652173913044,302.9325L703.0434782608695,306.3125L736.5217391304348,304.2L770,304.2L770,312.22749999999996L736.5217391304348,314.34L703.0434782608695,317.2975L669.5652173913044,311.805L636.0869565217391,304.6225L602.608695652174,315.185L569.1304347826086,313.91749999999996L535.6521739130435,315.6075L502.17391304347825,318.1425L468.69565217391306,316.4525L435.2173913043478,311.805L401.7391304347826,316.4525L368.2608695652174,318.1425L334.7826086956522,316.03000000000003L301.304347826087,320.6775L267.82608695652175,322.3675L234.34782608695653,327.015L200.8695652173913,329.1275L167.3913043478261,331.24L133.91304347826087,332.93L100.43478260869566,321.52250000000004L66.95652173913044,314.7625L33.47826086956522,320.6775L0,312.65000000000003Z" style="fill: rgb(31, 120, 180);"></path><text transform="translate(500,308.21375)" x="-6" dy="-0.882em" style="font: 15px avenir;"></text></g><g class="browser"><path class="area" d="M0,253.92249999999999L33.47826086956522,280.1175L66.95652173913044,287.7225L100.43478260869566,299.97499999999997L133.91304347826087,309.27000000000004L167.3913043478261,313.91749999999996L200.8695652173913,303.35499999999996L234.34782608695653,302.51L267.82608695652175,274.2025L301.304347826087,259.41499999999996L334.7826086956522,245.04999999999998L368.2608695652174,234.065L401.7391304347826,227.305L435.2173913043478,218.4325L468.69565217391306,220.1225L502.17391304347825,220.96750000000003L535.6521739130435,209.13750000000002L569.1304347826086,174.07L602.608695652174,156.32500000000002L636.0869565217391,140.27L669.5652173913044,182.9425L703.0434782608695,213.36249999999998L736.5217391304348,237.8675L770,239.13500000000002L770,304.2L736.5217391304348,304.2L703.0434782608695,306.3125L669.5652173913044,302.9325L636.0869565217391,291.10249999999996L602.608695652174,302.08750000000003L569.1304347826086,298.70750000000004L535.6521739130435,306.735L502.17391304347825,304.6225L468.69565217391306,307.15749999999997L435.2173913043478,305.045L401.7391304347826,306.735L368.2608695652174,310.96000000000004L334.7826086956522,309.27000000000004L301.304347826087,310.96000000000004L267.82608695652175,314.7625L234.34782608695653,321.945L200.8695652173913,323.21250000000003L167.3913043478261,324.0575L133.91304347826087,320.6775L100.43478260869566,314.34L66.95652173913044,308.425L33.47826086956522,311.805L0,306.3125Z" style="fill: rgb(178, 223, 138);"></path><text transform="translate(500,271.66749999999996)" x="-6" dy="-0.882em" style="font: 15px avenir;">larceny/theft</text></g><g class="browser"><path class="area" d="M0,248.85250000000002L33.47826086956522,277.16L66.95652173913044,287.3L100.43478260869566,298.285L133.91304347826087,308.425L167.3913043478261,312.22749999999996L200.8695652173913,300.39750000000004L234.34782608695653,298.70750000000004L267.82608695652175,267.865L301.304347826087,250.12L334.7826086956522,237.445L368.2608695652174,225.61499999999998L401.7391304347826,217.16500000000002L435.2173913043478,212.94L468.69565217391306,212.09499999999997L502.17391304347825,211.67249999999999L535.6521739130435,205.33499999999998L569.1304347826086,166.88750000000002L602.608695652174,147.875L636.0869565217391,136.46750000000003L669.5652173913044,177.45000000000002L703.0434782608695,211.25L736.5217391304348,228.57250000000002L770,234.065L770,239.13500000000002L736.5217391304348,237.8675L703.0434782608695,213.36249999999998L669.5652173913044,182.9425L636.0869565217391,140.27L602.608695652174,156.32500000000002L569.1304347826086,174.07L535.6521739130435,209.13750000000002L502.17391304347825,220.96750000000003L468.69565217391306,220.1225L435.2173913043478,218.4325L401.7391304347826,227.305L368.2608695652174,234.065L334.7826086956522,245.04999999999998L301.304347826087,259.41499999999996L267.82608695652175,274.2025L234.34782608695653,302.51L200.8695652173913,303.35499999999996L167.3913043478261,313.91749999999996L133.91304347826087,309.27000000000004L100.43478260869566,299.97499999999997L66.95652173913044,287.7225L33.47826086956522,280.1175L0,253.92249999999999Z" style="fill: rgb(51, 160, 44);"></path><text transform="translate(500,236.6)" x="-6" dy="-0.882em" style="font: 15px avenir;"></text></g><g class="browser"><path class="area" d="M0,229.83999999999997L33.47826086956522,263.64L66.95652173913044,282.6525L100.43478260869566,289.41249999999997L133.91304347826087,303.7775L167.3913043478261,307.15749999999997L200.8695652173913,285.61L234.34782608695653,282.6525L267.82608695652175,235.755L301.304347826087,221.39000000000001L334.7826086956522,205.33499999999998L368.2608695652174,190.54749999999999L401.7391304347826,168.57750000000001L435.2173913043478,180.82999999999998L468.69565217391306,180.82999999999998L502.17391304347825,179.5625L535.6521739130435,168.57750000000001L569.1304347826086,126.32750000000001L602.608695652174,117.8775L636.0869565217391,101.8225L669.5652173913044,149.1425L703.0434782608695,189.70250000000001L736.5217391304348,198.9975L770,203.22250000000003L770,234.065L736.5217391304348,228.57250000000002L703.0434782608695,211.25L669.5652173913044,177.45000000000002L636.0869565217391,136.46750000000003L602.608695652174,147.875L569.1304347826086,166.88750000000002L535.6521739130435,205.33499999999998L502.17391304347825,211.67249999999999L468.69565217391306,212.09499999999997L435.2173913043478,212.94L401.7391304347826,217.16500000000002L368.2608695652174,225.61499999999998L334.7826086956522,237.445L301.304347826087,250.12L267.82608695652175,267.865L234.34782608695653,298.70750000000004L200.8695652173913,300.39750000000004L167.3913043478261,312.22749999999996L133.91304347826087,308.425L100.43478260869566,298.285L66.95652173913044,287.3L33.47826086956522,277.16L0,248.85250000000002Z" style="fill: rgb(251, 154, 153);"></path><text transform="translate(500,218.64374999999998)" x="-6" dy="-0.882em" style="font: 15px avenir;">non-criminal</text></g><g class="browser"><path class="area" d="M0,185.47750000000002L33.47826086956522,242.51500000000001L66.95652173913044,266.175L100.43478260869566,273.3575L133.91304347826087,296.59499999999997L167.3913043478261,300.39750000000004L200.8695652173913,274.625L234.34782608695653,264.90749999999997L267.82608695652175,207.44750000000002L301.304347826087,192.66000000000003L334.7826086956522,172.80249999999998L368.2608695652174,163.93L401.7391304347826,126.32750000000001L435.2173913043478,145.76250000000002L468.69565217391306,142.3825L502.17391304347825,138.15749999999997L535.6521739130435,119.14500000000001L569.1304347826086,84.07750000000001L602.608695652174,91.68249999999999L636.0869565217391,62.10749999999999L669.5652173913044,122.9475L703.0434782608695,156.32500000000002L736.5217391304348,164.3525L770,170.26749999999998L770,203.22250000000003L736.5217391304348,198.9975L703.0434782608695,189.70250000000001L669.5652173913044,149.1425L636.0869565217391,101.8225L602.608695652174,117.8775L569.1304347826086,126.32750000000001L535.6521739130435,168.57750000000001L502.17391304347825,179.5625L468.69565217391306,180.82999999999998L435.2173913043478,180.82999999999998L401.7391304347826,168.57750000000001L368.2608695652174,190.54749999999999L334.7826086956522,205.33499999999998L301.304347826087,221.39000000000001L267.82608695652175,235.755L234.34782608695653,282.6525L200.8695652173913,285.61L167.3913043478261,307.15749999999997L133.91304347826087,303.7775L100.43478260869566,289.41249999999997L66.95652173913044,282.6525L33.47826086956522,263.64L0,229.83999999999997Z" style="fill: rgb(227, 26, 28);"></path><text transform="translate(500,186.745)" x="-6" dy="-0.882em" style="font: 15px avenir;"></text></g><g class="browser"><path class="area" d="M0,175.76000000000002L33.47826086956522,234.91000000000003L66.95652173913044,259.41499999999996L100.43478260869566,269.555L133.91304347826087,293.6375L167.3913043478261,298.70750000000004L200.8695652173913,271.66749999999996L234.34782608695653,259.41499999999996L267.82608695652175,200.6875L301.304347826087,181.67499999999998L334.7826086956522,161.395L368.2608695652174,149.1425L401.7391304347826,110.69500000000001L435.2173913043478,134.355L468.69565217391306,132.665L502.17391304347825,125.90500000000002L535.6521739130435,107.7375L569.1304347826086,72.2475L602.608695652174,80.27500000000002L636.0869565217391,49.85499999999999L669.5652173913044,112.385L703.0434782608695,150.8325L736.5217391304348,157.59250000000003L770,160.1275L770,170.26749999999998L736.5217391304348,164.3525L703.0434782608695,156.32500000000002L669.5652173913044,122.9475L636.0869565217391,62.10749999999999L602.608695652174,91.68249999999999L569.1304347826086,84.07750000000001L535.6521739130435,119.14500000000001L502.17391304347825,138.15749999999997L468.69565217391306,142.3825L435.2173913043478,145.76250000000002L401.7391304347826,126.32750000000001L368.2608695652174,163.93L334.7826086956522,172.80249999999998L301.304347826087,192.66000000000003L267.82608695652175,207.44750000000002L234.34782608695653,264.90749999999997L200.8695652173913,274.625L167.3913043478261,300.39750000000004L133.91304347826087,296.59499999999997L100.43478260869566,273.3575L66.95652173913044,266.175L33.47826086956522,242.51500000000001L0,185.47750000000002Z" style="fill: rgb(253, 191, 111);"></path><text transform="translate(500,165.19750000000002)" x="-6" dy="-0.882em" style="font: 15px avenir;"></text></g><g class="browser"><path class="area" d="M0,165.19750000000002L33.47826086956522,221.39000000000001L66.95652173913044,249.275L100.43478260869566,260.6825L133.91304347826087,286.03249999999997L167.3913043478261,291.9475L200.8695652173913,264.90749999999997L234.34782608695653,252.65500000000003L267.82608695652175,192.66000000000003L301.304347826087,174.07L334.7826086956522,152.1L368.2608695652174,140.27L401.7391304347826,93.3725L435.2173913043478,117.03249999999998L468.69565217391306,118.72249999999998L502.17391304347825,110.27250000000001L535.6521739130435,92.10499999999999L569.1304347826086,51.54499999999999L602.608695652174,50.70000000000001L636.0869565217391,25.772500000000015L669.5652173913044,90.83750000000002L703.0434782608695,129.7075L736.5217391304348,132.2425L770,139.8475L770,160.1275L736.5217391304348,157.59250000000003L703.0434782608695,150.8325L669.5652173913044,112.385L636.0869565217391,49.85499999999999L602.608695652174,80.27500000000002L569.1304347826086,72.2475L535.6521739130435,107.7375L502.17391304347825,125.90500000000002L468.69565217391306,132.665L435.2173913043478,134.355L401.7391304347826,110.69500000000001L368.2608695652174,149.1425L334.7826086956522,161.395L301.304347826087,181.67499999999998L267.82608695652175,200.6875L234.34782608695653,259.41499999999996L200.8695652173913,271.66749999999996L167.3913043478261,298.70750000000004L133.91304347826087,293.6375L100.43478260869566,269.555L66.95652173913044,259.41499999999996L33.47826086956522,234.91000000000003L0,175.76000000000002Z" style="fill: rgb(255, 127, 0);"></path><text transform="translate(500,149.98749999999998)" x="-6" dy="-0.882em" style="font: 15px avenir;"></text></g><g class="browser"><path class="area" d="M0,157.59250000000003L33.47826086956522,217.16500000000002L66.95652173913044,242.9375L100.43478260869566,257.72499999999997L133.91304347826087,283.4975L167.3913043478261,288.5675L200.8695652173913,258.9925L234.34782608695653,243.78249999999997L267.82608695652175,185.055L301.304347826087,164.3525L334.7826086956522,140.6925L368.2608695652174,133.0875L401.7391304347826,79.42999999999999L435.2173913043478,108.58250000000001L468.69565217391306,109.84999999999998L502.17391304347825,98.02000000000001L535.6521739130435,75.20500000000001L569.1304347826086,31.265000000000008L602.608695652174,28.307499999999997L636.0869565217391,11.407499999999981L669.5652173913044,70.55749999999999L703.0434782608695,111.11749999999999L736.5217391304348,111.53999999999999L770,123.36999999999999L770,139.8475L736.5217391304348,132.2425L703.0434782608695,129.7075L669.5652173913044,90.83750000000002L636.0869565217391,25.772500000000015L602.608695652174,50.70000000000001L569.1304347826086,51.54499999999999L535.6521739130435,92.10499999999999L502.17391304347825,110.27250000000001L468.69565217391306,118.72249999999998L435.2173913043478,117.03249999999998L401.7391304347826,93.3725L368.2608695652174,140.27L334.7826086956522,152.1L301.304347826087,174.07L267.82608695652175,192.66000000000003L234.34782608695653,252.65500000000003L200.8695652173913,264.90749999999997L167.3913043478261,291.9475L133.91304347826087,286.03249999999997L100.43478260869566,260.6825L66.95652173913044,249.275L33.47826086956522,221.39000000000001L0,165.19750000000002Z" style="fill: rgb(202, 178, 214);"></path><text transform="translate(500,131.60875000000001)" x="-6" dy="-0.882em" style="font: 15px avenir;"></text></g><g class="browser"><path class="area" d="M0,150.8325L33.47826086956522,212.09499999999997L66.95652173913044,238.7125L100.43478260869566,253.5L133.91304347826087,282.6525L167.3913043478261,286.8775L200.8695652173913,254.7675L234.34782608695653,236.6L267.82608695652175,178.71750000000003L301.304347826087,158.01500000000001L334.7826086956522,133.51000000000002L368.2608695652174,126.75L401.7391304347826,66.75500000000001L435.2173913043478,99.28749999999998L468.69565217391306,99.71000000000001L502.17391304347825,85.76750000000001L535.6521739130435,62.10749999999999L569.1304347826086,18.590000000000018L602.608695652174,19.012500000000006L636.0869565217391,3.802499999999994L669.5652173913044,61.684999999999995L703.0434782608695,106.89250000000001L736.5217391304348,103.09000000000002L770,114.075L770,123.36999999999999L736.5217391304348,111.53999999999999L703.0434782608695,111.11749999999999L669.5652173913044,70.55749999999999L636.0869565217391,11.407499999999981L602.608695652174,28.307499999999997L569.1304347826086,31.265000000000008L535.6521739130435,75.20500000000001L502.17391304347825,98.02000000000001L468.69565217391306,109.84999999999998L435.2173913043478,108.58250000000001L401.7391304347826,79.42999999999999L368.2608695652174,133.0875L334.7826086956522,140.6925L301.304347826087,164.3525L267.82608695652175,185.055L234.34782608695653,243.78249999999997L200.8695652173913,258.9925L167.3913043478261,288.5675L133.91304347826087,283.4975L100.43478260869566,257.72499999999997L66.95652173913044,242.9375L33.47826086956522,217.16500000000002L0,157.59250000000003Z" style="fill: rgb(106, 61, 154);"></path><text transform="translate(500,118.72249999999998)" x="-6" dy="-0.882em" style="font: 15px avenir;"></text></g><g class="x axis" transform="translate(0,338)"><g class="tick" transform="translate(0,0)" style="opacity: 1;"><line y2="6" x2="0"></line><text dy=".71em" y="9" x="0" style="text-anchor: middle;">0</text></g><g class="tick" transform="translate(33.47826086956522,0)" style="opacity: 1;"><line y2="6" x2="0"></line><text dy=".71em" y="9" x="0" style="text-anchor: middle;">1</text></g><g class="tick" transform="translate(66.95652173913044,0)" style="opacity: 1;"><line y2="6" x2="0"></line><text dy=".71em" y="9" x="0" style="text-anchor: middle;">2</text></g><g class="tick" transform="translate(100.43478260869566,0)" style="opacity: 1;"><line y2="6" x2="0"></line><text dy=".71em" y="9" x="0" style="text-anchor: middle;">3</text></g><g class="tick" transform="translate(133.91304347826087,0)" style="opacity: 1;"><line y2="6" x2="0"></line><text dy=".71em" y="9" x="0" style="text-anchor: middle;">4</text></g><g class="tick" transform="translate(167.3913043478261,0)" style="opacity: 1;"><line y2="6" x2="0"></line><text dy=".71em" y="9" x="0" style="text-anchor: middle;">5</text></g><g class="tick" transform="translate(200.8695652173913,0)" style="opacity: 1;"><line y2="6" x2="0"></line><text dy=".71em" y="9" x="0" style="text-anchor: middle;">6</text></g><g class="tick" transform="translate(234.34782608695653,0)" style="opacity: 1;"><line y2="6" x2="0"></line><text dy=".71em" y="9" x="0" style="text-anchor: middle;">7</text></g><g class="tick" transform="translate(267.82608695652175,0)" style="opacity: 1;"><line y2="6" x2="0"></line><text dy=".71em" y="9" x="0" style="text-anchor: middle;">8</text></g><g class="tick" transform="translate(301.304347826087,0)" style="opacity: 1;"><line y2="6" x2="0"></line><text dy=".71em" y="9" x="0" style="text-anchor: middle;">9</text></g><g class="tick" transform="translate(334.7826086956522,0)" style="opacity: 1;"><line y2="6" x2="0"></line><text dy=".71em" y="9" x="0" style="text-anchor: middle;">10</text></g><g class="tick" transform="translate(368.2608695652174,0)" style="opacity: 1;"><line y2="6" x2="0"></line><text dy=".71em" y="9" x="0" style="text-anchor: middle;">11</text></g><g class="tick" transform="translate(401.7391304347826,0)" style="opacity: 1;"><line y2="6" x2="0"></line><text dy=".71em" y="9" x="0" style="text-anchor: middle;">12</text></g><g class="tick" transform="translate(435.2173913043478,0)" style="opacity: 1;"><line y2="6" x2="0"></line><text dy=".71em" y="9" x="0" style="text-anchor: middle;">13</text></g><g class="tick" transform="translate(468.69565217391306,0)" style="opacity: 1;"><line y2="6" x2="0"></line><text dy=".71em" y="9" x="0" style="text-anchor: middle;">14</text></g><g class="tick" transform="translate(502.17391304347825,0)" style="opacity: 1;"><line y2="6" x2="0"></line><text dy=".71em" y="9" x="0" style="text-anchor: middle;">15</text></g><g class="tick" transform="translate(535.6521739130435,0)" style="opacity: 1;"><line y2="6" x2="0"></line><text dy=".71em" y="9" x="0" style="text-anchor: middle;">16</text></g><g class="tick" transform="translate(569.1304347826086,0)" style="opacity: 1;"><line y2="6" x2="0"></line><text dy=".71em" y="9" x="0" style="text-anchor: middle;">17</text></g><g class="tick" transform="translate(602.608695652174,0)" style="opacity: 1;"><line y2="6" x2="0"></line><text dy=".71em" y="9" x="0" style="text-anchor: middle;">18</text></g><g class="tick" transform="translate(636.0869565217391,0)" style="opacity: 1;"><line y2="6" x2="0"></line><text dy=".71em" y="9" x="0" style="text-anchor: middle;">19</text></g><g class="tick" transform="translate(669.5652173913044,0)" style="opacity: 1;"><line y2="6" x2="0"></line><text dy=".71em" y="9" x="0" style="text-anchor: middle;">20</text></g><g class="tick" transform="translate(703.0434782608695,0)" style="opacity: 1;"><line y2="6" x2="0"></line><text dy=".71em" y="9" x="0" style="text-anchor: middle;">21</text></g><g class="tick" transform="translate(736.5217391304348,0)" style="opacity: 1;"><line y2="6" x2="0"></line><text dy=".71em" y="9" x="0" style="text-anchor: middle;">22</text></g><g class="tick" transform="translate(770,0)" style="opacity: 1;"><line y2="6" x2="0"></line><text dy=".71em" y="9" x="0" style="text-anchor: middle;">23</text></g><path class="domain" d="M0,6V0H770V6"></path><text x="350" y="36" fill="#000" style="font-weight: bold;">Hour of Time</text></g><g class="y axis"><g class="tick" transform="translate(0,338)" style="opacity: 1;"><line x2="-6" y2="0"></line><text dy=".32em" x="-9" y="0" style="text-anchor: end;">0</text></g><g class="tick" transform="translate(0,253.5)" style="opacity: 1;"><line x2="-6" y2="0"></line><text dy=".32em" x="-9" y="0" style="text-anchor: end;">200</text></g><g class="tick" transform="translate(0,169)" style="opacity: 1;"><line x2="-6" y2="0"></line><text dy=".32em" x="-9" y="0" style="text-anchor: end;">400</text></g><g class="tick" transform="translate(0,84.5)" style="opacity: 1;"><line x2="-6" y2="0"></line><text dy=".32em" x="-9" y="0" style="text-anchor: end;">600</text></g><g class="tick" transform="translate(0,0)" style="opacity: 1;"><line x2="-6" y2="0"></line><text dy=".32em" x="-9" y="0" style="text-anchor: end;">800</text></g><path class="domain" d="M-6,0H0V338H-6"></path><text transform="rotate(-90)" x="-250" y="-40" dy="0.3408em" fill="#000" style="font-weight: bold;">Number of Incidents</text></g><g class="legend" transform="translate(790,0)"><rect x="0" y="0" width="10" height="10" style="fill: rgb(166, 206, 227);"></rect><text x="20" dy="0.75em" y="0">assault</text></g><g class="legend" transform="translate(790,0)"><rect x="0" y="20" width="10" height="10" style="fill: rgb(31, 120, 180);"></rect><text x="20" dy="0.75em" y="20">burglary</text></g><g class="legend" transform="translate(790,0)"><rect x="0" y="40" width="10" height="10" style="fill: rgb(178, 223, 138);"></rect><text x="20" dy="0.75em" y="40">larceny_theft</text></g><g class="legend" transform="translate(790,0)"><rect x="0" y="60" width="10" height="10" style="fill: rgb(51, 160, 44);"></rect><text x="20" dy="0.75em" y="60">missing_person</text></g><g class="legend" transform="translate(790,0)"><rect x="0" y="80" width="10" height="10" style="fill: rgb(251, 154, 153);"></rect><text x="20" dy="0.75em" y="80">non_criminal</text></g><g class="legend" transform="translate(790,0)"><rect x="0" y="100" width="10" height="10" style="fill: rgb(227, 26, 28);"></rect><text x="20" dy="0.75em" y="100">other_offenses</text></g><g class="legend" transform="translate(790,0)"><rect x="0" y="120" width="10" height="10" style="fill: rgb(253, 191, 111);"></rect><text x="20" dy="0.75em" y="120">suspicious_occ</text></g><g class="legend" transform="translate(790,0)"><rect x="0" y="140" width="10" height="10" style="fill: rgb(255, 127, 0);"></rect><text x="20" dy="0.75em" y="140">vandalism</text></g><g class="legend" transform="translate(790,0)"><rect x="0" y="160" width="10" height="10" style="fill: rgb(202, 178, 214);"></rect><text x="20" dy="0.75em" y="160">vehicle_related</text><text x="0" y="-10">Categories</text></g><g class="legend" transform="translate(790,0)"><rect x="0" y="180" width="10" height="10" style="fill: rgb(106, 61, 154);"></rect><text x="20" dy="0.75em" y="180">warrants</text></g></g></svg>