<svg id="图层_1" data-name="图层 1" xmlns="http://www.w3.org/2000/svg" viewBox="0 0 30 30"><defs><style>.cls-1{fill:#fff;}.cls-2{fill:#474747;}.cls-3{fill:none;stroke:#474747;stroke-miterlimit:10;stroke-width:2px;}</style></defs><title>point_visual_mark画板 1</title><ellipse class="cls-1" cx="5" cy="14.61" rx="1" ry="3.64"/><path class="cls-2" d="M5,11c-.55,0-1,1.63-1,3.64s.45,3.64,1,3.64,1-1.63,1-3.64S5.55,11,5,11Z"/><ellipse class="cls-1" cx="15" cy="14.61" rx="1" ry="3.64"/><path class="cls-2" d="M15,11c-.55,0-1,1.63-1,3.64s.45,3.64,1,3.64,1-1.63,1-3.64S15.55,11,15,11Z"/><ellipse class="cls-1" cx="25" cy="14.61" rx="1" ry="3.64"/><path class="cls-2" d="M25,11c-.55,0-1,1.63-1,3.64s.45,3.64,1,3.64,1-1.63,1-3.64S25.55,11,25,11Z"/><line class="cls-3" x1="5" y1="14.61" x2="24.99" y2="14.61"/></svg>