<svg xmlns="http://www.w3.org/2000/svg" xmlns:xlink="http://www.w3.org/1999/xlink" class="dw-chart chart vis-height-fit theme-datawrapper-data vis-d3-area theme-undefined" width="954" height="546" style="" version="1.1"><style type="text/css">.chart .tooltip { z-index: 200; padding-bottom: 0px; }
.chart svg .axis, .chart svg .grid, .chart svg .tick, .chart svg rect { shape-rendering: crispedges; }
.chart.vis-d3-area g.tooltip { display: none; pointer-events: none; }
.chart.vis-d3-area g.tooltip text { font-size: 90%; text-anchor: start; }
.chart.vis-d3-area g.tooltip text.bg { stroke: rgb(255, 255, 255); fill: rgb(255, 255, 255); stroke-width: 5px; stroke-linejoin: round; stroke-linecap: round; }
.chart.vis-d3-area g.tooltip text tspan:first-child { font-weight: 700; font-size: 110%; }
.chart.vis-d3-area g.tooltip line { stroke: rgb(0, 0, 0); opacity: 0.3; }
.chart.vis-d3-area svg rect.bg { fill: rgb(255, 255, 255); fill-opacity: 0; }
.css-14jwf37 text { text-anchor: middle; }
.css-n2qvu0 line { stroke: rgb(51, 51, 51); stroke-width: 1; stroke-linecap: square; shape-rendering: crispedges; }
.css-126iv6 text.left { text-anchor: end; }
.css-1l9st31 line.major { stroke: rgb(232, 232, 232); stroke-width: 1; shape-rendering: crispedges; }</style><svg viewBox="-10 0 954 553"><g><g transform="translate(35.3125,41)"><g><g class="y-grid-lines grid-y css-1l9st31"><line class="y-grid-line major" transform="translate(0,438.4833599270572)" x2="908.203125"/><line class="y-grid-line major" transform="translate(0,392.46671985411444)" x2="908.203125"/><line class="y-grid-line major" transform="translate(0,346.45007978117167)" x2="908.203125"/><line class="y-grid-line major" transform="translate(0,300.4334397082289)" x2="908.203125"/><line class="y-grid-line major" transform="translate(0,254.4167996352861)" x2="908.203125"/><line class="y-grid-line major" transform="translate(0,208.40015956234333)" x2="908.203125"/><line class="y-grid-line major" transform="translate(0,162.38351948940056)" x2="908.203125"/><line class="y-grid-line major" transform="translate(0,116.36687941645778)" x2="908.203125"/><line class="y-grid-line major" transform="translate(0,70.35023934351494)" x2="908.203125"/><line class="y-grid-line major" transform="translate(0,24.333599270572222)" x2="908.203125"/></g></g><g><path class="area" d="M9.784529921723761,484.5C22.12666971556477,484.5,34.46880950940578,484.5,46.81094930324679,484.5C59.15308909708779,484.5,71.49522889092881,484.50000000000006,83.83736868476981,484.5C96.17950847861081,484.49999999999994,108.52164827245181,484.5,120.86378806629284,484.5C133.20592786013387,484.5,145.54806765397487,484.49999999999994,157.89020744781587,484.5C170.23234724165687,484.50000000000006,182.5744870354979,484.50000000000006,194.9166268293389,484.5C207.2587666231799,484.49999999999994,219.60090641702092,484.5,231.94304621086192,484.5C244.28518600470292,484.5,256.6273257985439,484.50000000000006,268.9694655923849,484.5C281.3116053862259,484.49999999999994,293.65374518006695,484.49999999999994,305.99588497390795,484.5C318.33802476774895,484.50000000000006,330.68016456159,484.5,343.022304355431,484.5C355.364444149272,484.5,367.70658394311306,484.50000000000006,380.04872373695406,484.5C392.39086353079506,484.49999999999994,404.73300332463606,484.49999999999994,417.07514311847706,484.5C429.41728291231806,484.50000000000006,441.75942270615906,484.5,454.1015625000001,484.5C466.44370229384117,484.5,478.78584208768206,484.50000000000006,491.12798188152306,484.5C503.47012167536406,484.49999999999994,515.812261469205,484.49999999999994,528.1544012630461,484.5C540.4965410568872,484.50000000000006,552.8386808507282,484.5,565.1808206445692,484.5C577.5229604384101,484.5,589.865100232251,484.5,602.2072400260921,484.5C614.5493798199332,484.5,626.8915196137741,484.5,639.233659407615,484.5C651.575799201456,484.5,663.917938995297,484.5,676.2600787891381,484.5C688.6022185829792,484.5,700.9443583768203,484.5,713.2864981706612,484.5C725.628637964502,484.5,737.970777758343,484.5,750.3129175521841,484.5C762.6550573460252,484.5,774.9971971398661,484.5,787.3393369337072,484.5C799.6814767275482,484.5,812.0236165213893,484.5,824.3657563152302,484.5C836.7078961090712,484.5,849.0500359029122,484.5,861.3921756967533,484.5C873.7343154905943,484.5,886.0764552844353,484.5,898.4185950782763,484.5L898.4185950782763,478.42580351037157C886.0764552844354,478.72578186769584,873.7343154905943,479.0257602250201,861.3921756967533,478.97800319124684C849.0500359029122,478.93024615747356,836.7078961090714,478.5347537326027,824.3657563152302,478.42580351037157C812.023616521389,478.3168532881404,799.6814767275481,478.4944452685489,787.3393369337072,479.07003647139277C774.9971971398662,479.64562767423666,762.655057346025,480.61921809951593,750.3129175521841,480.91070207431045C737.9707777583432,481.20218604910497,725.6286379645022,480.8115635734145,713.2864981706612,481.1868019147481C700.9443583768201,481.56204025608173,688.6022185829792,482.7031394144394,676.2600787891381,483.30356735810346C663.917938995297,483.9039953017675,651.5757992014561,483.963752030738,639.233659407615,484.13186687941646C626.891519613774,484.2999817280949,614.5493798199332,484.5764546964814,602.2072400260921,484.40796671985413C589.865100232251,484.23947874322687,577.5229604384101,483.6260298215859,565.1808206445692,483.48763391839526C552.8386808507282,483.3492380152046,540.496541056887,483.6858951304641,528.1544012630461,483.8557670389788C515.8122614692052,484.0256389474935,503.47012167536417,484.0287256492632,491.12798188152306,484.13186687941646C478.78584208768194,484.2350081095697,466.4437022938411,484.4382038681068,454.1015625000001,484.3159334397082C441.7594227061591,484.1936630113096,429.41728291231806,483.74592639597563,417.07514311847706,483.48763391839526C404.73300332463606,483.2293414408149,392.390863530795,483.1604931009885,380.04872373695406,483.3956006382494C367.7065839431131,483.6307081755103,355.36444414927206,484.1697715898583,343.022304355431,484.3159334397082C330.68016456158995,484.4620952895581,318.33802476774895,484.2153555749099,305.99588497390795,484.13186687941646C293.65374518006695,484.04837818392303,281.31160538622595,484.1281405075846,268.9694655923849,484.13186687941646C256.62732579854384,484.13559325124834,244.2851860047029,484.0632836712507,231.94304621086192,484.13186687941646C219.60090641702095,484.2004500875822,207.2587666231799,484.40992608391093,194.9166268293389,484.5C182.5744870354979,484.59007391608907,170.2323472416569,484.5607457519383,157.89020744781587,484.40796671985413C145.54806765397484,484.25518768776993,133.20592786013384,483.97895778775245,120.86378806629284,483.8557670389788C108.52164827245184,483.73257629020515,96.17950847861083,483.7624246926751,83.83736868476981,483.67170047868706C71.4952288909288,483.580976264699,59.153089097087786,483.3696794342529,46.81094930324679,483.48763391839526C34.46880950940579,483.60558840253765,22.126669715564773,484.05279420126885,9.784529921723761,484.5Z" style="opacity: 0.84; fill: rgb(209, 0, 0);"/><path class="area" d="M9.784529921723761,484.5C22.12666971556477,484.05279420126885,34.46880950940578,483.60558840253776,46.81094930324679,483.48763391839526C59.15308909708779,483.36967943425276,71.49522889092881,483.58097626469885,83.83736868476981,483.67170047868706C96.17950847861081,483.76242469267527,108.52164827245181,483.7325762902052,120.86378806629284,483.8557670389788C133.20592786013387,483.9789577877524,145.54806765397487,484.25518768776993,157.89020744781587,484.40796671985413C170.23234724165687,484.5607457519383,182.5744870354979,484.590073916089,194.9166268293389,484.5C207.2587666231799,484.409926083911,219.60090641702092,484.20045008758217,231.94304621086192,484.13186687941646C244.28518600470292,484.06328367125076,256.6273257985439,484.13559325124845,268.9694655923849,484.13186687941646C281.3116053862259,484.1281405075845,293.65374518006695,484.04837818392303,305.99588497390795,484.13186687941646C318.33802476774895,484.2153555749099,330.68016456159,484.46209528955814,343.022304355431,484.3159334397082C355.364444149272,484.16977158985827,367.70658394311306,483.6307081755101,380.04872373695406,483.3956006382494C392.39086353079506,483.1604931009887,404.73300332463606,483.22934144081506,417.07514311847706,483.48763391839526C429.41728291231806,483.74592639597546,441.75942270615906,484.1936630113097,454.1015625000001,484.3159334397082C466.44370229384117,484.4382038681067,478.78584208768206,484.2350081095697,491.12798188152306,484.13186687941646C503.47012167536406,484.0287256492632,515.812261469205,484.02563894749346,528.1544012630461,483.8557670389788C540.4965410568872,483.68589513046413,552.8386808507282,483.34923801520443,565.1808206445692,483.48763391839526C577.5229604384101,483.6260298215861,589.865100232251,484.2394787432269,602.2072400260921,484.40796671985413C614.5493798199332,484.57645469648133,626.8915196137741,484.29998172809485,639.233659407615,484.13186687941646C651.575799201456,483.9637520307381,663.917938995297,483.90399530176745,676.2600787891381,483.30356735810346C688.6022185829792,482.7031394144395,700.9443583768203,481.56204025608173,713.2864981706612,481.1868019147481C725.628637964502,480.8115635734145,737.970777758343,481.20218604910485,750.3129175521841,480.91070207431045C762.6550573460252,480.61921809951605,774.9971971398661,479.64562767423655,787.3393369337072,479.07003647139277C799.6814767275482,478.494445268549,812.0236165213893,478.3168532881404,824.3657563152302,478.42580351037157C836.7078961090712,478.5347537326027,849.0500359029122,478.93024615747356,861.3921756967533,478.97800319124684C873.7343154905943,479.0257602250201,886.0764552844353,478.72578186769584,898.4185950782763,478.42580351037157L898.4185950782763,472.2595737405972C886.0764552844354,473.24912096715786,873.7343154905943,474.2386681937184,861.3921756967533,474.56040574424435C849.0500359029122,474.8821432947703,836.7078961090714,474.53607116926173,824.3657563152302,474.1922726236608C812.023616521389,473.8484740780599,799.6814767275481,473.50694911236707,787.3393369337072,474.56040574424435C774.9971971398662,475.61386237612163,762.655057346025,478.062300605569,750.3129175521841,478.24173695007977C737.9707777583432,478.4211732945905,725.6286379645022,476.33160775416457,713.2864981706612,476.95327102803736C700.9443583768201,477.57493430191016,688.6022185829792,480.90782639008216,676.2600787891381,481.9230681559152C663.917938995297,482.9383099217482,651.5757992014561,481.6359013652423,639.233659407615,481.73900159562345C626.891519613774,481.8421018260046,614.5493798199332,483.350710843273,602.2072400260921,483.48763391839526C589.865100232251,483.6245569935175,577.5229604384101,482.3897941264936,565.1808206445692,482.107134716207C552.8386808507282,481.8244753059204,540.496541056887,482.49391935237134,528.1544012630461,482.9354342375199C515.8122614692052,483.3769491226685,503.47012167536417,483.5905348465147,491.12798188152306,483.8557670389788C478.78584208768194,484.1209992314429,466.4437022938411,484.4378778925248,454.1015625000001,484.0398335992706C441.7594227061591,483.6417893060164,429.41728291231806,482.5288220584257,417.07514311847706,482.2912012764987C404.73300332463606,482.05358049457175,392.390863530795,482.69130617830865,380.04872373695406,482.9354342375199C367.7065839431131,483.1795622967312,355.36444414927206,483.0300927314171,343.022304355431,482.7513676772282C330.68016456158995,482.4726426230393,318.33802476774895,482.0646620799758,305.99588497390795,481.8310348757693C293.65374518006695,481.59740767156285,281.31160538622595,481.5381338062131,268.9694655923849,481.9230681559152C256.62732579854384,482.30800250561725,244.2851860047029,483.13714507037093,231.94304621086192,483.3956006382494C219.60090641702095,483.65405620612785,207.2587666231799,483.3418247771306,194.9166268293389,483.2115340779576C182.5744870354979,483.08124337878456,170.2323472416569,483.13289340943595,157.89020744781587,483.30356735810346C145.54806765397484,483.474241306771,133.20592786013384,483.763939173455,120.86378806629284,483.8557670389788C108.52164827245184,483.9475949045026,96.17950847861083,483.8415527688657,83.83736868476981,483.67170047868706C71.4952288909288,483.5018481885084,59.153089097087786,483.2681857437877,46.81094930324679,483.3956006382494C34.46880950940579,483.5230155327111,22.126669715564773,484.0115077663555,9.784529921723761,484.5Z" style="opacity: 0.84; fill: rgb(251, 0, 0);"/><path class="area" d="M9.784529921723761,484.5C22.12666971556477,484.0115077663555,34.46880950940578,483.5230155327111,46.81094930324679,483.3956006382494C59.15308909708779,483.2681857437877,71.49522889092881,483.5018481885083,83.83736868476981,483.67170047868706C96.17950847861081,483.8415527688658,108.52164827245181,483.94759490450247,120.86378806629284,483.8557670389788C133.20592786013387,483.7639391734551,145.54806765397487,483.4742413067711,157.89020744781587,483.30356735810346C170.23234724165687,483.13289340943584,182.5744870354979,483.0812433787846,194.9166268293389,483.2115340779576C207.2587666231799,483.34182477713057,219.60090641702092,483.65405620612773,231.94304621086192,483.3956006382494C244.28518600470292,483.13714507037105,256.6273257985439,482.30800250561737,268.9694655923849,481.9230681559152C281.3116053862259,481.538133806213,293.65374518006695,481.5974076715627,305.99588497390795,481.8310348757693C318.33802476774895,482.06466207997596,330.68016456159,482.4726426230394,343.022304355431,482.7513676772282C355.364444149272,483.03009273141697,367.70658394311306,483.17956229673115,380.04872373695406,482.9354342375199C392.39086353079506,482.6913061783087,404.73300332463606,482.0535804945719,417.07514311847706,482.2912012764987C429.41728291231806,482.52882205842553,441.75942270615906,483.6417893060163,454.1015625000001,484.0398335992706C466.44370229384117,484.4378778925249,478.78584208768206,484.12099923144285,491.12798188152306,483.8557670389788C503.47012167536406,483.59053484651474,515.812261469205,483.37694912266846,528.1544012630461,482.9354342375199C540.4965410568872,482.4939193523714,552.8386808507282,481.8244753059205,565.1808206445692,482.107134716207C577.5229604384101,482.3897941264935,589.865100232251,483.62455699351756,602.2072400260921,483.48763391839526C614.5493798199332,483.35071084327296,626.8915196137741,481.8421018260046,639.233659407615,481.73900159562345C651.575799201456,481.6359013652423,663.917938995297,482.9383099217482,676.2600787891381,481.9230681559152C688.6022185829792,480.90782639008216,700.9443583768203,477.5749343019102,713.2864981706612,476.95327102803736C725.628637964502,476.3316077541645,737.970777758343,478.42117329459046,750.3129175521841,478.24173695007977C762.6550573460252,478.0623006055691,774.9971971398661,475.6138623761217,787.3393369337072,474.56040574424435C799.6814767275482,473.506949112367,812.0236165213893,473.84847407805995,824.3657563152302,474.1922726236608C836.7078961090712,474.5360711692617,849.0500359029122,474.8821432947703,861.3921756967533,474.56040574424435C873.7343154905943,474.2386681937184,886.0764552844353,473.2491209671578,898.4185950782763,472.2595737405972L898.4185950782763,457.25814907681786C886.0764552844354,459.063672465767,873.7343154905943,460.8691958547162,861.3921756967533,461.4916799635286C849.0500359029122,462.114164072341,836.7078961090714,461.5536089010167,824.3657563152302,460.2952473216321C812.023616521389,459.0368857422475,799.6814767275481,457.08071775480255,787.3393369337072,459.558981080465C774.9971971398662,462.03724440612746,762.655057346025,468.9499390448977,750.3129175521841,469.49857533622065C737.9707777583432,470.0472116275436,725.6286379645022,464.23178957141965,713.2864981706612,465.63317757009344C700.9443583768201,467.0345655687672,688.6022185829792,475.65276362223887,676.2600787891381,478.70190335080923C663.917938995297,481.7510430793796,651.5757992014561,479.2311244830489,639.233659407615,479.07003647139277C626.891519613774,478.9089484597366,614.5493798199332,481.106691032755,602.2072400260921,481.55493503533165C589.865100232251,482.0031790379083,577.5229604384101,480.7019244700428,565.1808206445692,480.7266355140187C552.8386808507282,480.7513465579946,540.496541056887,482.1020232138121,528.1544012630461,482.65933439708226C515.8122614692052,483.2166455803524,503.47012167536417,482.98059129107537,491.12798188152306,483.1195007978117C478.78584208768194,483.2584103045481,466.4437022938411,483.7722836072978,454.1015625000001,483.30356735810346C441.7594227061591,482.8348511089091,429.41728291231806,481.3835453077705,417.07514311847706,480.91070207431045C404.73300332463606,480.4378588408504,392.390863530795,480.94347817506883,380.04872373695406,481.09476863460225C367.7065839431131,481.24605909413566,355.36444414927206,481.0430206789842,343.022304355431,481.0027353544564C330.68016456158995,480.96245002992856,318.33802476774895,481.08491779602485,305.99588497390795,481.1868019147481C293.65374518006695,481.2886860334714,281.31160538622595,481.3699865048215,268.9694655923849,481.73900159562345C256.62732579854384,482.1080166864254,244.2851860047029,482.7647463966789,231.94304621086192,483.02746751766585C219.60090641702095,483.2901886386528,207.2587666231799,483.15890117037344,194.9166268293389,483.1195007978117C182.5744870354979,483.08010042525,170.2323472416569,483.132587148406,157.89020744781587,483.30356735810346C145.54806765397484,483.4745475678009,133.20592786013384,483.76402126404025,120.86378806629284,483.8557670389788C108.52164827245184,483.94751281391734,96.17950847861083,483.8415306675544,83.83736868476981,483.67170047868706C71.4952288909288,483.5018702898197,59.153089097087786,483.268192058448,46.81094930324679,483.3956006382494C34.46880950940579,483.5230092180508,22.126669715564773,484.0115046090254,9.784529921723761,484.5Z" style="opacity: 0.84; fill: rgb(255, 87, 51);"/><path class="area" d="M9.784529921723761,484.5C22.12666971556477,484.01150460902534,34.46880950940578,483.52300921805073,46.81094930324679,483.3956006382494C59.15308909708779,483.26819205844805,71.49522889092881,483.5018702898197,83.83736868476981,483.67170047868706C96.17950847861081,483.8415306675544,108.52164827245181,483.94751281391717,120.86378806629284,483.8557670389788C133.20592786013387,483.7640212640404,145.54806765397487,483.4745475678011,157.89020744781587,483.30356735810346C170.23234724165687,483.13258714840583,182.5744870354979,483.0801004252499,194.9166268293389,483.1195007978117C207.2587666231799,483.15890117037355,219.60090641702092,483.290188638653,231.94304621086192,483.02746751766585C244.28518600470292,482.76474639667873,256.6273257985439,482.1080166864252,268.9694655923849,481.73900159562345C281.3116053862259,481.3699865048217,293.65374518006695,481.28868603347155,305.99588497390795,481.1868019147481C318.33802476774895,481.0849177960247,330.68016456159,480.96245002992856,343.022304355431,481.0027353544564C355.364444149272,481.0430206789842,367.70658394311306,481.2460590941357,380.04872373695406,481.09476863460225C392.39086353079506,480.9434781750688,404.73300332463606,480.4378588408505,417.07514311847706,480.91070207431045C429.41728291231806,481.3835453077704,441.75942270615906,482.8348511089091,454.1015625000001,483.30356735810346C466.44370229384117,483.7722836072978,478.78584208768206,483.2584103045481,491.12798188152306,483.1195007978117C503.47012167536406,482.98059129107537,515.812261469205,483.2166455803524,528.1544012630461,482.65933439708226C540.4965410568872,482.1020232138121,552.8386808507282,480.7513465579947,565.1808206445692,480.7266355140187C577.5229604384101,480.70192447004274,589.865100232251,482.00317903790824,602.2072400260921,481.55493503533165C614.5493798199332,481.10669103275507,626.8915196137741,478.9089484597366,639.233659407615,479.07003647139277C651.575799201456,479.2311244830489,663.917938995297,481.75104307937966,676.2600787891381,478.70190335080923C688.6022185829792,475.6527636222388,700.9443583768203,467.0345655687673,713.2864981706612,465.63317757009344C725.628637964502,464.2317895714196,737.970777758343,470.0472116275435,750.3129175521841,469.49857533622065C762.6550573460252,468.9499390448978,774.9971971398661,462.0372444061277,787.3393369337072,459.558981080465C799.6814767275482,457.0807177548023,812.0236165213893,459.0368857422473,824.3657563152302,460.2952473216321C836.7078961090712,461.55360890101684,849.0500359029122,462.1141640723411,861.3921756967533,461.4916799635286C873.7343154905943,460.8691958547161,886.0764552844353,459.063672465767,898.4185950782763,457.25814907681786L898.4185950782763,455.96968315477545C886.0764552844354,457.6186788533177,873.7343154905943,459.26767455185995,861.3921756967533,459.6510143606109C849.0500359029122,460.0343541693618,836.7078961090714,459.15203808832155,824.3657563152302,457.8103487576932C812.023616521389,456.46865942706484,799.6814767275481,454.6675968468486,787.3393369337072,456.8900159562343C774.9971971398662,459.11243506562005,762.655057346025,465.3583358646077,750.3129175521841,464.89691132892636C737.9707777583432,464.43548679324505,725.6286379645022,457.2667369228947,713.2864981706612,458.08644859813086C700.9443583768201,458.906160273367,688.6022185829792,467.71433349418993,676.2600787891381,472.16754046045133C663.917938995297,476.62074742671274,651.5757992014561,476.7189881384128,639.233659407615,477.6895372692045C626.891519613774,478.6600863999962,614.5493798199332,480.5029439498794,602.2072400260921,480.91070207431045C589.865100232251,481.3184601987415,577.5229604384101,480.2911188977202,565.1808206445692,480.45053567358104C552.8386808507282,480.6099524494419,540.496541056887,481.9561273021845,528.1544012630461,482.38323455664465C515.8122614692052,482.8103418111048,503.47012167536417,482.318381467283,491.12798188152306,482.38323455664465C478.78584208768194,482.4480876460063,466.4437022938411,483.06975416855107,454.1015625000001,482.7513676772282C441.7594227061591,482.4329811859053,429.41728291231806,481.17454168071464,417.07514311847706,480.7266355140187C404.73300332463606,480.2787293473228,392.390863530795,480.64135651912153,380.04872373695406,480.7266355140187C367.7065839431131,480.8119145089159,355.36444414927206,480.6198453269111,343.022304355431,480.6346022338728C330.68016456158995,480.64935914083446,318.33802476774895,480.87094213676244,305.99588497390795,481.0027353544564C293.65374518006695,481.1345285721503,281.31160538622595,481.17653201161016,268.9694655923849,481.4629017551858C256.62732579854384,481.7492714987614,244.2851860047029,482.2800075464527,231.94304621086192,482.5673011169364C219.60090641702095,482.8545946874201,207.2587666231799,482.898445780696,194.9166268293389,482.9354342375199C182.5744870354979,482.97242269434383,170.2323472416569,483.0025485147154,157.89020744781587,483.1195007978117C145.54806765397484,483.23645308090806,133.20592786013384,483.4402318267292,120.86378806629284,483.57966719854113C108.52164827245184,483.7191025703531,96.17950847861083,483.7941945681556,83.83736868476981,483.57966719854113C71.4952288909288,483.36513982892666,59.153089097087786,482.86099309189495,46.81094930324679,482.9354342375199C34.46880950940579,483.0098753831449,22.126669715564773,483.66290441142655,9.784529921723761,484.3159334397082Z" style="opacity: 0.84; fill: rgb(104, 121, 46);"/><path class="area" d="M9.784529921723761,484.3159334397082C22.12666971556477,483.6629044114265,34.46880950940578,483.00987538314484,46.81094930324679,482.9354342375199C59.15308909708779,482.860993091895,71.49522889092881,483.36513982892654,83.83736868476981,483.57966719854113C96.17950847861081,483.7941945681557,108.52164827245181,483.71910257035313,120.86378806629284,483.57966719854113C133.20592786013387,483.44023182672913,145.54806765397487,483.23645308090806,157.89020744781587,483.1195007978117C170.23234724165687,483.0025485147154,182.5744870354979,482.9724226943438,194.9166268293389,482.9354342375199C207.2587666231799,482.8984457806961,219.60090641702092,482.85459468742,231.94304621086192,482.5673011169364C244.28518600470292,482.2800075464528,256.6273257985439,481.7492714987615,268.9694655923849,481.4629017551858C281.3116053862259,481.17653201161005,293.65374518006695,481.13452857215026,305.99588497390795,481.0027353544564C318.33802476774895,480.8709421367625,330.68016456159,480.6493591408345,343.022304355431,480.6346022338728C355.364444149272,480.61984532691105,367.70658394311306,480.81191450891566,380.04872373695406,480.7266355140187C392.39086353079506,480.64135651912176,404.73300332463606,480.27872934732295,417.07514311847706,480.7266355140187C429.41728291231806,481.17454168071447,441.75942270615906,482.4329811859052,454.1015625000001,482.7513676772282C466.44370229384117,483.0697541685512,478.78584208768206,482.44808764600634,491.12798188152306,482.38323455664465C503.47012167536406,482.31838146728296,515.812261469205,482.8103418111049,528.1544012630461,482.38323455664465C540.4965410568872,481.9561273021844,552.8386808507282,480.60995244944183,565.1808206445692,480.45053567358104C577.5229604384101,480.29111889772025,589.865100232251,481.3184601987414,602.2072400260921,480.91070207431045C614.5493798199332,480.5029439498795,626.8915196137741,478.6600863999962,639.233659407615,477.6895372692045C651.575799201456,476.7189881384128,663.917938995297,476.62074742671274,676.2600787891381,472.16754046045133C688.6022185829792,467.71433349418993,700.9443583768203,458.9061602733671,713.2864981706612,458.08644859813086C725.628637964502,457.2667369228946,737.970777758343,464.43548679324493,750.3129175521841,464.89691132892636C762.6550573460252,465.3583358646078,774.9971971398661,459.1124350656201,787.3393369337072,456.8900159562343C799.6814767275482,454.66759684684854,812.0236165213893,456.46865942706484,824.3657563152302,457.8103487576932C836.7078961090712,459.15203808832155,849.0500359029122,460.03435416936173,861.3921756967533,459.6510143606109C873.7343154905943,459.26767455186,886.0764552844353,457.61867885331776,898.4185950782763,455.96968315477545L898.4185950782763,452.5644517893777C886.0764552844354,454.5143244651318,873.7343154905943,456.464197140886,861.3921756967533,457.3501823569638C849.0500359029122,458.2361675730416,836.7078961090714,458.0582653294433,824.3657563152302,456.5218828356508C812.023616521389,454.98550034185826,799.6814767275481,452.09063759787153,787.3393369337072,453.944950991566C774.9971971398662,455.7992643852604,762.655057346025,462.4027539166359,750.3129175521841,461.85981308411215C737.9707777583432,461.3168722515884,725.6286379645022,453.6275010551655,713.2864981706612,454.6812172327331C700.9443583768201,455.7349334103007,688.6022185829792,465.53173696185866,676.2600787891381,470.3268748575336C663.917938995297,475.12201275320854,651.5757992014561,474.91548499300023,639.233659407615,475.9409049464326C626.891519613774,476.966324899865,614.5493798199332,479.22369256693827,602.2072400260921,479.9903692728516C589.865100232251,480.7570459787649,577.5229604384101,480.03303172351804,565.1808206445692,480.26646911328925C552.8386808507282,480.49990650306046,540.496541056887,481.69079553784957,528.1544012630461,482.0151014360611C515.8122614692052,482.33940733427266,503.47012167536417,481.7971300959064,491.12798188152306,481.8310348757693C478.78584208768194,481.8649396556322,466.4437022938411,482.4750264537243,454.1015625000001,482.19916799635286C441.7594227061591,481.9233095389814,429.41728291231806,480.7615058261462,417.07514311847706,480.45053567358104C404.73300332463606,480.13956552101587,392.390863530795,480.6794289287207,380.04872373695406,480.7266355140187C367.7065839431131,480.7738420993167,355.36444414927206,480.32839186220826,343.022304355431,480.1744358331434C330.68016456158995,480.0204798040785,318.33802476774895,480.15801798305716,305.99588497390795,480.45053567358104C293.65374518006695,480.7430533641049,281.31160538622595,481.1905505661736,268.9694655923849,481.4629017551858C256.62732579854384,481.73525294419795,244.2851860047029,481.8324581201532,231.94304621086192,481.9230681559152C219.60090641702095,482.0136781916772,207.2587666231799,482.0976930872458,194.9166268293389,482.2912012764987C182.5744870354979,482.4847094657517,170.2323472416569,482.78771094868847,157.89020744781587,483.02746751766585C145.54806765397484,483.26722408664324,133.20592786013384,483.443735741661,120.86378806629284,483.57966719854113C108.52164827245184,483.7155986554213,96.17950847861083,483.81094991416364,83.83736868476981,483.57966719854113C71.4952288909288,483.3483844829186,59.153089097087786,482.7904677929313,46.81094930324679,482.84340095737406C34.46880950940579,482.89633412181684,22.126669715564773,483.5601171406896,9.784529921723761,484.22390015956233Z" style="opacity: 0.84; fill: rgb(143, 160, 82);"/><path class="area" d="M9.784529921723761,484.22390015956233C22.12666971556477,483.5601171406895,34.46880950940578,482.8963341218168,46.81094930324679,482.84340095737406C59.15308909708779,482.79046779293134,71.49522889092881,483.3483844829186,83.83736868476981,483.57966719854113C96.17950847861081,483.81094991416364,108.52164827245181,483.7155986554212,120.86378806629284,483.57966719854113C133.20592786013387,483.44373574166104,145.54806765397487,483.26722408664324,157.89020744781587,483.02746751766585C170.23234724165687,482.78771094868847,182.5744870354979,482.4847094657516,194.9166268293389,482.2912012764987C207.2587666231799,482.09769308724583,219.60090641702092,482.0136781916771,231.94304621086192,481.9230681559152C244.28518600470292,481.83245812015326,256.6273257985439,481.73525294419795,268.9694655923849,481.4629017551858C281.3116053862259,481.1905505661736,293.65374518006695,480.7430533641047,305.99588497390795,480.45053567358104C318.33802476774895,480.1580179830574,330.68016456159,480.0204798040785,343.022304355431,480.1744358331434C355.364444149272,480.32839186220826,367.70658394311306,480.77384209931677,380.04872373695406,480.7266355140187C392.39086353079506,480.67942892872065,404.73300332463606,480.1395655210159,417.07514311847706,480.45053567358104C429.41728291231806,480.76150582614616,441.75942270615906,481.9233095389813,454.1015625000001,482.19916799635286C466.44370229384117,482.4750264537244,478.78584208768206,481.86493965563227,491.12798188152306,481.8310348757693C503.47012167536406,481.79713009590637,515.812261469205,482.3394073342725,528.1544012630461,482.0151014360611C540.4965410568872,481.69079553784974,552.8386808507282,480.4999065030605,565.1808206445692,480.26646911328925C577.5229604384101,480.033031723518,589.865100232251,480.7570459787647,602.2072400260921,479.9903692728516C614.5493798199332,479.22369256693844,626.8915196137741,476.9663248998651,639.233659407615,475.9409049464326C651.575799201456,474.9154849930001,663.917938995297,475.1220127532084,676.2600787891381,470.3268748575336C688.6022185829792,465.53173696185877,700.9443583768203,455.73493341030075,713.2864981706612,454.6812172327331C725.628637964502,453.62750105516545,737.970777758343,461.31687225158834,750.3129175521841,461.85981308411215C762.6550573460252,462.40275391663596,774.9971971398661,455.7992643852604,787.3393369337072,453.944950991566C799.6814767275482,452.09063759787153,812.0236165213893,454.9855003418582,824.3657563152302,456.5218828356508C836.7078961090712,458.0582653294434,849.0500359029122,458.23616757304166,861.3921756967533,457.3501823569638C873.7343154905943,456.4641971408859,886.0764552844353,454.51432446513184,898.4185950782763,452.5644517893777L898.4185950782763,450.8158194666059C886.0764552844354,453.15543596602737,873.7343154905943,455.4950524654488,861.3921756967533,456.5218828356508C849.0500359029122,457.5487132058528,836.7078961090714,457.2627574468355,824.3657563152302,455.4174834739002C812.023616521389,453.57220950096485,799.6814767275481,450.1676173141118,787.3393369337072,452.1042853886483C774.9971971398662,454.0409534631848,762.655057346025,461.3188817991112,750.3129175521841,460.6633804422156C737.9707777583432,460.00787908532004,725.6286379645022,451.41894803560274,713.2864981706612,452.38038522908596C700.9443583768201,453.3418224225692,688.6022185829792,463.85362785925304,676.2600787891381,469.03840893549125C663.917938995297,474.22319001172946,651.5757992014561,474.0809467275222,639.233659407615,475.1126054251197C626.891519613774,476.1442641227172,614.5493798199332,478.3498248021191,602.2072400260921,479.2541030316845C589.865100232251,480.15838126124993,577.5229604384101,479.7613770409787,565.1808206445692,480.0824025529975C552.8386808507282,480.4034280650163,540.496541056887,481.4424833093251,528.1544012630461,481.73900159562345C515.8122614692052,482.0355198819218,503.47012167536417,481.5895012102098,491.12798188152306,481.6469683154775C478.78584208768194,481.70443542074526,466.4437022938411,482.26538830299233,454.1015625000001,482.0151014360611C441.7594227061591,481.7648145691299,429.41728291231806,480.70328795302055,417.07514311847706,480.3585023934352C404.73300332463606,480.0137168338498,392.390863530795,480.38567233078845,380.04872373695406,480.45053567358104C367.7065839431131,480.51539901637364,355.36444414927206,480.27317020501994,343.022304355431,480.1744358331434C330.68016456158995,480.0757014612668,318.33802476774895,480.12046152886717,305.99588497390795,480.3585023934352C293.65374518006695,480.5965432580032,281.31160538622595,481.0278649195389,268.9694655923849,481.278835194894C256.62732579854384,481.5298054702491,244.2851860047029,481.6004243594235,231.94304621086192,481.73900159562345C219.60090641702095,481.87757883182337,207.2587666231799,482.08411441504893,194.9166268293389,482.2912012764987C182.5744870354979,482.4982881379485,170.2323472416569,482.7059262776223,157.89020744781587,482.9354342375199C145.54806765397484,483.16494219741753,133.20592786013384,483.4163199775386,120.86378806629284,483.57966719854113C108.52164827245184,483.74301441954367,96.17950847861083,483.81833108142735,83.83736868476981,483.57966719854113C71.4952288909288,483.3410033156549,59.153089097087786,482.78835888799887,46.81094930324679,482.84340095737406C34.46880950940579,482.89844302674925,22.126669715564773,483.5611715931558,9.784529921723761,484.22390015956233Z" style="opacity: 0.84; fill: rgb(161, 178, 99);"/><path class="area" d="M9.784529921723761,484.22390015956233C22.12666971556477,483.5611715931558,34.46880950940578,482.89844302674925,46.81094930324679,482.84340095737406C59.15308909708779,482.78835888799887,71.49522889092881,483.3410033156549,83.83736868476981,483.57966719854113C96.17950847861081,483.81833108142735,108.52164827245181,483.74301441954367,120.86378806629284,483.57966719854113C133.20592786013387,483.4163199775386,145.54806765397487,483.16494219741736,157.89020744781587,482.9354342375199C170.23234724165687,482.7059262776225,182.5744870354979,482.4982881379486,194.9166268293389,482.2912012764987C207.2587666231799,482.0841144150489,219.60090641702092,481.8775788318235,231.94304621086192,481.73900159562345C244.28518600470292,481.6004243594234,256.6273257985439,481.529805470249,268.9694655923849,481.278835194894C281.3116053862259,481.02786491953896,293.65374518006695,480.59654325800307,305.99588497390795,480.3585023934352C318.33802476774895,480.1204615288673,330.68016456159,480.0757014612669,343.022304355431,480.1744358331434C355.364444149272,480.2731702050199,367.70658394311306,480.51539901637346,380.04872373695406,480.45053567358104C392.39086353079506,480.3856723307886,404.73300332463606,480.01371683384986,417.07514311847706,480.3585023934352C429.41728291231806,480.7032879530205,441.75942270615906,481.76481456912995,454.1015625000001,482.0151014360611C466.44370229384117,482.2653883029923,478.78584208768206,481.70443542074514,491.12798188152306,481.6469683154775C503.47012167536406,481.5895012102099,515.812261469205,482.03551988192174,528.1544012630461,481.73900159562345C540.4965410568872,481.44248330932516,552.8386808507282,480.4034280650163,565.1808206445692,480.0824025529975C577.5229604384101,479.7613770409787,589.865100232251,480.1583812612498,602.2072400260921,479.2541030316845C614.5493798199332,478.3498248021192,626.8915196137741,476.1442641227172,639.233659407615,475.1126054251197C651.575799201456,474.0809467275222,663.917938995297,474.22319001172946,676.2600787891381,469.03840893549125C688.6022185829792,463.85362785925304,700.9443583768203,453.34182242256924,713.2864981706612,452.38038522908596C725.628637964502,451.4189480356027,737.970777758343,460.00787908532004,750.3129175521841,460.6633804422156C762.6550573460252,461.3188817991112,774.9971971398661,454.04095346318485,787.3393369337072,452.1042853886483C799.6814767275482,450.16761731411174,812.0236165213893,453.5722095009648,824.3657563152302,455.4174834739002C836.7078961090712,457.26275744683556,849.0500359029122,457.5487132058528,861.3921756967533,456.5218828356508C873.7343154905943,455.4950524654488,886.0764552844353,453.1554359660273,898.4185950782763,450.8158194666059L898.4185950782763,442.34875769318444C886.0764552844354,445.16627683850317,873.7343154905943,447.9837959838219,861.3921756967533,447.5946546614999C849.0500359029122,447.20551333917786,836.7078961090714,443.6097115492147,824.3657563152302,441.70452473216324C812.023616521389,439.7993379151118,799.6814767275481,439.5847660709719,787.3393369337072,442.2567244130385C774.9971971398662,444.9286827551051,762.655057346025,450.4871712833778,750.3129175521841,447.22652154091634C737.9707777583432,443.9658717984549,725.6286379645022,431.88608378525925,713.2864981706612,428.72783223159337C700.9443583768201,425.5695806779275,688.6022185829792,431.33286558379143,676.2600787891381,441.06029177114203C663.917938995297,450.78771795849264,651.5757992014561,464.47928542732967,639.233659407615,470.4189081376795C626.891519613774,476.3585308480294,614.5493798199332,474.5462087998921,602.2072400260921,473.7321062229314C589.865100232251,472.9180036459707,577.5229604384101,473.1021205401868,565.1808206445692,474.0082060633691C552.8386808507282,474.91429158655137,540.496541056887,476.5423457386999,528.1544012630461,476.7692044677456C515.8122614692052,476.99606319679134,503.47012167536417,475.82172650273407,491.12798188152306,475.4807385457032C478.78584208768194,475.13975058867237,466.4437022938411,475.6321113686681,454.1015625000001,476.2170047868703C441.7594227061591,476.80189820507246,429.41728291231806,477.4793242614809,417.07514311847706,476.5851379074538C404.73300332463606,475.69095155342677,392.390863530795,473.2251527889644,380.04872373695406,472.81177342147254C367.7065839431131,472.39839405398067,355.36444414927206,474.03743408345906,343.022304355431,474.74447230453615C330.68016456158995,475.45151052561323,318.33802476774895,475.2265469382891,305.99588497390795,475.5727718258491C293.65374518006695,475.91899671340906,281.31160538622595,476.8364100758528,268.9694655923849,477.3214041486209C256.62732579854384,477.806398221389,244.2851860047029,477.8589730044813,231.94304621086192,478.05767038978803C219.60090641702095,478.25636777509476,207.2587666231799,478.60118776261635,194.9166268293389,479.16206975153864C182.5744870354979,479.7229517404609,170.2323472416569,480.4998957307842,157.89020744781587,481.09476863460225C145.54806765397484,481.6896415384203,133.20592786013384,482.10244335573304,120.86378806629284,482.4752678367905C108.52164827245184,482.848092317848,96.17950847861083,483.1809394626502,83.83736868476981,483.1195007978117C71.4952288909288,483.05806213297325,59.153089097087786,482.60233765849443,46.81094930324679,482.65933439708226C34.46880950940579,482.7163311356701,22.126669715564773,483.28604908732444,9.784529921723761,483.8557670389788Z" style="opacity: 0.84; fill: rgb(252, 149, 252);"/><path class="area" d="M9.784529921723761,483.8557670389788C22.12666971556477,483.2860490873245,34.46880950940578,482.71633113567003,46.81094930324679,482.65933439708226C59.15308909708779,482.6023376584945,71.49522889092881,483.0580621329735,83.83736868476981,483.1195007978117C96.17950847861081,483.18093946265,108.52164827245181,482.84809231784783,120.86378806629284,482.4752678367905C133.20592786013387,482.1024433557332,145.54806765397487,481.68964153842035,157.89020744781587,481.09476863460225C170.23234724165687,480.49989573078415,182.5744870354979,479.72295174046104,194.9166268293389,479.16206975153864C207.2587666231799,478.60118776261623,219.60090641702092,478.25636777509476,231.94304621086192,478.05767038978803C244.28518600470292,477.8589730044813,256.6273257985439,477.80639822138903,268.9694655923849,477.3214041486209C281.3116053862259,476.83641007585277,293.65374518006695,475.91899671340906,305.99588497390795,475.5727718258491C318.33802476774895,475.2265469382891,330.68016456159,475.4515105256132,343.022304355431,474.74447230453615C355.364444149272,474.0374340834591,367.70658394311306,472.3983940539806,380.04872373695406,472.81177342147254C392.39086353079506,473.22515278896446,404.73300332463606,475.69095155342677,417.07514311847706,476.5851379074538C429.41728291231806,477.4793242614809,441.75942270615906,476.80189820507235,454.1015625000001,476.2170047868703C466.44370229384117,475.63211136866823,478.78584208768206,475.1397505886725,491.12798188152306,475.4807385457032C503.47012167536406,475.82172650273395,515.812261469205,476.9960631967913,528.1544012630461,476.7692044677456C540.4965410568872,476.54234573869996,552.8386808507282,474.9142915865513,565.1808206445692,474.0082060633691C577.5229604384101,473.10212054018683,589.865100232251,472.91800364597077,602.2072400260921,473.7321062229314C614.5493798199332,474.54620879989204,626.8915196137741,476.3585308480295,639.233659407615,470.4189081376795C651.575799201456,464.47928542732956,663.917938995297,450.7877179584926,676.2600787891381,441.06029177114203C688.6022185829792,431.3328655837915,700.9443583768203,425.5695806779274,713.2864981706612,428.72783223159337C725.628637964502,431.88608378525936,737.970777758343,443.965871798455,750.3129175521841,447.22652154091634C762.6550573460252,450.4871712833777,774.9971971398661,444.92868275510494,787.3393369337072,442.2567244130385C799.6814767275482,439.5847660709721,812.0236165213893,439.7993379151119,824.3657563152302,441.70452473216324C836.7078961090712,443.6097115492146,849.0500359029122,447.2055133391777,861.3921756967533,447.5946546614999C873.7343154905943,447.98379598382206,886.0764552844353,445.1662768385032,898.4185950782763,442.34875769318444L898.4185950782763,413.0821746067928C886.0764552844354,413.25370344361306,873.7343154905943,413.42523228043325,861.3921756967533,407.9283109186232C849.0500359029122,402.43138955681314,836.7078961090714,391.2660179963732,824.3657563152302,386.6686232049236C812.023616521389,382.07122841347405,799.6814767275481,384.041810391015,787.3393369337072,391.36232049236384C774.9971971398662,398.68283059371265,762.655057346025,411.35326881886925,750.3129175521841,403.87884659220424C737.9707777583432,396.4044243655392,725.6286379645022,368.7851416870525,713.2864981706612,353.35257579211304C700.9443583768201,337.9200098971736,688.6022185829792,334.67416078578134,676.2600787891381,357.7701732391156C663.917938995297,380.86618569244985,651.5757992014561,430.30405971051044,639.233659407615,445.7539890585822C626.891519613774,461.20391840665394,614.5493798199332,442.66590308473695,602.2072400260921,437.839126966036C589.865100232251,433.0123508473351,577.5229604384101,441.89681393185003,565.1808206445692,448.1468543423752C552.8386808507282,454.3968947529004,540.496541056887,458.0125124894358,528.1544012630461,459.558981080465C515.8122614692052,461.1054496714942,503.47012167536417,460.5827691170171,491.12798188152306,458.54661499886026C478.78584208768194,456.5104608807034,466.4437022938411,452.9608331988668,454.1015625000001,453.944950991566C441.7594227061591,454.92906878426516,429.41728291231806,460.4469320514997,417.07514311847706,458.4545817187144C404.73300332463606,456.4622313859291,392.390863530795,446.95966745312376,380.04872373695406,445.29382265785273C367.7065839431131,443.6279778625817,355.36444414927206,449.7988522048451,343.022304355431,452.84055162981537C330.68016456158995,455.8822510547856,318.33802476774895,455.794775562463,305.99588497390795,456.15374971506725C293.65374518006695,456.5127238676715,281.31160538622595,457.31814766520233,268.9694655923849,459.19084795988147C256.62732579854384,461.0635482545606,244.2851860047029,464.00352504638784,231.94304621086192,464.25267836790516C219.60090641702095,464.5018316894225,207.2587666231799,462.06016154062985,194.9166268293389,462.8721791657169C182.5744870354979,463.6841967908039,170.2323472416569,467.74990218977075,157.89020744781587,470.9711078185548C145.54806765397484,474.19231344733885,133.20592786013384,476.5690193059399,120.86378806629284,478.42580351037157C108.52164827245184,480.28258771480324,96.17950847861083,481.61945026506555,83.83736868476981,481.8310348757693C71.4952288909288,482.0426194864731,59.153089097087786,481.1289261576187,46.81094930324679,480.7266355140187C34.46880950940579,480.3243448704187,22.126669715564773,480.4334569120728,9.784529921723761,480.5425689537269Z" style="opacity: 0.84; fill: rgb(193, 42, 232);"/><path class="area" d="M9.784529921723761,480.5425689537269C22.12666971556477,480.43345691207264,34.46880950940578,480.32434487041854,46.81094930324679,480.7266355140187C59.15308909708779,481.1289261576189,71.49522889092881,482.0426194864732,83.83736868476981,481.8310348757693C96.17950847861081,481.61945026506544,108.52164827245181,480.28258771480307,120.86378806629284,478.42580351037157C133.20592786013387,476.56901930594006,145.54806765397487,474.19231344733885,157.89020744781587,470.9711078185548C170.23234724165687,467.74990218977075,182.5744870354979,463.684196790804,194.9166268293389,462.8721791657169C207.2587666231799,462.0601615406298,219.60090641702092,464.5018316894224,231.94304621086192,464.25267836790516C244.28518600470292,464.00352504638795,256.6273257985439,461.06354825456066,268.9694655923849,459.19084795988147C281.3116053862259,457.3181476652023,293.65374518006695,456.51272386767135,305.99588497390795,456.15374971506725C318.33802476774895,455.79477556246314,330.68016456159,455.88225105478574,343.022304355431,452.84055162981537C355.364444149272,449.798852204845,367.70658394311306,443.62797786258176,380.04872373695406,445.29382265785273C392.39086353079506,446.9596674531237,404.73300332463606,456.46223138592904,417.07514311847706,458.4545817187144C429.41728291231806,460.44693205149974,441.75942270615906,454.9290687842651,454.1015625000001,453.944950991566C466.44370229384117,452.96083319886685,478.78584208768206,456.51046088070353,491.12798188152306,458.54661499886026C503.47012167536406,460.582769117017,515.812261469205,461.10544967149417,528.1544012630461,459.558981080465C540.4965410568872,458.01251248943584,552.8386808507282,454.3968947529003,565.1808206445692,448.1468543423752C577.5229604384101,441.8968139318501,589.865100232251,433.0123508473351,602.2072400260921,437.839126966036C614.5493798199332,442.66590308473695,626.8915196137741,461.20391840665394,639.233659407615,445.7539890585822C651.575799201456,430.30405971051044,663.917938995297,380.86618569244985,676.2600787891381,357.7701732391156C688.6022185829792,334.67416078578134,700.9443583768203,337.92000989717366,713.2864981706612,353.35257579211304C725.628637964502,368.78514168705243,737.970777758343,396.4044243655392,750.3129175521841,403.87884659220424C762.6550573460252,411.35326881886925,774.9971971398661,398.68283059371265,787.3393369337072,391.36232049236384C799.6814767275482,384.041810391015,812.0236165213893,382.07122841347405,824.3657563152302,386.6686232049236C836.7078961090712,391.2660179963732,849.0500359029122,402.43138955681326,861.3921756967533,407.9283109186232C873.7343154905943,413.42523228043314,886.0764552844353,413.25370344361295,898.4185950782763,413.0821746067928L898.4185950782763,402.03818098928656C886.0764552844354,402.53743592968976,873.7343154905943,403.03669087009297,861.3921756967533,397.52855026213814C849.0500359029122,392.0204096541833,836.7078961090714,380.5048734978703,824.3657563152302,375.4405630271256C812.023616521389,370.37625255638096,799.6814767275481,371.76316777120473,787.3393369337072,379.6740939138364C774.9971971398662,387.585020056468,762.655057346025,402.0199571269075,750.3129175521841,395.4117848187828C737.9707777583432,388.80361251065807,725.6286379645022,361.1523308239694,713.2864981706612,341.57231593343977C700.9443583768201,321.9923010429101,688.6022185829792,310.4835529485396,676.2600787891381,335.3140528835195C663.917938995297,360.14455281849933,651.5757992014561,421.31430078282983,639.233659407615,441.33639161157964C626.891519613774,461.35848244032945,614.5493798199332,440.23291613349863,602.2072400260921,434.43389560063827C589.865100232251,428.6348750677779,577.5229604384101,438.16240030888827,565.1808206445692,444.9256895372692C552.8386808507282,451.6889787656501,540.496541056887,455.68803198130126,528.1544012630461,457.25814907681786C515.8122614692052,458.82826617233445,503.47012167536417,457.96944714771655,491.12798188152306,455.6015500341919C478.78584208768194,453.2336529206673,466.4437022938411,449.35667771823586,454.1015625000001,450.8158194666059C441.7594227061591,452.2749612149759,429.41728291231806,459.07021991414734,417.07514311847706,456.9820492363802C404.73300332463606,454.89387855861304,392.390863530795,443.92227850390765,380.04872373695406,441.98062457260085C367.7065839431131,440.03897064129404,355.36444414927206,447.1272628333857,343.022304355431,450.26361978573055C330.68016456158995,453.3999767380754,318.33802476774895,452.58439845067335,305.99588497390795,453.02461819010716C293.65374518006695,453.464837929541,281.31160538622595,455.1608556958109,268.9694655923849,457.25814907681786C256.62732579854384,459.35544245782484,244.2851860047029,461.85401145356934,231.94304621086192,462.4120127649875C219.60090641702095,462.9700140764056,207.2587666231799,461.58744770349773,194.9166268293389,462.5960793252792C182.5744870354979,463.6047109470607,170.2323472416569,467.0045405635315,157.89020744781587,470.14280829724186C145.54806765397484,473.2810760309522,133.20592786013384,476.1577818819015,120.86378806629284,478.1497036699339C108.52164827245184,480.1416254579663,96.17950847861083,481.2487631830819,83.83736868476981,481.4629017551858C71.4952288909288,481.67704032728966,59.153089097087786,480.99817974638177,46.81094930324679,480.6346022338728C34.46880950940579,480.2710247213638,22.126669715564773,480.2227302772536,9.784529921723761,480.1744358331434Z" style="opacity: 0.84; fill: rgb(124, 3, 154);"/><path class="area" d="M9.784529921723761,480.1744358331434C22.12666971556477,480.2227302772535,34.46880950940578,480.27102472136363,46.81094930324679,480.6346022338728C59.15308909708779,480.99817974638194,71.49522889092881,481.67704032728966,83.83736868476981,481.4629017551858C96.17950847861081,481.2487631830819,108.52164827245181,480.1416254579663,120.86378806629284,478.1497036699339C133.20592786013387,476.1577818819015,145.54806765397487,473.2810760309521,157.89020744781587,470.14280829724186C170.23234724165687,467.00454056353163,182.5744870354979,463.60471094706077,194.9166268293389,462.5960793252792C207.2587666231799,461.5874477034977,219.60090641702092,462.97001407640573,231.94304621086192,462.4120127649875C244.28518600470292,461.8540114535692,256.6273257985439,459.35544245782484,268.9694655923849,457.25814907681786C281.3116053862259,455.1608556958109,293.65374518006695,453.46483792954103,305.99588497390795,453.02461819010716C318.33802476774895,452.5843984506733,330.68016456159,453.3999767380754,343.022304355431,450.26361978573055C355.364444149272,447.1272628333857,367.70658394311306,440.03897064129404,380.04872373695406,441.98062457260085C392.39086353079506,443.92227850390765,404.73300332463606,454.8938785586132,417.07514311847706,456.9820492363802C429.41728291231806,459.0702199141472,441.75942270615906,452.27496121497575,454.1015625000001,450.8158194666059C466.44370229384117,449.356677718236,478.78584208768206,453.23365292066734,491.12798188152306,455.6015500341919C503.47012167536406,457.9694471477165,515.812261469205,458.82826617233445,528.1544012630461,457.25814907681786C540.4965410568872,455.68803198130126,552.8386808507282,451.68897876565,565.1808206445692,444.9256895372692C577.5229604384101,438.1624003088884,589.865100232251,428.63487506777795,602.2072400260921,434.43389560063827C614.5493798199332,440.2329161334986,626.8915196137741,461.35848244032945,639.233659407615,441.33639161157964C651.575799201456,421.31430078282983,663.917938995297,360.14455281849933,676.2600787891381,335.3140528835195C688.6022185829792,310.4835529485396,700.9443583768203,321.9923010429102,713.2864981706612,341.57231593343977C725.628637964502,361.15233082396935,737.970777758343,388.80361251065807,750.3129175521841,395.4117848187828C762.6550573460252,402.0199571269075,774.9971971398661,387.585020056468,787.3393369337072,379.6740939138364C799.6814767275482,371.76316777120473,812.0236165213893,370.376252556381,824.3657563152302,375.4405630271256C836.7078961090712,380.5048734978702,849.0500359029122,392.02040965418325,861.3921756967533,397.52855026213814C873.7343154905943,403.036690870093,886.0764552844353,402.53743592968976,898.4185950782763,402.03818098928656L898.4185950782763,292.2424777752451C886.0764552844354,288.7482389231163,873.7343154905943,285.25400007098744,861.3921756967533,267.5775586961477C849.0500359029122,249.901117321308,836.7078961090714,218.04247342375746,824.3657563152302,209.87269204467748C812.023616521389,201.7029106655975,799.6814767275481,217.22199180498816,787.3393369337072,211.34522452701162C774.9971971398662,205.46845724903508,762.655057346025,178.19584155369128,750.3129175521841,160.26675404604515C737.9707777583432,142.33766653839902,725.6286379645022,133.75210721845065,713.2864981706612,127.75855433496696C700.9443583768201,121.76500145148329,688.6022185829792,118.36345500446436,676.2600787891381,147.65819466605882C663.917938995297,176.95293432765328,651.5757992014561,238.94396009786112,639.233659407615,276.228687029861C626.891519613774,313.5134139618609,614.5493798199332,326.09184205565293,602.2072400260921,336.3264189651243C589.865100232251,346.5609958745956,577.5229604384101,354.4517215997463,565.1808206445692,364.39656940961936C552.8386808507282,374.3414172194924,540.496541056887,386.3403871140878,528.1544012630461,395.7799179393663C515.8122614692052,405.2194487646449,503.47012167536417,412.09954052060687,491.12798188152306,414.1865739685434C478.78584208768194,416.27360741648,466.4437022938411,413.56758255639136,454.1015625000001,418.7882379758377C441.7594227061591,424.0088933952841,429.41728291231806,437.15622909426577,417.07514311847706,435.3542284020971C404.73300332463606,433.5522277099284,392.390863530795,416.8008906266091,380.04872373695406,414.3706405288352C367.7065839431131,411.94039043106136,355.36444414927206,423.8312273188329,343.022304355431,428.72783223159337C330.68016456158995,433.62443714435386,318.33802476774895,431.52681008210305,305.99588497390795,431.85696375655345C293.65374518006695,432.18711743100386,281.31160538622595,434.9450518421554,268.9694655923849,439.2196261682243C256.62732579854384,443.4942004942932,244.2851860047029,449.28541473527974,231.94304621086192,450.0795532254388C219.60090641702095,450.8736917155979,207.2587666231799,446.67075445492947,194.9166268293389,447.6866879416458C182.5744870354979,448.70262142836214,170.2323472416569,454.9374256624631,157.89020744781587,459.19084795988147C145.54806765397484,463.4442702572998,133.20592786013384,465.71631061803527,120.86378806629284,469.31450877592886C108.52164827245184,472.91270693382245,96.17950847861083,477.83706288887396,83.83736868476981,479.4381695919763C71.4952288909288,481.03927629507865,59.153089097087786,479.31713374623143,46.81094930324679,478.24173695007977C34.46880950940579,477.1663401539281,22.126669715564773,476.73768911047216,9.784529921723761,476.30903806701616Z" style="opacity: 0.84; fill: rgb(101, 209, 157);"/><path class="area" d="M9.784529921723761,476.30903806701616C22.12666971556477,476.7376891104721,34.46880950940578,477.1663401539281,46.81094930324679,478.24173695007977C59.15308909708779,479.31713374623143,71.49522889092881,481.0392762950786,83.83736868476981,479.4381695919763C96.17950847861081,477.837062888874,108.52164827245181,472.91270693382245,120.86378806629284,469.31450877592886C133.20592786013387,465.71631061803527,145.54806765397487,463.4442702572999,157.89020744781587,459.19084795988147C170.23234724165687,454.93742566246306,182.5744870354979,448.70262142836214,194.9166268293389,447.6866879416458C207.2587666231799,446.67075445492947,219.60090641702092,450.87369171559783,231.94304621086192,450.0795532254388C244.28518600470292,449.2854147352798,256.6273257985439,443.4942004942934,268.9694655923849,439.2196261682243C281.3116053862259,434.9450518421552,293.65374518006695,432.1871174310038,305.99588497390795,431.85696375655345C318.33802476774895,431.5268100821031,330.68016456159,433.62443714435386,343.022304355431,428.72783223159337C355.364444149272,423.8312273188329,367.70658394311306,411.94039043106136,380.04872373695406,414.3706405288352C392.39086353079506,416.8008906266091,404.73300332463606,433.5522277099283,417.07514311847706,435.3542284020971C429.41728291231806,437.1562290942659,441.75942270615906,424.0088933952842,454.1015625000001,418.7882379758377C466.44370229384117,413.56758255639124,478.78584208768206,416.27360741648,491.12798188152306,414.1865739685434C503.47012167536406,412.09954052060687,515.812261469205,405.219448764645,528.1544012630461,395.7799179393663C540.4965410568872,386.34038711408766,552.8386808507282,374.34141721949237,565.1808206445692,364.39656940961936C577.5229604384101,354.45172159974635,589.865100232251,346.56099587459556,602.2072400260921,336.3264189651243C614.5493798199332,326.091842055653,626.8915196137741,313.51341396186103,639.233659407615,276.228687029861C651.575799201456,238.94396009786104,663.917938995297,176.95293432765328,676.2600787891381,147.65819466605882C688.6022185829792,118.36345500446437,700.9443583768203,121.76500145148327,713.2864981706612,127.75855433496696C725.628637964502,133.75210721845065,737.970777758343,142.33766653839905,750.3129175521841,160.26675404604515C762.6550573460252,178.19584155369125,774.9971971398661,205.46845724903505,787.3393369337072,211.34522452701162C799.6814767275482,217.2219918049882,812.0236165213893,201.70291066559756,824.3657563152302,209.87269204467748C836.7078961090712,218.0424734237574,849.0500359029122,249.901117321308,861.3921756967533,267.5775586961477C873.7343154905943,285.25400007098744,886.0764552844353,288.7482389231163,898.4185950782763,292.2424777752451L898.4185950782763,252.5761340323684C886.0764552844354,249.38784850321917,873.7343154905943,246.19956297406998,861.3921756967533,223.76971734670622C849.0500359029122,201.33987171934245,836.7078961090714,159.66846599376422,824.3657563152302,150.0510599498519C812.023616521389,140.43365390593956,799.6814767275481,162.8702475436932,787.3393369337072,156.401356279918C774.9971971398662,149.93246501614277,762.655057346025,114.55808885083862,750.3129175521841,97.26077045817186C737.9707777583432,79.96345206550511,725.6286379645022,80.74319144547576,713.2864981706612,76.2914988954297C700.9443583768201,71.83980634538364,688.6022185829792,62.15668186532089,676.2600787891381,89.12502849327564C663.917938995297,116.09337512123038,651.5757992014561,179.7131928572026,639.233659407615,222.20515158422614C626.891519613774,264.6971103112497,614.5493798199332,286.0612100293244,602.2072400260921,299.9732733074994C589.865100232251,313.88533658567445,577.5229604384101,320.34536342394966,565.1808206445692,333.3813540004559C552.8386808507282,346.4173445769621,540.496541056887,366.0292988916991,528.1544012630461,380.0422270344199C515.8122614692052,394.0551551771407,503.47012167536417,402.46905714784526,491.12798188152306,405.35137907453844C478.78584208768194,408.2337010012316,466.4437022938411,405.5844428839135,454.1015625000001,410.6893093229998C441.7594227061591,415.7941757620861,429.41728291231806,428.6531667575769,417.07514311847706,426.79513334852976C404.73300332463606,424.9370999394826,392.390863530795,408.3620421258977,380.04872373695406,405.4434123546843C367.7065839431131,402.52478258347094,355.36444414927206,413.2625808546291,343.022304355431,418.8802712559836C330.68016456158995,424.49796165733807,318.33802476774895,424.9955441888885,305.99588497390795,422.0094027809437C293.65374518006695,419.02326137299883,281.31160538622595,412.55339602555864,268.9694655923849,416.94757237292C256.62732579854384,421.3417487202813,244.2851860047029,436.5999667624444,231.94304621086192,440.60012537041257C219.60090641702095,444.60028397838073,207.2587666231799,437.342383152154,194.9166268293389,438.1152268064737C182.5744870354979,438.88807046079336,170.2323472416569,447.69165859565965,157.89020744781587,453.48478459083657C145.54806765397484,459.2779105860135,133.20592786013384,462.060574441501,120.86378806629284,466.36944381126057C108.52164827245184,470.67831318102014,96.17950847861083,476.51338806505186,83.83736868476981,478.05767038978803C71.4952288909288,479.6019527145242,59.153089097087786,476.8554424799646,46.81094930324679,475.7568383861409C34.46880950940579,474.65823429231716,22.126669715564773,475.207536339229,9.784529921723761,475.7568383861409Z" style="opacity: 0.84; fill: rgb(0, 135, 89);"/><path class="area" d="M9.784529921723761,475.7568383861409C22.12666971556477,475.20753633922914,34.46880950940578,474.6582342923172,46.81094930324679,475.7568383861409C59.15308909708779,476.85544247996455,71.49522889092881,479.6019527145242,83.83736868476981,478.05767038978803C96.17950847861081,476.51338806505186,108.52164827245181,470.6783131810201,120.86378806629284,466.36944381126057C133.20592786013387,462.06057444150105,145.54806765397487,459.2779105860135,157.89020744781587,453.48478459083657C170.23234724165687,447.69165859565965,182.5744870354979,438.8880704607935,194.9166268293389,438.1152268064737C207.2587666231799,437.3423831521539,219.60090641702092,444.60028397838073,231.94304621086192,440.60012537041257C244.28518600470292,436.5999667624444,256.6273257985439,421.34174872028143,268.9694655923849,416.94757237292C281.3116053862259,412.5533960255585,293.65374518006695,419.0232613729988,305.99588497390795,422.0094027809437C318.33802476774895,424.9955441888886,330.68016456159,424.497961657338,343.022304355431,418.8802712559836C355.364444149272,413.26258085462916,367.70658394311306,402.524782583471,380.04872373695406,405.4434123546843C392.39086353079506,408.36204212589763,404.73300332463606,424.9370999394826,417.07514311847706,426.79513334852976C429.41728291231806,428.6531667575769,441.75942270615906,415.7941757620861,454.1015625000001,410.6893093229998C466.44370229384117,405.5844428839135,478.78584208768206,408.2337010012317,491.12798188152306,405.35137907453844C503.47012167536406,402.4690571478452,515.812261469205,394.05515517714065,528.1544012630461,380.0422270344199C540.4965410568872,366.02929889169917,552.8386808507282,346.417344576962,565.1808206445692,333.3813540004559C577.5229604384101,320.3453634239497,589.865100232251,313.8853365856745,602.2072400260921,299.9732733074994C614.5493798199332,286.06121002932434,626.8915196137741,264.6971103112496,639.233659407615,222.20515158422614C651.575799201456,179.7131928572027,663.917938995297,116.0933751212304,676.2600787891381,89.12502849327564C688.6022185829792,62.15668186532087,700.9443583768203,71.83980634538364,713.2864981706612,76.2914988954297C725.628637964502,80.74319144547576,737.970777758343,79.96345206550512,750.3129175521841,97.26077045817186C762.6550573460252,114.5580888508386,774.9971971398661,149.93246501614274,787.3393369337072,156.401356279918C799.6814767275482,162.87024754369324,812.0236165213893,140.43365390593956,824.3657563152302,150.0510599498519C836.7078961090712,159.66846599376422,849.0500359029122,201.33987171934245,861.3921756967533,223.76971734670622C873.7343154905943,246.19956297406998,886.0764552844353,249.38784850321917,898.4185950782763,252.5761340323684L898.4185950782763,215.4867221335765C886.0764552844354,208.27796816953452,873.7343154905943,201.0692142054926,861.3921756967533,175.36021198997037C849.0500359029122,149.65120977444812,836.7078961090714,105.4419593074456,824.3657563152302,97.86819010713475C812.023616521389,90.2944209068239,799.6814767275481,119.35613297320477,787.3393369337072,110.47674948712108C774.9971971398662,101.5973660010374,762.655057346025,54.776886962489165,750.3129175521841,38.37787782083427C737.9707777583432,21.978868679179378,725.6286379645022,36.00132943441782,713.2864981706612,37.35119547472647C700.9443583768201,38.701061515035114,688.6022185829792,27.378332840413975,676.2600787891381,54.15238203783912C663.917938995297,80.92643123526426,651.5757992014561,145.7972583047357,639.233659407615,191.46603601550038C626.891519613774,237.13481372626507,614.5493798199332,263.60154207832295,602.2072400260921,281.84271711876C589.865100232251,300.08389215919703,577.5229604384101,310.09951388801335,565.1808206445692,324.82225894688855C552.8386808507282,339.54500400576376,540.496541056887,358.97487239469774,528.1544012630461,372.679564622749C515.8122614692052,386.3842568508003,503.47012167536417,394.363772917969,491.12798188152306,398.448883063597C478.78584208768194,402.533993209225,466.4437022938411,402.7246974333123,454.1015625000001,408.66457715979027C441.7594227061591,414.6044568862682,429.41728291231806,426.29351211513654,417.07514311847706,424.1261682242991C404.73300332463606,421.9588243334616,392.390863530795,405.9350813229186,380.04872373695406,402.8664805105995C367.7065839431131,399.7978796982804,355.36444414927206,409.68442108418486,343.022304355431,415.1069067700023C330.68016456158995,420.52939245581973,318.33802476774895,421.48782244155007,305.99588497390795,418.2360382949624C293.65374518006695,414.9842541483747,281.31160538622595,407.52225586946884,268.9694655923849,411.70167540460454C256.62732579854384,415.88109493974025,244.2851860047029,431.70193228891725,231.94304621086192,436.3665944837019C219.60090641702095,441.0312566784865,207.2587666231799,434.5397437188781,194.9166268293389,435.9064280829724C182.5744870354979,437.2731124470667,170.2323472416569,446.4979941348637,157.89020744781587,451.9202188283565C145.54806765397484,457.3424435218493,133.20592786013384,458.9620112210377,120.86378806629284,461.85981308411215C108.52164827245184,464.7576149471866,96.17950847861083,468.93365097414693,83.83736868476981,470.9711078185548C71.4952288909288,473.00856466296267,59.153089097087786,472.907442324818,46.81094930324679,472.99583998176433C34.46880950940579,473.08423763871065,22.126669715564773,473.3621552907481,9.784529921723761,473.6400729427855Z" style="opacity: 0.84; fill: rgb(60, 171, 122);"/><path class="area" d="M9.784529921723761,473.6400729427855C22.12666971556477,473.3621552907481,34.46880950940578,473.0842376387107,46.81094930324679,472.99583998176433C59.15308909708779,472.90744232481796,71.49522889092881,473.0085646629627,83.83736868476981,470.9711078185548C96.17950847861081,468.9336509741469,108.52164827245181,464.75761494718654,120.86378806629284,461.85981308411215C133.20592786013387,458.96201122103776,145.54806765397487,457.34244352184925,157.89020744781587,451.9202188283565C170.23234724165687,446.49799413486375,182.5744870354979,437.27311244706675,194.9166268293389,435.9064280829724C207.2587666231799,434.53974371887807,219.60090641702092,441.0312566784864,231.94304621086192,436.3665944837019C244.28518600470292,431.70193228891736,256.6273257985439,415.88109493974025,268.9694655923849,411.70167540460454C281.3116053862259,407.52225586946884,293.65374518006695,414.9842541483747,305.99588497390795,418.2360382949624C318.33802476774895,421.48782244155007,330.68016456159,420.52939245581973,343.022304355431,415.1069067700023C355.364444149272,409.68442108418486,367.70658394311306,399.7978796982803,380.04872373695406,402.8664805105995C392.39086353079506,405.9350813229187,404.73300332463606,421.95882433346173,417.07514311847706,424.1261682242991C429.41728291231806,426.2935121151364,441.75942270615906,414.60445688626817,454.1015625000001,408.66457715979027C466.44370229384117,402.7246974333124,478.78584208768206,402.53399320922495,491.12798188152306,398.448883063597C503.47012167536406,394.3637729179691,515.812261469205,386.3842568508004,528.1544012630461,372.679564622749C540.4965410568872,358.9748723946976,552.8386808507282,339.54500400576364,565.1808206445692,324.82225894688855C577.5229604384101,310.09951388801346,589.865100232251,300.0838921591971,602.2072400260921,281.84271711876C614.5493798199332,263.6015420783229,626.8915196137741,237.134813726265,639.233659407615,191.46603601550038C651.575799201456,145.79725830473575,663.917938995297,80.92643123526426,676.2600787891381,54.15238203783912C688.6022185829792,27.378332840413968,700.9443583768203,38.70106151503512,713.2864981706612,37.35119547472647C725.628637964502,36.00132943441781,737.970777758343,21.97886867917937,750.3129175521841,38.37787782083427C762.6550573460252,54.77688696248917,774.9971971398661,101.59736600103739,787.3393369337072,110.47674948712108C799.6814767275482,119.35613297320478,812.0236165213893,90.29442090682392,824.3657563152302,97.86819010713475C836.7078961090712,105.44195930744559,849.0500359029122,149.65120977444812,861.3921756967533,175.36021198997037C873.7343154905943,201.0692142054926,886.0764552844353,208.27796816953457,898.4185950782763,215.4867221335765L898.4185950782763,206.92762708000913C886.0764552844354,200.8126091282226,873.7343154905943,194.6975911764361,861.3921756967533,169.47008206063373C849.0500359029122,144.24257294483135,836.7078961090714,99.90257266501305,824.3657563152302,92.71432641896519C812.023616521389,85.52608017291732,799.6814767275481,115.48958796063985,787.3393369337072,106.88745156143153C774.9971971398662,98.28531516222321,762.655057346025,51.1175345760841,750.3129175521841,34.05231365397765C737.9707777583432,16.987092731871204,725.6286379645022,30.024431473797435,713.2864981706612,32.013265226265105C700.9443583768201,34.002098978732775,688.6022185829792,24.94242774174188,676.2600787891381,52.31171643492138C663.917938995297,79.68100512810088,651.5757992014561,143.4792537514508,639.233659407615,188.98113745156144C626.891519613774,234.48302115167206,614.5493798199332,261.6885399285434,602.2072400260921,280.27815135628C589.865100232251,298.8677627840166,577.5229604384101,308.8414668626185,565.1808206445692,323.34972646455435C552.8386808507282,337.8579860664902,540.496541056887,356.9008011917596,528.1544012630461,370.74686573968546C515.8122614692052,384.5929302876113,503.47012167536417,393.24224425819347,491.12798188152306,397.52855026213814C478.78584208768194,401.8148562660828,466.4437022938411,401.7381543033901,454.1015625000001,407.8362776384773C441.7594227061591,413.93440097356455,429.41728291231806,426.2073496064315,417.07514311847706,423.9421016640073C404.73300332463606,421.6768537215831,392.390863530795,404.8734092038675,380.04872373695406,401.670047868703C367.7065839431131,398.46668653353856,355.36444414927206,408.86340838092497,343.022304355431,414.55470708912696C330.68016456158995,420.24600579732896,318.33802476774895,421.23188136634644,305.99588497390795,417.6838386140871C293.65374518006695,414.1357958618278,281.31160538622595,406.05383478829185,268.9694655923849,410.32117620241627C256.62732579854384,414.5885176165407,244.2851860047029,431.2051615183254,231.94304621086192,436.1825279234101C219.60090641702095,441.1598943284948,207.2587666231799,434.49798323687946,194.9166268293389,435.81439480282654C182.5744870354979,437.1308063687736,170.2323472416569,446.4255405922834,157.89020744781587,451.73615226806476C145.54806765397484,457.0467639438461,133.20592786013384,458.3732530718993,120.86378806629284,461.21558012309094C108.52164827245184,464.0579071742826,96.17950847861083,468.41607214861256,83.83736868476981,470.60297469797126C71.4952288909288,472.78987724732997,59.153089097087786,472.80551737171743,46.81094930324679,472.9038067016184C34.46880950940579,473.0020960315194,22.126669715564773,473.18303456693366,9.784529921723761,473.36397310234787Z" style="opacity: 0.84; fill: rgb(255, 233, 147);"/><path class="area" d="M9.784529921723761,473.36397310234787C22.12666971556477,473.18303456693354,34.46880950940578,473.0020960315193,46.81094930324679,472.9038067016184C59.15308909708779,472.80551737171754,71.49522889092881,472.7898772473301,83.83736868476981,470.60297469797126C96.17950847861081,468.41607214861244,108.52164827245181,464.05790717428255,120.86378806629284,461.21558012309094C133.20592786013387,458.37325307189934,145.54806765397487,457.04676394384614,157.89020744781587,451.73615226806476C170.23234724165687,446.42554059228337,182.5744870354979,437.13080636877373,194.9166268293389,435.81439480282654C207.2587666231799,434.49798323687935,219.60090641702092,441.1598943284948,231.94304621086192,436.1825279234101C244.28518600470292,431.2051615183254,256.6273257985439,414.5885176165406,268.9694655923849,410.32117620241627C281.3116053862259,406.0538347882919,293.65374518006695,414.1357958618278,305.99588497390795,417.6838386140871C318.33802476774895,421.23188136634644,330.68016456159,420.24600579732896,343.022304355431,414.55470708912696C355.364444149272,408.86340838092497,367.70658394311306,398.46668653353856,380.04872373695406,401.670047868703C392.39086353079506,404.8734092038675,404.73300332463606,421.6768537215831,417.07514311847706,423.9421016640073C429.41728291231806,426.2073496064315,441.75942270615906,413.9344009735645,454.1015625000001,407.8362776384773C466.44370229384117,401.73815430339016,478.78584208768206,401.81485626608287,491.12798188152306,397.52855026213814C503.47012167536406,393.2422442581934,515.812261469205,384.5929302876112,528.1544012630461,370.74686573968546C540.4965410568872,356.90080119175974,552.8386808507282,337.8579860664901,565.1808206445692,323.34972646455435C577.5229604384101,308.8414668626186,589.865100232251,298.8677627840167,602.2072400260921,280.27815135628C614.5493798199332,261.68853992854326,626.8915196137741,234.48302115167203,639.233659407615,188.98113745156144C651.575799201456,143.47925375145084,663.917938995297,79.68100512810089,676.2600787891381,52.31171643492138C688.6022185829792,24.942427741741866,700.9443583768203,34.002098978732775,713.2864981706612,32.013265226265105C725.628637964502,30.02443147379744,737.970777758343,16.9870927318712,750.3129175521841,34.05231365397765C762.6550573460252,51.1175345760841,774.9971971398661,98.28531516222321,787.3393369337072,106.88745156143153C799.6814767275482,115.48958796063985,812.0236165213893,85.52608017291735,824.3657563152302,92.71432641896519C836.7078961090712,99.90257266501303,849.0500359029122,144.24257294483132,861.3921756967533,169.47008206063373C873.7343154905943,194.69759117643613,886.0764552844353,200.81260912822262,898.4185950782763,206.92762708000913L898.4185950782763,182.81490768178713C886.0764552844354,175.32157963400735,873.7343154905943,167.82825158622757,861.3921756967533,138.7309664919079C849.0500359029122,109.63368139758825,836.7078961090714,58.93243925672876,824.3657563152302,49.18258490996129C812.023616521389,39.43273056319382,799.6814767275481,70.63426401051836,787.3393369337072,65.38044221563717C774.9971971398662,60.12662042075599,762.655057346025,18.417443383669088,750.3129175521841,3.2211648051060138C737.9707777583432,-11.975113773457062,725.6286379645022,-0.6584938934963134,713.2864981706612,3.9431147817700207C700.9443583768201,8.544723457036355,688.6022185829792,6.431320927608283,676.2600787891381,37.770458171871496C663.917938995297,69.10959541613471,651.5757992014561,133.9012724340892,639.233659407615,180.42204239799412C626.891519613774,226.94281236189903,614.5493798199332,255.19267527175424,602.2072400260921,274.0198883063597C589.865100232251,292.84710134096514,577.5229604384101,302.25166450032066,565.1808206445692,317.2755299749259C552.8386808507282,332.2993954495312,540.496541056887,352.9425632393861,528.1544012630461,367.70976749487124C515.8122614692052,382.47697175035637,503.47012167536417,391.36821247147145,491.12798188152306,395.8719512195122C478.78584208768194,400.37568996755294,466.4437022938411,400.49192674251935,454.1015625000001,406.7318782767267C441.7594227061591,412.9718298109341,429.41728291231806,425.3354961043826,417.07514311847706,423.11380214269434C404.73300332463606,420.89210818100605,392.390863530795,404.08505396418127,380.04872373695406,400.84174834739C367.7065839431131,397.5984427305988,355.36444414927206,407.91888571384106,343.022304355431,413.6343742876681C330.68016456158995,419.3498628614951,318.33802476774895,420.46039702590696,305.99588497390795,416.76350581262824C293.65374518006695,413.0666145993495,281.31160538622595,404.56229800838,268.9694655923849,408.7566104399362C256.62732579854384,412.95092287149237,244.2851860047029,429.8438643255738,231.94304621086192,434.9860952815136C219.60090641702095,440.1283262374534,207.2587666231799,433.5198466952512,194.9166268293389,434.8940620013677C182.5744870354979,436.26827730748414,170.2323472416569,445.6251874619194,157.89020744781587,450.8158194666059C145.54806765397484,456.0064514712924,133.20592786013384,457.0308053262299,120.86378806629284,459.558981080465C108.52164827245184,462.0871568347001,96.17950847861083,466.11915448823277,83.83736868476981,466.7375769318441C71.4952288909288,467.35599937545544,59.153089097087786,464.56084660914536,46.81094930324679,464.8048780487805C34.46880950940579,465.04890948841563,22.126669715564773,468.3321251339958,9.784529921723761,471.615340779576Z" style="opacity: 0.84; fill: rgb(170, 125, 45);"/><path class="area" d="M9.784529921723761,471.615340779576C22.12666971556477,468.3321251339958,34.46880950940578,465.0489094884156,46.81094930324679,464.8048780487805C59.15308909708779,464.5608466091454,71.49522889092881,467.35599937545544,83.83736868476981,466.7375769318441C96.17950847861081,466.11915448823277,108.52164827245181,462.0871568347001,120.86378806629284,459.558981080465C133.20592786013387,457.0308053262299,145.54806765397487,456.00645147129234,157.89020744781587,450.8158194666059C170.23234724165687,445.62518746191944,182.5744870354979,436.2682773074843,194.9166268293389,434.8940620013677C207.2587666231799,433.51984669525103,219.60090641702092,440.12832623745334,231.94304621086192,434.9860952815136C244.28518600470292,429.84386432557386,256.6273257985439,412.95092287149225,268.9694655923849,408.7566104399362C281.3116053862259,404.56229800838014,293.65374518006695,413.0666145993495,305.99588497390795,416.76350581262824C318.33802476774895,420.46039702590696,330.68016456159,419.3498628614951,343.022304355431,413.6343742876681C355.364444149272,407.91888571384106,367.70658394311306,397.5984427305987,380.04872373695406,400.84174834739C392.39086353079506,404.0850539641813,404.73300332463606,420.8921081810061,417.07514311847706,423.11380214269434C429.41728291231806,425.33549610438257,441.75942270615906,412.97182981093414,454.1015625000001,406.7318782767267C466.44370229384117,400.4919267425193,478.78584208768206,400.375689967553,491.12798188152306,395.8719512195122C503.47012167536406,391.3682124714714,515.812261469205,382.4769717503563,528.1544012630461,367.70976749487124C540.4965410568872,352.9425632393862,552.8386808507282,332.2993954495312,565.1808206445692,317.2755299749259C577.5229604384101,302.25166450032066,589.865100232251,292.8471013409651,602.2072400260921,274.0198883063597C614.5493798199332,255.1926752717543,626.8915196137741,226.942812361899,639.233659407615,180.42204239799412C651.575799201456,133.90127243408924,663.917938995297,69.10959541613471,676.2600787891381,37.770458171871496C688.6022185829792,6.431320927608276,700.9443583768203,8.544723457036355,713.2864981706612,3.9431147817700207C725.628637964502,-0.6584938934963132,737.970777758343,-11.97511377345706,750.3129175521841,3.2211648051060138C762.6550573460252,18.417443383669088,774.9971971398661,60.126620420755984,787.3393369337072,65.38044221563717C799.6814767275482,70.63426401051836,812.0236165213893,39.43273056319382,824.3657563152302,49.18258490996129C836.7078961090712,58.93243925672876,849.0500359029122,109.63368139758825,861.3921756967533,138.7309664919079C873.7343154905943,167.82825158622757,886.0764552844353,175.32157963400735,898.4185950782763,182.81490768178713L898.4185950782763,182.17067472076593C886.0764552844354,173.2418814529685,873.7343154905943,164.31308818517107,861.3921756967533,135.23370184636428C849.0500359029122,106.15431550755751,836.7078961090714,56.924336097741396,824.3657563152302,47.80208570777302C812.023616521389,38.67983531780464,799.6814767275481,69.66531394768401,787.3393369337072,64.36807613403238C774.9971971398662,59.070838320380744,762.655057346025,17.490884063198095,750.3129175521841,2.484898563938941C737.9707777583432,-12.521086935320213,725.6286379645022,-0.9531036766558696,713.2864981706612,3.4829483810406145C700.9443583768201,7.919000438737099,688.6022185829792,5.223121295465731,676.2600787891381,36.29792568953735C663.917938995297,67.37273008360897,651.5757992014561,132.21821801502358,639.233659407615,179.1335764759517C626.891519613774,226.04893493687985,614.5493798199332,255.03416392732152,602.2072400260921,274.0198883063597C589.865100232251,293.00561268539786,577.5229604384101,301.9918324530327,565.1808206445692,316.9073968543424C552.8386808507282,331.82296125565205,540.496541056887,352.66787029063653,528.1544012630461,367.52570093457945C515.8122614692052,382.38353157852237,503.47012167536417,391.2542838314238,491.12798188152306,395.7799179393663C478.78584208768194,400.3055520473089,466.4437022938411,400.4860680102925,454.1015625000001,406.7318782767267C441.7594227061591,412.9776885431609,429.41728291231806,425.28879311304564,417.07514311847706,423.02176886254847C404.73300332463606,420.7547446120513,392.390863530795,403.90959154117223,380.04872373695406,400.56564850695236C367.7065839431131,397.2217054727325,355.36444414927206,407.37897247517134,343.022304355431,412.99014132664695C330.68016456158995,418.60131017812256,318.33802476774895,419.6663808786345,305.99588497390795,416.11927285160704C293.65374518006695,412.57216482457954,281.31160538622595,404.4128780700128,268.9694655923849,408.66457715979027C256.62732579854384,412.9162762495677,244.2851860047029,429.57896118368905,231.94304621086192,434.70999544107593C219.60090641702095,439.8410296984628,207.2587666231799,433.4404132791151,194.9166268293389,434.8940620013677C182.5744870354979,436.34771072362025,170.2323472416569,445.65562458747314,157.89020744781587,450.8158194666059C145.54806765397484,455.97601434573863,133.20592786013384,456.98849024015107,120.86378806629284,459.558981080465C108.52164827245184,462.12947192077894,96.17950847861083,466.2579777069945,83.83736868476981,466.82961021199C71.4952288909288,467.40124271698545,59.153089097087786,464.4160019407609,46.81094930324679,464.6208114884887C34.46880950940579,464.8256210362165,22.126669715564773,468.2204809078962,9.784529921723761,471.615340779576Z" style="opacity: 0.84; fill: rgb(255, 202, 118);"/><path class="area" d="M9.784529921723761,471.615340779576C22.12666971556477,468.22048090789616,34.46880950940578,464.8256210362164,46.81094930324679,464.6208114884887C59.15308909708779,464.416001940761,71.49522889092881,467.40124271698545,83.83736868476981,466.82961021199C96.17950847861081,466.2579777069945,108.52164827245181,462.12947192077905,120.86378806629284,459.558981080465C133.20592786013387,456.98849024015095,145.54806765397487,455.97601434573863,157.89020744781587,450.8158194666059C170.23234724165687,445.65562458747314,182.5744870354979,436.3477107236203,194.9166268293389,434.8940620013677C207.2587666231799,433.44041327911503,219.60090641702092,439.8410296984629,231.94304621086192,434.70999544107593C244.28518600470292,429.578961183689,256.6273257985439,412.9162762495676,268.9694655923849,408.66457715979027C281.3116053862259,404.41287807001294,293.65374518006695,412.5721648245796,305.99588497390795,416.11927285160704C318.33802476774895,419.66638087863447,330.68016456159,418.60131017812245,343.022304355431,412.99014132664695C355.364444149272,407.37897247517145,367.70658394311306,397.22170547273237,380.04872373695406,400.56564850695236C392.39086353079506,403.90959154117235,404.73300332463606,420.7547446120513,417.07514311847706,423.02176886254847C429.41728291231806,425.28879311304564,441.75942270615906,412.9776885431609,454.1015625000001,406.7318782767267C466.44370229384117,400.4860680102925,478.78584208768206,400.3055520473089,491.12798188152306,395.7799179393663C503.47012167536406,391.2542838314238,515.812261469205,382.3835315785223,528.1544012630461,367.52570093457945C540.4965410568872,352.6678702906366,552.8386808507282,331.8229612556521,565.1808206445692,316.9073968543424C577.5229604384101,301.99183245303266,589.865100232251,293.0056126853979,602.2072400260921,274.0198883063597C614.5493798199332,255.03416392732146,626.8915196137741,226.04893493687982,639.233659407615,179.1335764759517C651.575799201456,132.2182180150236,663.917938995297,67.37273008360897,676.2600787891381,36.29792568953735C688.6022185829792,5.223121295465728,700.9443583768203,7.9190004387371,713.2864981706612,3.4829483810406145C725.628637964502,-0.9531036766558705,737.970777758343,-12.521086935320213,750.3129175521841,2.484898563938941C762.6550573460252,17.490884063198095,774.9971971398661,59.070838320380744,787.3393369337072,64.36807613403238C799.6814767275482,69.66531394768401,812.0236165213893,38.679835317804645,824.3657563152302,47.80208570777302C836.7078961090712,56.92433609774139,849.0500359029122,106.1543155075575,861.3921756967533,135.23370184636428C873.7343154905943,164.31308818517107,886.0764552844353,173.2418814529685,898.4185950782763,182.17067472076593L898.4185950782763,180.69814223843179C886.0764552844354,171.4116289104635,873.7343154905943,162.12511558249517,861.3921756967533,133.30100296330073C849.0500359029122,104.4768903441063,836.7078961090714,56.11517843368572,824.3657563152302,47.065819466605944C812.023616521389,38.01646049952617,799.6814767275481,68.27945447578719,787.3393369337072,62.5274105311147C774.9971971398662,56.7753665864422,762.655057346025,15.008284720836201,750.3129175521841,0C737.9707777583432,-15.008284720836201,725.6286379645022,-3.2577722969026004,713.2864981706612,1.2741496575393398C700.9443583768201,5.80607161198128,688.6022185829792,3.1194030969315634,676.2600787891381,34.54929336676548C663.917938995297,65.9791836365994,651.5757992014561,131.52563269131696,639.233659407615,178.76544335536818C626.891519613774,226.0052540194194,614.5493798199332,254.93842629280437,602.2072400260921,273.83582174606795C589.865100232251,292.73321719933153,577.5229604384101,301.59483583247385,565.1808206445692,316.53926373375884C552.8386808507282,331.48369163504384,540.496541056887,352.5109288044717,528.1544012630461,367.4336676544336C515.8122614692052,382.35640650439547,503.47012167536417,391.1746470348915,491.12798188152306,395.68788465922046C478.78584208768194,400.2011222835494,466.4437022938411,400.4093570017117,454.1015625000001,406.6398449965808C441.7594227061591,412.87033299144986,429.41728291231806,425.1230742630257,417.07514311847706,422.7456690221108C404.73300332463606,420.3682637811959,392.390863530795,403.36071202779027,380.04872373695406,400.013448826077C367.7065839431131,396.6661856243638,355.36444414927206,406.97921097434295,343.022304355431,412.62200820606336C330.68016456158995,418.26480543778376,318.33802476774895,419.2373745512452,305.99588497390795,415.7511397310235C293.65374518006695,412.2649049108018,281.31160538622595,404.3198661568967,268.9694655923849,408.66457715979027C256.62732579854384,413.00928816268384,244.2851860047029,429.64374892237583,231.94304621086192,434.70999544107593C219.60090641702095,439.77624195977603,207.2587666231799,433.27427423748424,194.9166268293389,434.70999544107593C182.5744870354979,436.14571664466763,170.2323472416569,445.51912677414253,157.89020744781587,450.72378618646C145.54806765397484,455.9284455987775,133.20592786013384,456.9643542939372,120.86378806629284,459.558981080465C108.52164827245184,462.1536078669928,96.17950847861083,466.3069527448887,83.83736868476981,466.82961021199C71.4952288909288,467.35226767909126,59.153089097087786,464.24423773539826,46.81094930324679,464.43674492819696C34.46880950940579,464.62925212099566,22.126669715564773,468.12229645028583,9.784529921723761,471.615340779576Z" style="opacity: 0.84; fill: rgb(211, 162, 80);"/></g><g><g class="x-tick-labels grid-x css-14jwf37" transform="translate(0,489.5)"><text class="x-tick-label bottom" transform="translate(10,12)" y="0"><tspan x="0" dy="0">Jul 16</tspan></text><text class="x-tick-label bottom" transform="translate(84.01692708333333,12)" y="0"><tspan x="0" dy="0">Jul 30</tspan></text><text class="x-tick-label bottom" transform="translate(158.03385416666666,12)" y="0"><tspan x="0" dy="0">Aug 13</tspan></text><text class="x-tick-label bottom" transform="translate(232.05078125,12)" y="0"><tspan x="0" dy="0">Aug 27</tspan></text><text class="x-tick-label bottom" transform="translate(306.0677083333333,12)" y="0"><tspan x="0" dy="0">Sep 10</tspan></text><text class="x-tick-label bottom" transform="translate(380.08463541666663,12)" y="0"><tspan x="0" dy="0">Sep 24</tspan></text><text class="x-tick-label bottom" transform="translate(454.1015625,12)" y="0"><tspan x="0" dy="0">Oct 8</tspan></text><text class="x-tick-label bottom" transform="translate(528.1184895833333,12)" y="0"><tspan x="0" dy="0">Oct 22</tspan></text><text class="x-tick-label bottom" transform="translate(602.1354166666666,12)" y="0"><tspan x="0" dy="0">Nov 5</tspan></text><text class="x-tick-label bottom" transform="translate(676.15234375,12)" y="0"><tspan x="0" dy="0">Nov 19</tspan></text><text class="x-tick-label bottom" transform="translate(750.1692708333333,12)" y="0"><tspan x="0" dy="0">Dec 3</tspan></text><text class="x-tick-label bottom" transform="translate(824.1861979166666,12)" y="0"><tspan x="0" dy="0">Dec 17</tspan></text><text class="x-tick-label bottom" transform="translate(898.203125,12)" y="0"><tspan x="0" dy="0">Dec 31</tspan></text></g><g class="y-tick-labels grid-y css-126iv6" transform="translate(-5,0)"><text class="y-tick-label left is-zero" transform="translate(0,488.5)" y="0"><tspan x="-1" dy="0">0</tspan></text><text class="y-tick-label left" transform="translate(0,442.4833599270572)" y="0"><tspan x="-1" dy="0">500</tspan></text><text class="y-tick-label left" transform="translate(0,396.46671985411444)" y="0"><tspan x="-1" dy="0">1,000</tspan></text><text class="y-tick-label left" transform="translate(0,350.45007978117167)" y="0"><tspan x="-1" dy="0">1,500</tspan></text><text class="y-tick-label left" transform="translate(0,304.4334397082289)" y="0"><tspan x="-1" dy="0">2,000</tspan></text><text class="y-tick-label left" transform="translate(0,258.4167996352861)" y="0"><tspan x="-1" dy="0">2,500</tspan></text><text class="y-tick-label left" transform="translate(0,212.40015956234333)" y="0"><tspan x="-1" dy="0">3,000</tspan></text><text class="y-tick-label left" transform="translate(0,166.38351948940056)" y="0"><tspan x="-1" dy="0">3,500</tspan></text><text class="y-tick-label left" transform="translate(0,120.36687941645778)" y="0"><tspan x="-1" dy="0">4,000</tspan></text><text class="y-tick-label left" transform="translate(0,74.35023934351494)" y="0"><tspan x="-1" dy="0">4,500</tspan></text><text class="y-tick-label left" transform="translate(0,28.333599270572222)" y="0"><tspan x="-1" dy="0">5,000</tspan></text></g><g class="y-base-lines grid-y css-n2qvu0"><line transform="translate(0,484.5)" x1="908.203125"/></g></g></g></g></svg></svg>